<?xml version="1.0" standalone="no"?>
<!DOCTYPE svg PUBLIC "-//W3C//DTD SVG 1.1//EN" "http://www.w3.org/Graphics/SVG/1.1/DTD/svg11.dtd" >
<svg>
<metadata>
Created by FontForge 20090914 at Sat Mar 12 16:32:01 2022
 By www-data
Copyright 2016 The Smooch Sans Project Authors (https://github.com/googlefonts/smooch-sans)
</metadata>
<defs>
<font id="SmoochSans-Medium" horiz-adv-x="396" >
  <font-face 
    font-family="Smooch Sans Medium"
    font-weight="500"
    font-stretch="normal"
    units-per-em="1000"
    panose-1="0 0 0 0 0 0 0 0 0 0"
    ascent="800"
    descent="-200"
    x-height="470"
    cap-height="620"
    bbox="-127 -263 758.998 943"
    underline-thickness="50"
    underline-position="-75"
    unicode-range="U+000D-U+FB02"
  />
<missing-glyph horiz-adv-x="494" 
d="M87 40v498h320v-498h-320zM158 117l83 150l85 -150l13 22l-86 151l86 153l-13 23l-85 -152l-83 151l-11 -22l83 -151l-83 -153zM52 -5l-12 12v568l12 12h391l11 -12v-568l-11 -12h-391zM430 21v540h-364v-540h364z" />
    <glyph glyph-name="fi" unicode="fi" horiz-adv-x="412" 
d="M66 433h-43v37h43v76c0 28.667 6.5 48.5 19.5 59.5s36.833 16.5 71.5 16.5h92v-37h-60c-21.333 0 -35.5 -3.5 -42.5 -10.5s-10.5 -20.5 -10.5 -40.5v-64h196l-5 -37h-191v-433h-70v433zM306 470h66v-470h-66v470z" />
    <glyph glyph-name="fl" unicode="fl" horiz-adv-x="420" 
d="M66 433l-43 0.000976562v37h43v76c0 28.667 6.5 48.667 19.5 60s36.833 16.666 71.5 15.999l208 -2l-33 -35h-143c-21.333 0 -35.5 -3.5 -42.5 -10.5s-10.5 -20.5 -10.5 -40.5v-64h86l-6 -37h-80v-433h-70v433zM300 620.001h66v-620h-66v620z" />
    <glyph glyph-name="f_f" unicode="ff" horiz-adv-x="490" 
d="M66 433h-43v37h43v76c0 28.667 6.5 48.5 19.5 59.5s36.833 16.5 71.5 16.5h92v-37h-60c-21.333 0 -35.5 -3.5 -42.5 -10.5s-10.5 -20.5 -10.5 -40.5v-64h156l-6 -37h-150v-433h-70v433zM292 433h-43v37h43v76c0 28.667 6.66699 48.5 20 59.5s37 16.5 71 16.5h92v-37h-60
c-21.333 0 -35.5 -3.5 -42.5 -10.5s-10.5 -20.5 -10.5 -40.5v-64h86l-6 -37h-80v-433h-70v433z" />
    <glyph glyph-name="f_f_i" unicode="ffi" horiz-adv-x="646" 
d="M292 433h-43v37h43v76c0 28.667 6.66699 48.5 20 59.5s37 16.5 71 16.5h92v-37h-60c-21.333 0 -35.5 -3.5 -42.5 -10.5s-10.5 -20.5 -10.5 -40.5v-64h207l-6 -37h-201v-433h-70v433zM66 433h-43v37h43v76c0 28.667 6.5 48.5 19.5 59.5s36.833 16.5 71.5 16.5h92v-37h-60
c-21.333 0 -35.5 -3.5 -42.5 -10.5s-10.5 -20.5 -10.5 -40.5v-64h156l-6 -37h-150v-433h-70v433zM544 470h66v-470h-66v470z" />
    <glyph glyph-name="f_f_l" unicode="ffl" horiz-adv-x="684" 
d="M66 0v433h-43v37h43v76c0 28.667 6.5 48.5 19.5 59.5s36.833 16.5 71.5 16.5h92v-37h-60c-21.333 0 -35.5 -3.5 -42.5 -10.5s-10.5 -20.5 -10.5 -40.5v-64h210l-6 -37h-204v-433h-70zM330 0l-0.00195312 433.001h-43v37h43v76c0 28.667 6.33301 48.667 19 60
s36.334 16.666 71.001 15.999l205 -2l-32 -35h-141c-21.333 0 -35.666 -3.5 -42.999 -10.5s-11 -20.5 -11 -40.5v-64h87l-6 -37h-81v-433h-68zM563.998 0.000976562v620h66v-620h-66z" />
    <glyph glyph-name=".notdef" horiz-adv-x="494" 
d="M87 40v498h320v-498h-320zM158 117l83 150l85 -150l13 22l-86 151l86 153l-13 23l-85 -152l-83 151l-11 -22l83 -151l-83 -153zM52 -5l-12 12v568l12 12h391l11 -12v-568l-11 -12h-391zM430 21v540h-364v-540h364z" />
    <glyph glyph-name="CR" unicode="&#xd;" horiz-adv-x="240" 
 />
    <glyph glyph-name="space" unicode=" " horiz-adv-x="163" 
 />
    <glyph glyph-name="exclam" unicode="!" horiz-adv-x="233" 
d="M96 188l-19 432h67l-20 -432h-28zM110 2c-14 0 -22.167 2.33301 -24.5 7s-3.5 12 -3.5 22c0 10.667 1.16699 18.167 3.5 22.5s10.5 6.5 24.5 6.5s22.333 -2.16699 25 -6.5s4 -11.833 4 -22.5c0 -10 -1.33301 -17.333 -4 -22s-11 -7 -25 -7z" />
    <glyph glyph-name="quotedbl" unicode="&#x22;" horiz-adv-x="349" 
d="M73 407l-10 214h65l-9 -214h-46zM229 407l-10 214h65l-9 -214h-46z" />
    <glyph glyph-name="numbersign" unicode="#" horiz-adv-x="596" 
d="M91 0l66 211h-135l10 31h135l40 126h-136l9 32h137l55 174h40l-55 -174h128l55 174h41l-56 -174h132l-10 -32h-131l-40 -126h133l-10 -31h-133l-66 -211h-41l66 211h-127l-67 -211h-40zM335 242l40 126h-128l-40 -126h128z" />
    <glyph glyph-name="dollar" unicode="$" horiz-adv-x="352" 
d="M183 -5c-29.333 0.666992 -55.499 3 -78.499 7s-41.167 11.833 -54.5 23.5s-20 28.167 -20 49.5v132l67 9v-115c0 -16.667 6 -29.5 18 -38.5s33.333 -13.5 64 -13.5c20.667 0 36.5 2.33301 47.5 7s18.5 11.834 22.5 21.501s6 22.167 6 37.5v84
c0 22.667 -5.5 41.167 -16.5 55.5s-27.5 24.833 -49.5 31.5l-75 21c-30 9.33301 -51.5 21.166 -64.5 35.499s-19.5 36.5 -19.5 66.5v116c0 28.667 6.5 50 19.5 64s31 23.333 54 28s49.167 7 78.5 7c28 0 52.5 -2.33301 73.5 -7s37.333 -12.667 49 -24
s17.5 -27.666 17.5 -48.999v-132l-67 -11v112c0 22 -5.16699 37.333 -15.5 46s-30.5 13 -60.5 13c-30.667 0 -52 -5.16699 -64 -15.5s-18 -28.833 -18 -55.5v-77c0 -19.333 5.5 -35.333 16.5 -48s25.167 -21.667 42.5 -27l80 -23c31.333 -9.33301 53.5 -21.833 66.5 -37.5
s19.5 -38.834 19.5 -69.501v-122c0 -28.667 -5.66699 -50.167 -17 -64.5s-27.333 -24 -48 -29s-45.334 -7.83301 -74.001 -8.5zM95.001 -93l14 122l45 -4l-15 -118h-44zM223.001 592l-43 10l15 116h45z" />
    <glyph glyph-name="percent" unicode="%" horiz-adv-x="541" 
d="M64 -44l340 674h46l-342 -674h-44zM407 6c-24 0 -42.168 2.83301 -54.501 8.5s-20.833 12.834 -25.5 21.501s-7 17.667 -7 27v139c0 10 2.33301 19.5 7 28.5s13.5 16.333 26.5 22s32.167 8.5 57.5 8.5c24.667 0 43.334 -2.83301 56.001 -8.5s21.5 -12.834 26.5 -21.501
s7.5 -18 7.5 -28v-133c0 -12 -2.5 -23 -7.5 -33s-14.167 -17.667 -27.5 -23s-33 -8 -59 -8zM406.999 37c18.667 0 32.5 2.83301 41.5 8.5s13.5 15.5 13.5 29.5v121c0 12 -4.33301 20.833 -13 26.5s-21.334 8.5 -38.001 8.5s-29.5 -2.83301 -38.5 -8.5
s-13.5 -14.5 -13.5 -26.5v-125c0 -11.333 4.33301 -19.833 13 -25.5s20.334 -8.5 35.001 -8.5zM126.999 364c-24 0 -42.333 2.83496 -55 8.50195s-21.167 13 -25.5 22s-6.5 18.167 -6.5 27.5v139c0 10 2.33301 19.5 7 28.5s13.5 16.333 26.5 22s32.167 8.5 57.5 8.5
c24 0 42.5 -2.83301 55.5 -8.5s22 -12.834 27 -21.501s7.5 -18.334 7.5 -29.001v-132c0 -12 -2.5 -23 -7.5 -33s-14.333 -17.833 -28 -23.5s-33.167 -8.5 -58.5 -8.5zM126.999 396.002c18.667 0 32.499 2.83301 41.499 8.5s13.5 15.167 13.5 28.5v121
c0 12 -4.33301 20.833 -13 26.5s-21.667 8.5 -39 8.5c-16 0 -28.5 -2.83301 -37.5 -8.5s-13.5 -14.5 -13.5 -26.5v-124c0 -12 4.33301 -20.667 13 -26s20.334 -8 35.001 -8z" />
    <glyph glyph-name="ampersand" unicode="&#x26;" horiz-adv-x="481" 
d="M224 2c-44.667 0 -77.667 5.1709 -99 15.5039s-35.166 24.5 -41.499 42.5s-9.5 38 -9.5 60v112c0 22 2.33301 41 7 57s15.167 28.833 31.5 38.5s41.166 15.167 74.499 16.5c-30.667 1.33301 -54 5.66602 -70 12.999s-26.667 18.166 -32 32.499s-8 32.5 -8 54.5v85
c0 29.333 4.33301 51.333 13 66s23.667 24.334 45 29.001s50.333 7 87 7c38 0 67.333 -2.5 88 -7.5s35.167 -14.833 43.5 -29.5s12.5 -36.334 12.5 -65.001v-99l-66 -20v100c0 14.667 -1.83301 26.334 -5.5 35.001s-11.167 14.834 -22.5 18.501s-29 5.5 -53 5.5
c-22 0 -38.5 -1.66699 -49.5 -5s-18.333 -9 -22 -17s-5.5 -18.667 -5.5 -32v-65c0 -24.667 2 -43.667 6 -57s13.333 -22.333 28 -27s37 -7.33398 67 -8.00098h59v-26h-59c-29.333 -0.666992 -51.333 -4.33398 -66 -11.001s-24.334 -17.334 -29.001 -32.001
s-7.33398 -35 -8.00098 -61v-98c0 -8 0.5 -16.5 1.5 -25.5s3.66699 -17 8 -24s11.833 -12.667 22.5 -17s26 -6.5 46 -6.5c21.333 0 37.666 2.16699 48.999 6.5s19.333 10.166 24 17.499s7.33398 15.333 8.00098 24s1 17 1 25v182h141l-16 -51h-57v-113
c0 -21.333 -1.16699 -41 -3.5 -59s-8.16602 -33.5 -17.499 -46.5s-23.666 -23 -42.999 -30s-46 -10.5 -80 -10.5z" />
    <glyph glyph-name="quotesingle" unicode="'" horiz-adv-x="194" 
d="M74 407l-10 214h65l-9 -214h-46z" />
    <glyph glyph-name="parenleft" unicode="(" horiz-adv-x="391" 
d="M309 -120c-40.667 2 -77.501 13.5 -110.501 34.5s-61.167 49 -84.5 84s-41.166 74.5 -53.499 118.5s-18.5 90 -18.5 138c0 52 6.83301 102.667 20.5 152s33 93.833 58 133.5s54.5 71.667 88.5 96s71 37.166 111 38.499v-31c-28 -2.66699 -53.5 -12.167 -76.5 -28.5
s-43.333 -37.833 -61 -64.5s-32.167 -56.334 -43.5 -89.001s-20 -66.667 -26 -102s-9 -69.666 -9 -102.999c0 -40 4 -79.667 12 -119s20.5 -75.5 37.5 -108.5s38.333 -60.167 64 -81.5s56.167 -33.666 91.5 -36.999v-31z" />
    <glyph glyph-name="parenright" unicode=")" horiz-adv-x="391" 
d="M81 677c41.333 -2.66699 78.501 -14.499 111.501 -35.499s61.167 -49 84.5 -84s41.166 -74.333 53.499 -118s18.5 -89.5 18.5 -137.5c0 -52 -6.83301 -102.833 -20.5 -152.5s-33 -94.334 -58 -134.001s-54.5 -71.5 -88.5 -95.5s-71.333 -36.667 -112 -38v31
c28.667 2 54.5 11.167 77.5 27.5s43.167 37.833 60.5 64.5s31.833 56.5 43.5 89.5s20.5 67 26.5 102s9 69.167 9 102.5c0 40.667 -4 80.5 -12 119.5s-20.5 75 -37.5 108s-38.5 60.167 -64.5 81.5s-56.667 34 -92 38v31z" />
    <glyph glyph-name="asterisk" unicode="*" horiz-adv-x="437" 
d="M138 307l-34 25l101 115l-149 34l12 37l144 -55l-14 151h42l-12 -150l141 58l11 -36l-146 -39l100 -115l-33 -24l-81 130z" />
    <glyph glyph-name="plus" unicode="+" horiz-adv-x="420" 
d="M52 294v37h317v-37h-317zM226 147h-37v317h37v-317zM52 294v37h317v-37h-317z" />
    <glyph glyph-name="comma" unicode="," horiz-adv-x="197" 
d="M44 -114c10.667 22 19 42.667 25 62s9 38.333 9 57c-10.667 0 -17 2.33301 -19 7s-3 10.334 -3 17.001c0 8 0.333008 14.167 1 18.5s3.16699 7.5 7.5 9.5s11.5 3 21.5 3c13.333 0 21.333 -2.16699 24 -6.5s4 -11.833 4 -22.5c0 -16 -2 -33.333 -6 -52
s-8.83301 -36.334 -14.5 -53.001s-11.5 -30 -17.5 -40h-32z" />
    <glyph glyph-name="hyphen" unicode="-" horiz-adv-x="399" 
d="M61 277v54h277v-54h-277z" />
    <glyph glyph-name="period" unicode="." horiz-adv-x="173" 
d="M81 2c-14 0 -22 2.33301 -24 7s-3 12 -3 22c0 10.667 1 18.167 3 22.5s10 6.5 24 6.5s22.333 -2.16699 25 -6.5s4 -11.833 4 -22.5c0 -10 -1.33301 -17.333 -4 -22s-11 -7 -25 -7z" />
    <glyph glyph-name="slash" unicode="/" horiz-adv-x="457" 
d="M36 -44l340 674h45l-342 -674h-43z" />
    <glyph glyph-name="zero" unicode="0" horiz-adv-x="382" 
d="M39 181l0.00488281 311.002c0 28 4.16699 50.667 12.5 68s19.666 30.666 33.999 39.999s30.333 15.666 48 18.999s36.5 5 56.5 5s39.167 -1.66699 57.5 -5s34.666 -9.66602 48.999 -18.999s25.666 -22.833 33.999 -40.5s12.5 -40.5 12.5 -68.5v-310h-68v298
c0 26 -4.16699 45.333 -12.5 58s-18.833 21 -31.5 25s-26.334 6 -41.001 6c-12.667 0 -25.334 -2.16699 -38.001 -6.5s-23.167 -12.833 -31.5 -25.5s-12.5 -31.334 -12.5 -56.001v-299h-69zM190.005 -5.99805c-20 0 -38.8379 1.6709 -56.5049 5.00391
s-33.667 9.66602 -48 18.999s-25.666 22.666 -33.999 39.999s-12.5 39.666 -12.5 66.999v312h69v-299c0 -24.667 4.16699 -43.334 12.5 -56.001s18.833 -21.334 31.5 -26.001s25.334 -7 38.001 -7c14.667 0 28.334 2.16699 41.001 6.5s23.167 13 31.5 26
s12.5 32.167 12.5 57.5v298h68v-311c0 -27.333 -4.16699 -49.833 -12.5 -67.5s-19.666 -31.167 -33.999 -40.5s-30.666 -15.666 -48.999 -18.999s-37.5 -5 -57.5 -5z" />
    <glyph glyph-name="one" unicode="1" horiz-adv-x="281" 
d="M162 0v529l-112 -131l-37 35l150 187h65v-620h-66z" />
    <glyph glyph-name="two" unicode="2" horiz-adv-x="355" 
d="M32 0l0.00292969 39.999c0 40 2.33301 73.333 7 100s11.667 48.834 21 66.501s21.166 33.167 35.499 46.5s30.833 26.666 49.5 39.999l22.5 13.5l19.5 12.5c25.333 20 43.5 39 54.5 57s16.5 41.667 16.5 71v39c0 30.667 -5.83301 52.334 -17.5 65.001
s-27.834 19 -48.501 19h-22c-18 0 -32 -4.16699 -42 -12.5s-16.833 -18.666 -20.5 -30.999s-5.5 -24.5 -5.5 -36.5v-98l-67 14v89c0 32.667 4.83301 58 14.5 76s24.334 30.667 44.001 38s44.5 11 74.5 11h33c28 0 51.167 -3.66699 69.5 -11s31.833 -19.666 40.5 -36.999
s13 -40.666 13 -69.999v-58c0 -38 -8.33301 -69.167 -25 -93.5s-39.334 -47.833 -68.001 -70.5c-8 -6.66699 -16.667 -13.167 -26 -19.5s-17.666 -12.5 -24.999 -18.5c-24.667 -18.667 -42.834 -38.834 -54.501 -60.501s-19.334 -43.334 -23.001 -65.001
s-5.5 -42.834 -5.5 -63.501h227l-13 -53h-279z" />
    <glyph glyph-name="three" unicode="3" horiz-adv-x="366" 
d="M172 -1c-34.667 0 -62.001 4.49707 -82.001 13.4971s-34 23.333 -42 43s-12 44.834 -12 75.501v85l66 -8v-60c0 -31.333 5.33301 -55 16 -71s28.334 -24 53.001 -24h22c26 0 44 8.5 54 25.5s15 39.833 15 68.5v52c0 26.667 -3.16699 46.834 -9.5 60.501
s-15.166 23 -26.499 28s-25 7.5 -41 7.5h-76v46h67c16 0 30.5 2.66699 43.5 8s23.333 15.5 31 30.5s11.5 36.5 11.5 64.5v46c0 31.333 -5.16699 52.5 -15.5 63.5s-27.166 16.5 -50.499 16.5h-28c-17.333 0 -30.833 -3.66699 -40.5 -11s-16.334 -17.166 -20.001 -29.499
s-5.5 -25.5 -5.5 -39.5v-78l-66 13v67c0 43.333 10.667 75.5 32 96.5s51.666 31.5 90.999 31.5h47c25.333 0 47.166 -3.66699 65.499 -11s32.333 -20.5 42 -39.5s14.5 -46.167 14.5 -81.5v-40c0 -21.333 -3.33301 -40.333 -10 -57s-15.5 -30.5 -26.5 -41.5
s-22.5 -19.333 -34.5 -25s-23 -8.5 -33 -8.5v-1c10.667 0 22 -2 34 -6s23.333 -10.167 34 -18.5s19.334 -19.5 26.001 -33.5s10 -31 10 -51v-74c0 -46 -11.5 -79.667 -34.5 -101s-55.167 -32 -96.5 -32h-25z" />
    <glyph glyph-name="four" unicode="4" horiz-adv-x="421" 
d="M251 0l1 126h-223l-21 33l233 461h83l-2 -440h96l-13 -54h-82l1 -126h-73zM84 180h171v354z" />
    <glyph glyph-name="five" unicode="5" horiz-adv-x="368" 
d="M166 -2c-32 0 -57.1689 5.16406 -75.502 15.4971s-31.166 25.666 -38.499 45.999s-11 45.5 -11 75.5v82l68 -13v-61c0 -28 4.16699 -50.167 12.5 -66.5s24.833 -24.5 49.5 -24.5h29c22 0 39 8.5 51 25.5s18 39.5 18 67.5v100c0 32 -2.33301 56.333 -7 73s-12 28 -22 34
s-23 9 -39 9h-17c-16 0 -29.333 -4 -40 -12s-19 -17 -25 -27s-9.33301 -18.333 -10 -25l-66 14v309h282v-53h-216v-201c2.66699 3.33301 8.16699 8.33301 16.5 15s19 12.834 32 18.501s28.5 8.5 46.5 8.5h26c16 0 30.333 -2.16699 43 -6.5s23.667 -12 33 -23
s16.5 -26.667 21.5 -47s7.5 -46.166 7.5 -77.499v-109c0 -31.333 -4.16699 -56.666 -12.5 -75.999s-19.166 -34.166 -32.499 -44.499s-27 -17.333 -41 -21s-26.667 -5.5 -38 -5.5h-45z" />
    <glyph glyph-name="six" unicode="6" horiz-adv-x="366" 
d="M183 -4c-19.333 0 -37.834 1.66992 -55.501 5.00293s-33.167 10.5 -46.5 21.5s-23.666 26.667 -30.999 47s-11 47.5 -11 81.5v342c0 30 4.83301 54.667 14.5 74s25.334 33.666 47.001 42.999s50.167 14 85.5 14c32 0 58.667 -4.16699 80 -12.5s37.333 -21 48 -38
s16 -38.833 16 -65.5v-62l-65 -8v50c0 26.667 -6 46.834 -18 60.501s-32.333 20.5 -61 20.5s-49.334 -6.83301 -62.001 -20.5s-19 -33.834 -19 -60.501v-152c4 15.333 14.667 28.666 32 39.999s42 17 74 17s56.667 -5.83301 74 -17.5s29.333 -27 36 -46s10 -39.833 10 -62.5
v-116c0 -34 -3.5 -61.333 -10.5 -82s-17.167 -36.334 -30.5 -47.001s-29 -17.667 -47 -21s-38 -5 -60 -5zM181.999 51.0029c18 0 33.168 3.00098 45.501 9.00098s21.666 17.333 27.999 34s9.5 41 9.5 73v91c0 15.333 -2 30.166 -6 44.499s-11.667 25.833 -23 34.5
s-28.333 13 -51 13c-28 0 -48.333 -8.16699 -61 -24.5s-19 -38.833 -19 -67.5v-91c0 -32 3.5 -56.333 10.5 -73s16.333 -28 28 -34s24.5 -9 38.5 -9z" />
    <glyph glyph-name="seven" unicode="7" horiz-adv-x="356" 
d="M27 0l233 567h-244l12 53h327l-251 -620h-77z" />
    <glyph glyph-name="eight" unicode="8" horiz-adv-x="370" 
d="M169 -2c-30.667 0 -55.832 4.66406 -75.499 13.9971s-34 24.833 -43 46.5s-13.5 50.834 -13.5 87.501v45c0 29.333 3.66699 52.833 11 70.5s17.166 31 29.499 40s25.833 14.167 40.5 15.5c-14 4 -26.833 10.333 -38.5 19s-21.167 21.5 -28.5 38.5s-11 39.833 -11 68.5v38
c0 33.333 4.33301 60.333 13 81s22.5 35.834 41.5 45.501s43.833 14.5 74.5 14.5h32c45.333 0 78 -10.667 98 -32s30 -56.666 30 -105.999v-40c0 -28 -3.66699 -50.667 -11 -68s-17.166 -30.5 -29.499 -39.5s-25.833 -15.5 -40.5 -19.5
c15.333 -1.33301 29.5 -6.66602 42.5 -15.999s23.333 -22.833 31 -40.5s11.5 -40.834 11.5 -69.501v-29c0 -42 -4.83301 -75 -14.5 -99s-24.834 -40.833 -45.501 -50.5s-47.667 -14.5 -81 -14.5h-23zM182.002 51.9971c18 0 33.334 2.66797 46.001 8.00098
s22.167 15.833 28.5 31.5s9.5 39.5 9.5 71.5v44c0 20 -2 36.667 -6 50s-11.833 23.5 -23.5 30.5s-28.834 10.5 -51.501 10.5c-22 0 -39 -3.5 -51 -10.5s-20.167 -17.167 -24.5 -30.5s-6.5 -30 -6.5 -50v-53c0 -28.667 3.66699 -50.334 11 -65.001s17 -24.5 29 -29.5
s25 -7.5 39 -7.5zM185.003 348.998c17.333 0 32 2.49902 44 7.49902s21 14.167 27 27.5s9 32.666 9 57.999v39c0 18.667 -2 34.834 -6 48.501s-11.667 24.167 -23 31.5s-28.333 11 -51 11c-22 0 -38.833 -3.66699 -50.5 -11s-19.5 -17.666 -23.5 -30.999s-6 -29 -6 -47v-42
c0 -24.667 3 -43.667 9 -57s15 -22.5 27 -27.5s26.667 -7.5 44 -7.5z" />
    <glyph glyph-name="nine" unicode="9" horiz-adv-x="366" 
d="M181 -5c-32 0 -58.6631 4.16504 -79.9961 12.498s-37.333 21.166 -48 38.499s-16 39 -16 65v74l65 -7v-47c0 -26.667 6.16699 -46.834 18.5 -60.501s32.5 -20.5 60.5 -20.5c29.333 0 50.166 6.83301 62.499 20.5s18.5 33.834 18.5 60.501v152
c-4 -15.333 -14.5 -28.666 -31.5 -39.999s-41.833 -17 -74.5 -17c-31.333 0 -55.833 5.83301 -73.5 17.5s-29.834 27.167 -36.501 46.5s-10 40 -10 62v116c0 34 3.66699 61.333 11 82s17.5 36.334 30.5 47.001s28.5 17.667 46.5 21s38 5 60 5c20 0 38.667 -1.66699 56 -5
s32.666 -10.5 45.999 -21.5s23.666 -26.667 30.999 -47s11 -47.5 11 -81.5v-342c0 -30 -4.66699 -54.667 -14 -74s-24.833 -33.666 -46.5 -42.999s-50.5 -14 -86.5 -14zM182.004 268.998c28.667 0 49.166 8.33301 61.499 25s18.5 39 18.5 67v91c0 32 -3.5 56.333 -10.5 73
s-16.167 28 -27.5 34s-24.333 9 -39 9c-18 0 -33.167 -3 -45.5 -9s-21.666 -17.333 -27.999 -34s-9.5 -41 -9.5 -73v-91c0 -15.333 2 -30 6 -44s11.833 -25.5 23.5 -34.5s28.5 -13.5 50.5 -13.5z" />
    <glyph glyph-name="colon" unicode=":" horiz-adv-x="186" 
d="M81 352c-14 0 -22 2.33301 -24 7s-3 12 -3 22c0 10.667 1 18.167 3 22.5s10 6.5 24 6.5s22.333 -2.16699 25 -6.5s4 -11.833 4 -22.5c0 -10 -1.33301 -17.333 -4 -22s-11 -7 -25 -7zM81 2c-14 0 -22 2.33301 -24 7s-3 12 -3 22c0 10.667 1 18.167 3 22.5s10 6.5 24 6.5
s22.333 -2.16699 25 -6.5s4 -11.833 4 -22.5c0 -10 -1.33301 -17.333 -4 -22s-11 -7 -25 -7z" />
    <glyph glyph-name="semicolon" unicode=";" horiz-adv-x="204" 
d="M44 -114c10.667 22 19 42.667 25 62s9 38.333 9 57c-9.33301 0 -15.166 2.33301 -17.499 7s-3.5 10.334 -3.5 17.001c0 8 0.333008 14.167 1 18.5s3.16699 7.5 7.5 9.5s11.166 3 20.499 3c12.667 0 20.334 -2.16699 23.001 -6.5s4 -11.833 4 -22.5
c0 -16 -1.83301 -33.333 -5.5 -52s-8.33398 -36.334 -14.001 -53.001s-11.5 -30 -17.5 -40h-32zM81 352c-14 0 -22 2.33301 -24 7s-3 12 -3 22c0 10.667 1 18.167 3 22.5s10 6.5 24 6.5s22.333 -2.16699 25 -6.5s4 -11.833 4 -22.5c0 -10 -1.33301 -17.333 -4 -22
s-11 -7 -25 -7z" />
    <glyph glyph-name="less" unicode="&#x3c;" horiz-adv-x="381" 
d="M293 118l-247 186v44l247 188v-55l-207 -155l207 -153v-55z" />
    <glyph glyph-name="equal" unicode="=" horiz-adv-x="393" 
d="M52 294v37h305v-37h-305zM52 100v37h305v-37h-305z" />
    <glyph glyph-name="greater" unicode="&#x3e;" horiz-adv-x="381" 
d="M88 118v55l208 153l-208 155v55l247 -188v-44z" />
    <glyph glyph-name="question" unicode="?" horiz-adv-x="391" 
d="M113 146l-2.99902 177h102c20 0 34 3 42 9s12.667 14.167 14 24.5s2 21.833 2 34.5v97c0 28 -6.33301 48 -19 60s-28.334 18 -47.001 18h-25c-18 0 -32 -4.16699 -42 -12.5s-17 -18.5 -21 -30.5s-6 -23.667 -6 -35v-98l-66 9v90c0 46 12 79.667 36 101s57.667 32 101 32
h25c42 0 74.167 -11 96.5 -33s33.5 -53.333 33.5 -94v-108c0 -40.667 -8 -69.5 -24 -86.5s-43 -25.833 -81 -26.5l-63 -1l-11 -127h-44zM136.001 -1c-12.667 0 -20.5 1.83301 -23.5 5.5s-4.5 11.167 -4.5 22.5c0 12 1.5 20 4.5 24s10.833 6 23.5 6s20.5 -2 23.5 -6
s4.5 -12 4.5 -24c0 -10.667 -1.5 -18 -4.5 -22s-10.833 -6 -23.5 -6z" />
    <glyph glyph-name="at" unicode="@" horiz-adv-x="621" 
d="M310 -75c-61.333 1.33301 -111.833 12.1631 -151.5 32.4961s-69.167 53 -88.5 98s-29 103.833 -29 176.5c0 60.667 5.66699 110.667 17 150s28.333 70.333 51 93s51.334 38.5 86.001 47.5s75 13.5 121 13.5c54.667 0 101.667 -8.5 141 -25.5s69.666 -44.833 90.999 -83.5
s32 -91 32 -157c0 -17.333 -0.666992 -36.666 -2 -57.999s-4.33301 -42.166 -9 -62.499s-11.667 -39 -21 -56s-22.166 -30.667 -38.499 -41s-37.166 -15.5 -62.499 -15.5c-21.333 0 -37.5 5.66699 -48.5 17s-16.5 32.333 -16.5 63c-4 -11.333 -10.333 -19.666 -19 -24.999
s-21 -8 -37 -8h-40c-22.667 0 -39.5 3.66699 -50.5 11s-18.167 17.5 -21.5 30.5s-5 27.5 -5 43.5v20c0 28 4.16699 49.5 12.5 64.5s24.833 22.5 49.5 22.5h90v51c-0.666992 15.333 -3.5 27.166 -8.5 35.499s-15.5 12.5 -31.5 12.5h-20c-24.667 0 -37 -16 -37 -48v-23h-48v26
c0 23.333 6.16699 41.166 18.5 53.499s30.166 18.5 53.499 18.5h32c24.667 0 43.5 -3 56.5 -9s22 -14.667 27 -26s7.5 -25.666 7.5 -42.999v-161c0 -26 1 -45.333 3 -58s5.5 -21.167 10.5 -25.5s12.167 -6.5 21.5 -6.5c13.333 0 24.333 4.83301 33 14.5
s15.667 23.167 21 40.5s9 37.333 11 60s3 46.667 3 72c0 32 -2.5 62.333 -7.5 91s-14.5 53.834 -28.5 75.501s-33.833 38.834 -59.5 51.501s-59.5 19 -101.5 19c-50.667 0 -91.5 -8.5 -122.5 -25.5s-53.333 -44.833 -67 -83.5s-20.5 -90.667 -20.5 -156
c0 -56.667 5.83301 -105.167 17.5 -145.5s32.667 -70.833 63 -91.5s73.166 -31 128.499 -31c14 0 29.667 1 47 3s33.833 5 49.5 9s27.167 8.33301 34.5 13l14 -27c-16 -11.333 -38 -20.333 -66 -27s-56.333 -10 -85 -10zM319 112.997c12 0 22 4.16699 30 12.5
s12 20.833 12 37.5v84h-66c-13.333 0 -22.833 -3.5 -28.5 -10.5s-8.5 -20.167 -8.5 -39.5v-31c0 -20.667 3.66699 -34.667 11 -42s18.333 -11 33 -11h17z" />
    <glyph glyph-name="A" unicode="A" horiz-adv-x="381" 
d="M16 0l130 620h89l129 -620h-70l-30 146l13 -12h-176l11 12l-28 -146h-68zM114 180l-7 8h165l-9 -8l-64 352l-2 10h-14l-2 -10z" />
    <glyph glyph-name="B" unicode="B" horiz-adv-x="387" 
d="M52 0v619.998h171c28 0 50.333 -2.66699 67 -8s28.834 -15.666 36.501 -30.999s11.5 -37.666 11.5 -66.999v-50c0 -22.667 -3.5 -42.5 -10.5 -59.5s-16 -30.333 -27 -40s-22.5 -15.167 -34.5 -16.5l1 -1c19.333 -2.66699 34.833 -8.83398 46.5 -18.501s20 -22 25 -37
s7.5 -32.167 7.5 -51.5v-114c0 -30.667 -3 -55.167 -9 -73.5s-17.333 -31.666 -34 -39.999s-41.334 -12.5 -74.001 -12.5h-177zM120 52.998h88c16 0 29 1.83301 39 5.5s17.5 11.167 22.5 22.5s7.5 28.333 7.5 51v112c0 26 -7.83301 44.333 -23.5 55s-35.167 16 -58.5 16h-75
v-262zM120 366.998l84 0.000976562c11.333 0 22 2.66699 32 8s18.333 14.5 25 27.5s10 31.5 10 55.5v33c0 20 -1.33301 35.667 -4 47s-8.5 19.666 -17.5 24.999s-23.833 8 -44.5 8h-85v-204z" />
    <glyph glyph-name="C" unicode="C" horiz-adv-x="373" 
d="M189 -7c-48 0 -84.167 9.16602 -108.5 27.499s-36.5 44.833 -36.5 79.5v412c0 39.333 11.167 68.333 33.5 87s58.5 28 108.5 28s87.167 -9.16699 111.5 -27.5s36.5 -47.833 36.5 -88.5v-132l-67 -9v125c0 24 -5.33301 42.833 -16 56.5s-31.667 20.5 -63 20.5
c-30.667 0 -51 -7 -61 -21s-15 -32.333 -15 -55v-380c0 -19.333 5.83301 -35.333 17.5 -48s31.167 -19 58.5 -19c28.667 0 49 6.33301 61 19s18 28.667 18 48v119l67 9v-143c0 -35.333 -12.5 -62.166 -37.5 -80.499s-60.833 -27.5 -107.5 -27.5z" />
    <glyph glyph-name="D" unicode="D" horiz-adv-x="387" 
d="M52 620h209c31.333 0 52.833 -7.83301 64.5 -23.5s17.5 -39.167 17.5 -70.5v-431c0 -34 -5.33301 -58.333 -16 -73s-34 -22 -70 -22h-205v620zM216 53c24 0 40 4.50098 48 13.501s12 25.833 12 50.5v387c0 21.333 -4.5 37.166 -13.5 47.499s-21.833 15.5 -38.5 15.5h-105
v-514h97z" />
    <glyph glyph-name="E" unicode="E" horiz-adv-x="364" 
d="M52 620h285v-53h-217v-194h199l-9 -53h-190v-267h217v-53h-285v620z" />
    <glyph glyph-name="F" unicode="F" horiz-adv-x="360" 
d="M52 620h285v-53h-217v-194h200l-10 -53h-190v-320h-68v620z" />
    <glyph glyph-name="G" unicode="G" horiz-adv-x="377" 
d="M193 -4c-32 0 -59.1689 3 -81.502 9s-39.166 16.167 -50.499 30.5s-17 33.833 -17 58.5v431c0 38.667 12.667 65 38 79s62 21 110 21c46.667 0 82.5 -7 107.5 -21s37.5 -40.667 37.5 -80v-102l-68 -5v94c0 24 -6.33301 39.833 -19 47.5s-31.667 11.5 -57 11.5
s-45.333 -3.66699 -60 -11s-22 -23 -22 -47v-408c0 -15.333 3.5 -26.666 10.5 -33.999s16.667 -12.333 29 -15s26.833 -4 43.5 -4c15.333 0 28.833 1.33301 40.5 4s20.667 7.66699 27 15s9.5 18.666 9.5 33.999v172h-97l6 57h157v-239c0 -24.667 -5.66699 -44.167 -17 -58.5
s-27.666 -24.5 -48.999 -30.5s-47.333 -9 -78 -9z" />
    <glyph glyph-name="H" unicode="H" 
d="M52 620h68v-247h156v247h67v-620h-67v320h-156v-320h-68v620z" />
    <glyph glyph-name="I" unicode="I" horiz-adv-x="172" 
d="M52 620h68v-620h-68v620z" />
    <glyph glyph-name="J" unicode="J" horiz-adv-x="204" 
d="M9 0l-10.002 52.999h51c12.667 0 21.667 1.66699 27 5s8.5 10 9.5 20s1.5 25.333 1.5 46v496h68v-516c0 -28 -1.66699 -49.667 -5 -65s-11.166 -25.666 -23.499 -30.999s-32.166 -8 -59.499 -8h-59z" />
    <glyph glyph-name="K" unicode="K" horiz-adv-x="373" 
d="M305 -11l-183 345l173 292l51 -31l-154 -257l174 -318zM52 620h68v-620h-68v620z" />
    <glyph glyph-name="L" unicode="L" horiz-adv-x="328" 
d="M52 620h68v-567h194v-53h-262v620z" />
    <glyph glyph-name="M" unicode="M" horiz-adv-x="554" 
d="M52 0v620h86l137 -453l1 -4h1l1 4l137 453h87v-620h-68v478l-1 2l-1 -15l-128 -397h-55l-127 394l-1 12l-1 2v-476h-68z" />
    <glyph glyph-name="N" unicode="N" horiz-adv-x="408" 
d="M52 0v620h68l166 -474l2 -5l1 -1v480h67v-620h-70l-164 448l-2 7h-1v-455h-67z" />
    <glyph glyph-name="O" unicode="O" horiz-adv-x="380" 
d="M189 -4c-48 0 -84.168 8.83301 -108.501 26.5s-36.5 42.5 -36.5 74.5v432c0 28.667 11.333 52.5 34 71.5s59.667 28.167 111 27.5c52.667 -0.666992 90.334 -10.167 113.001 -28.5s34 -41.833 34 -70.5v-432c0 -31.333 -12 -56 -36 -74s-61 -27 -111 -27zM188.999 51
c28.667 0 49.333 5.83301 62 17.5s19 26.834 19 45.501v398c0 16.667 -5.66699 31 -17 43s-33 18 -65 18c-30 0 -50.5 -5.83301 -61.5 -17.5s-16.5 -25.834 -16.5 -42.501v-400c0 -18 6.33301 -32.833 19 -44.5s32.667 -17.5 60 -17.5z" />
    <glyph glyph-name="P" unicode="P" horiz-adv-x="375" 
d="M52 620l198.999 -0.000976562c28.667 0 49.834 -3.5 63.501 -10.5s22.667 -17.667 27 -32s6.5 -32.166 6.5 -53.499v-156c0 -24 -2 -46.5 -6 -67.5s-14.333 -38 -31 -51s-44 -19.5 -82 -19.5h-109v-230h-68v620zM209.999 282.999c23.333 0 41 6.16699 53 18.5
s18 32.833 18 61.5v133c0 27.333 -4.16699 46 -12.5 56s-24.5 15 -48.5 15h-100v-284h90z" />
    <glyph glyph-name="Q" unicode="Q" horiz-adv-x="378" 
d="M190 -7c-48 0 -84.332 9.16602 -108.999 27.499s-37 44.833 -37 79.5v412c0 40 11.5 69.333 34.5 88s59.833 27.667 110.5 27c50.667 0 88 -9.16699 112 -27.5s36 -47.833 36 -88.5v-410c0 -35.333 -12.833 -62.166 -38.5 -80.499s-61.834 -27.5 -108.501 -27.5z
M189.001 48.999c29.333 0 50.167 5.83301 62.5 17.5s18.5 27.167 18.5 46.5v385c0 23.333 -5.5 41.5 -16.5 54.5s-32.5 19.5 -64.5 19.5c-30.667 0 -51.167 -6.66699 -61.5 -20s-15.5 -31 -15.5 -53v-389c0 -18.667 6.16699 -33.5 18.5 -44.5s31.833 -16.5 58.5 -16.5z
M327.002 -122.001l-116 123l44 45l120 -121z" />
    <glyph glyph-name="R" unicode="R" horiz-adv-x="393" 
d="M52 620l198.999 -0.000976562c28.667 0 49.834 -3.5 63.501 -10.5s22.667 -17.667 27 -32s6.5 -32.166 6.5 -53.499v-117c0 -24 -2 -46.5 -6 -67.5s-14.333 -38 -31 -51s-44 -19.5 -82 -19.5h-109v-269h-68v620zM310.999 -15.001l-114 288l46 4l19 -6l4 -6l108 -256z
M209.999 321.999c23.333 0 41 6.16699 53 18.5s18 32.833 18 61.5v94c0 27.333 -4.16699 46 -12.5 56s-24.5 15 -48.5 15h-100v-245h90z" />
    <glyph glyph-name="S" unicode="S" horiz-adv-x="370" 
d="M191 -5c-29.333 0.666992 -55.499 3 -78.499 7s-41.167 11.833 -54.5 23.5s-20 28.167 -20 49.5v132l67 9v-115c0 -16.667 5.83301 -29.5 17.5 -38.5s33.167 -13.5 64.5 -13.5c20.667 0 36.5 2.33301 47.5 7s18.5 11.834 22.5 21.501s6 22.167 6 37.5v84
c0 22.667 -5.5 41.167 -16.5 55.5s-27.5 24.833 -49.5 31.5l-75 21c-30 9.33301 -51.5 21.166 -64.5 35.499s-19.5 36.5 -19.5 66.5v116c0 28.667 6.5 50 19.5 64s31 23.333 54 28s49.167 7 78.5 7c28 0 52.5 -2.33301 73.5 -7s37.333 -12.667 49 -24
s17.5 -27.666 17.5 -48.999v-132l-67 -11v112c0 22 -5 37.333 -15 46s-30.333 13 -61 13c-30 0 -51.167 -5.16699 -63.5 -15.5s-18.5 -28.833 -18.5 -55.5v-77c0 -19.333 5.33301 -35.333 16 -48s25 -21.667 43 -27l80 -23c31.333 -9.33301 53.5 -21.833 66.5 -37.5
s19.5 -38.834 19.5 -69.501v-122c0 -28.667 -5.66699 -50.167 -17 -64.5s-27.333 -24 -48 -29s-45.334 -7.83301 -74.001 -8.5z" />
    <glyph glyph-name="T" unicode="T" horiz-adv-x="321" 
d="M126 567h-109v53h287v-53h-110v-567h-68v567z" />
    <glyph glyph-name="U" unicode="U" horiz-adv-x="388" 
d="M194 -5c-27.333 0 -52 3 -74 9s-39.5 15.833 -52.5 29.5s-19.5 32.167 -19.5 55.5v531h68v-509c0 -10.667 2.16699 -20.834 6.5 -30.501s12 -17.5 23 -23.5s27.167 -9 48.5 -9c22 0 38.667 3 50 9s18.833 13.833 22.5 23.5s5.5 19.834 5.5 30.501v509h67v-531
c0 -23.333 -6.16699 -41.833 -18.5 -55.5s-29.5 -23.5 -51.5 -29.5s-47 -9 -75 -9z" />
    <glyph glyph-name="V" unicode="V" horiz-adv-x="363" 
d="M146 0l-130 620h67l98 -516l1 -16h1v16l94 516h71l-131 -620h-71z" />
    <glyph glyph-name="W" unicode="W" horiz-adv-x="565" 
d="M138 0l-120 620h68l86 -484l1 -15h1v15l86 453h53l80 -453l1 -15h1l1 15l82 484h69l-118 -620h-66l-74 431l-1 13h-1l-1 -13l-82 -431h-66z" />
    <glyph glyph-name="X" unicode="X" horiz-adv-x="369" 
d="M14 0l123 325l-117 295h69l93 -245l2 -21h1l3 21l92 245h68l-115 -295l122 -325h-71l-97 262l-2 25h-1l-3 -25l-97 -262h-70z" />
    <glyph glyph-name="Y" unicode="Y" horiz-adv-x="354" 
d="M144 0v242l-135 378h62l106 -294l1 -15h1l2 15l102 294h63l-136 -377v-243h-66z" />
    <glyph glyph-name="Z" unicode="Z" horiz-adv-x="306" 
d="M9 0l191 567h-177v53h262l-192 -567h196v-53h-280z" />
    <glyph glyph-name="bracketleft" unicode="[" horiz-adv-x="232" 
d="M37 630h157v-28h-91v-631h91v-28h-157v687z" />
    <glyph glyph-name="backslash" unicode="\" horiz-adv-x="457" 
d="M378 -44l-342 674h45l340 -674h-43z" />
    <glyph glyph-name="bracketright" unicode="]" horiz-adv-x="232" 
d="M38 -29h90v632h-90v27h156v-687h-156v28z" />
    <glyph glyph-name="asciicircum" unicode="^" horiz-adv-x="323" 
d="M42 647l88 95h62l90 -95h-44l-76 70l-77 -70h-43z" />
    <glyph glyph-name="underscore" unicode="_" horiz-adv-x="625" 
d="M0 -117v54h642v-54h-642z" />
    <glyph glyph-name="grave" unicode="`" horiz-adv-x="150" 
d="M107 532l-107 96h62l88 -96h-43z" />
    <glyph glyph-name="a" unicode="a" 
d="M126 0c-24.667 0 -42.3311 3.6709 -52.998 11.0039s-17.334 20.166 -20.001 38.499s-4 44.5 -4 78.5v243c0 26 3 46.167 9 60.5s16.833 24.333 32.5 30s38.5 8.5 68.5 8.5h183v-470h-66v417h-111c-16.667 0 -28.5 -2.33301 -35.5 -7s-11.167 -11.834 -12.5 -21.501
s-2 -23.167 -2 -40.5v-227c0 -18.667 1 -32.834 3 -42.501s6.16699 -16.334 12.5 -20.001s16.166 -5.5 29.499 -5.5h87l-7 -53h-114z" />
    <glyph glyph-name="b" unicode="b" horiz-adv-x="395" 
d="M54 0l-0.00390625 629h66v-159h116c30.667 0 53.834 -2.83301 69.501 -8.5s26.334 -15.667 32.001 -30s8.5 -34.5 8.5 -60.5v-238c0 -36 -1.16699 -63.5 -3.5 -82.5s-9.16602 -32.167 -20.499 -39.5s-30.666 -11 -57.999 -11h-210zM119.996 53l115 -0.00292969
c13.333 0 23 1.83301 29 5.5s10.167 10.334 12.5 20.001s3.5 23.834 3.5 42.501v227c0 17.333 -0.666992 30.833 -2 40.5s-5.5 16.834 -12.5 21.501s-18.5 7 -34.5 7h-111v-364z" />
    <glyph glyph-name="c" unicode="c" horiz-adv-x="379" 
d="M186 -4c-39.333 0 -68.999 5.33105 -88.999 15.998s-33.667 24.5 -41 41.5s-11 34.5 -11 52.5v259c0 18.667 3.66699 36.334 11 53.001s21.5 30.334 42.5 41.001s52.167 16 93.5 16c38.667 0 68.5 -5.16699 89.5 -15.5s35.667 -23.833 44 -40.5
s12.5 -34.334 12.5 -53.001v-70l-66 -8v66c0 22 -7 39.167 -21 51.5s-33.667 18.5 -59 18.5s-45.166 -6 -59.499 -18s-21.5 -29.333 -21.5 -52v-236c0 -22 7 -38.833 21 -50.5s32 -17.5 54 -17.5c28 0 49.333 6.16699 64 18.5s22 30.833 22 55.5v58l66 6v-73
c0 -21.333 -4.33301 -41.166 -13 -59.499s-23.834 -32.833 -45.501 -43.5s-52.834 -16 -93.501 -16z" />
    <glyph glyph-name="d" unicode="d" 
d="M131 0c-22.667 0 -39.833 2.33203 -51.5 6.99902s-19.667 14.834 -24 30.501s-6.5 39.5 -6.5 71.5v266c0 24.667 3.16699 44 9.5 58s17 23.667 32 29s36.167 8 63.5 8h122v159h66v-629h-211zM276.001 52.999v364.001h-109c-21.333 0 -35.333 -3.33301 -42 -10
s-10 -20.334 -10 -41.001v-258c0 -24 3.33301 -39.167 10 -45.5s18.667 -9.5 36 -9.5h115z" />
    <glyph glyph-name="e" unicode="e" horiz-adv-x="383" 
d="M186 -4c-39.333 0 -68.999 5.33105 -88.999 15.998s-33.667 24.5 -41 41.5s-11 34.5 -11 52.5v259c0 18.667 3.66699 36.334 11 53.001s21.5 30.334 42.5 41.001s52.167 16 93.5 16c38.667 0 68.5 -5.16699 89.5 -15.5s35.667 -23.833 44 -40.5
s12.5 -34.334 12.5 -53.001v-108l-66 -4v100c0 22 -7 39.167 -21 51.5s-33.667 18.5 -59 18.5s-45.166 -6 -59.499 -18s-21.5 -29.333 -21.5 -52v-236c0 -22 7 -38.833 21 -50.5s32 -17.5 54 -17.5c28 0 49.333 6.16699 64 18.5s22 30.833 22 55.5v45l66 6v-60
c0 -21.333 -4.33301 -41.166 -13 -59.499s-23.834 -32.833 -45.501 -43.5s-52.834 -16 -93.501 -16zM55.001 225.998v37h283v-37h-283z" />
    <glyph glyph-name="f" unicode="f" horiz-adv-x="228" 
d="M66 433h-43v37h43v76c0 28.667 6.5 48.5 19.5 59.5s36.833 16.5 71.5 16.5h90v-37h-60c-22 0 -36.5 -3.5 -43.5 -10.5s-10.5 -20.5 -10.5 -40.5v-64h86l-5 -37h-81v-433h-67v433z" />
    <glyph glyph-name="g" unicode="g" 
d="M102 -174l-8.99805 53.0039h138c18.667 0 30.834 4.5 36.501 13.5s8.5 23.833 8.5 44.5v480h-111c-16.667 0 -28.5 -2.33301 -35.5 -7s-11.167 -11.834 -12.5 -21.501s-2 -23.167 -2 -40.5v-227c0 -18.667 1 -32.834 3 -42.501s6.16699 -16.334 12.5 -20.001
s16.166 -5.5 29.499 -5.5h87l-7 -53h-114c-24.667 0 -42.334 3.66699 -53.001 11s-17.334 20.166 -20.001 38.499s-4 44.5 -4 78.5v243c0 26 3 46.167 9 60.5s16.833 24.333 32.5 30s38.5 8.5 68.5 8.5h183v-549c0 -32.667 -6.33301 -56.667 -19 -72s-35 -23 -67 -23h-154z
" />
    <glyph glyph-name="h" unicode="h" horiz-adv-x="395" 
d="M54 629l66 0.00292969v-207c10.667 16.667 24.5 29.5 41.5 38.5s39.167 13.5 66.5 13.5c33.333 0 58.5 -5.33301 75.5 -16s28.333 -23.834 34 -39.501s8.5 -30.834 8.5 -45.501v-373h-66v351c0 25.333 -7 43.666 -21 54.999s-33.667 17 -59 17
c-22 0 -39.167 -4.33301 -51.5 -13s-21.833 -20 -28.5 -34v-376h-66v629z" />
    <glyph glyph-name="i" unicode="i" horiz-adv-x="173" 
d="M54 0v470h66v-470h-66zM86 530c-16 0 -26.167 2.16699 -30.5 6.5s-6.5 12.833 -6.5 25.5s2.16699 21.334 6.5 26.001s14.5 7 30.5 7s26.333 -2.33301 31 -7s7 -13.334 7 -26.001s-2.33301 -21.167 -7 -25.5s-15 -6.5 -31 -6.5z" />
    <glyph glyph-name="j" unicode="j" horiz-adv-x="201" 
d="M-34 -174l-9 53h80c18 0 29.833 4.5 35.5 13.5s8.5 23.833 8.5 44.5v533h66v-549c0 -32.667 -6.16699 -56.667 -18.5 -72s-34.833 -23 -67.5 -23h-95zM114 530c-16 0 -26.333 2.16699 -31 6.5s-7 12.833 -7 25.5s2.33301 21.334 7 26.001s15 7 31 7
s26.167 -2.33301 30.5 -7s6.5 -13.334 6.5 -26.001s-2.16699 -21.167 -6.5 -25.5s-14.5 -6.5 -30.5 -6.5z" />
    <glyph glyph-name="k" unicode="k" horiz-adv-x="358" 
d="M54 0v626h66v-626h-66zM287 0l-141 216h-54v50h54l126 216l62 -24l-129 -211l158 -247h-76z" />
    <glyph glyph-name="l" unicode="l" horiz-adv-x="174" 
d="M54 626h66v-626h-66v626z" />
    <glyph glyph-name="m" unicode="m" horiz-adv-x="621" 
d="M54 0l-0.00195312 471h53l7 -49c10.667 18 25.334 31.667 44.001 41s42 14 70 14c27.333 0 49 -3.66699 65 -11s28 -17 36 -29s13 -24.667 15 -38l-15 -12c4.66699 24 13.5 42.5 26.5 55.5s28.333 22 46 27s35.167 7.5 52.5 7.5c34 0 59.333 -5.33301 76 -16
s27.834 -24 33.501 -40s8.5 -31.333 8.5 -46v-375h-66v352c0 25.333 -7.33301 43.666 -22 54.999s-34 17 -58 17c-22 0 -40.833 -5.66699 -56.5 -17s-23.5 -29.666 -23.5 -54.999v-352h-66v354c0 24.667 -7.16699 42.5 -21.5 53.5s-33.833 16.5 -58.5 16.5
c-22 0 -39.167 -4.5 -51.5 -13.5s-21.833 -20.5 -28.5 -34.5v-376h-66z" />
    <glyph glyph-name="n" unicode="n" horiz-adv-x="395" 
d="M54 471h53.001l7 -49c10 16.667 24.5 30.167 43.5 40.5s42.5 15.5 70.5 15.5c38.667 0 68 -8.66699 88 -26s30 -43 30 -77v-375h-66v353c0 24.667 -7.16699 42.5 -21.5 53.5s-33.833 16.5 -58.5 16.5c-21.333 0 -38.333 -4.33301 -51 -13s-22.334 -20 -29.001 -34v-376
h-66v471z" />
    <glyph glyph-name="o" unicode="o" horiz-adv-x="383" 
d="M186 -4c-39.333 0 -68.998 5.33105 -88.998 15.998s-33.667 24.5 -41 41.5s-11 34.5 -11 52.5v259c0 18.667 3.66699 36.334 11 53.001s21.5 30.334 42.5 41.001s52.167 16 93.5 16c38.667 0 68.5 -5.16699 89.5 -15.5s35.667 -23.833 44 -40.5
s12.5 -34.334 12.5 -53.001v-251c0 -21.333 -4.33301 -41.166 -13 -59.499s-23.834 -32.833 -45.501 -43.5s-52.834 -16 -93.501 -16zM186.002 49.998c28 0 49.332 6.16699 63.999 18.5s22 30.833 22 55.5v230c0 22 -7 39.167 -21 51.5s-33.667 18.5 -59 18.5
s-45.166 -6 -59.499 -18s-21.5 -29.333 -21.5 -52v-236c0 -22 7 -38.833 21 -50.5s32 -17.5 54 -17.5z" />
    <glyph glyph-name="p" unicode="p" horiz-adv-x="395" 
d="M54 470h210.004c27.333 0 46.666 -3.5 57.999 -10.5s18.166 -20.167 20.499 -39.5s3.5 -47 3.5 -83v-238c0 -26 -2.83301 -46.167 -8.5 -60.5s-16.334 -24.333 -32.001 -30s-38.834 -8.5 -69.501 -8.5h-116v-159h-66v629zM120.004 417v-364.002h111
c16 0 27.5 2.33301 34.5 7s11.167 12 12.5 22s2 23.333 2 40v227c0 18.667 -1.16699 32.834 -3.5 42.501s-6.5 16.334 -12.5 20.001s-15.667 5.5 -29 5.5h-115z" />
    <glyph glyph-name="q" unicode="q" horiz-adv-x="395" 
d="M341 470v-629h-66v159h-116c-30 -0 -52.833 2.83301 -68.5 8.5s-26.5 15.667 -32.5 30s-9 34.5 -9 60.5v238c0 36 1.33301 63.667 4 83s9.66699 32.5 21 39.5s30.333 10.5 57 10.5h210zM275 417l-113.999 0.00195312c-12.667 0 -22.334 -1.83301 -29.001 -5.5
s-11.167 -10.334 -13.5 -20.001s-3.5 -23.834 -3.5 -42.501v-227c0 -16.667 0.666992 -30 2 -40s5.5 -17.333 12.5 -22s18.833 -7 35.5 -7h110v364z" />
    <glyph glyph-name="r" unicode="r" horiz-adv-x="282" 
d="M54 0l0.000976562 470h53l7 -49c10.667 17.333 24.667 30.833 42 40.5s35.666 14.5 54.999 14.5c16 0 28.5 -0.833008 37.5 -2.5s16.833 -4.16699 23.5 -7.5l-3 -59c-8 4 -17 6.83301 -27 8.5s-22 2.5 -36 2.5c-20.667 0 -38.5 -5.5 -53.5 -16.5
s-25.833 -25.833 -32.5 -44.5v-357h-66z" />
    <glyph glyph-name="s" unicode="s" horiz-adv-x="356" 
d="M174 -6c-48 0 -82.1709 9.83301 -102.504 29.5s-30.5 47.167 -30.5 82.5v67l59 8v-72c0 -11.333 2 -22.333 6 -33s11.333 -19.334 22 -26.001s26.334 -10 47.001 -10c24.667 0 44 4.5 58 13.5s21 27.5 21 55.5c0 27.333 -3.5 47.5 -10.5 60.5s-21.167 24.5 -42.5 34.5
c-5.33301 2.66699 -12.333 5.83398 -21 9.50098l-28 11.5c-10 4 -19.167 8 -27.5 12l-18.5 9c-17.333 10 -30.666 19.667 -39.999 29s-15.833 20 -19.5 32s-5.5 26.333 -5.5 43v14c0 38 11.167 66 33.5 84s57.5 27 105.5 27c48.667 0 83.334 -8.33301 104.001 -25
s31 -43.667 31 -81v-66l-61 -8v68c0 26 -6.5 43.5 -19.5 52.5s-31.833 13.5 -56.5 13.5c-23.333 0 -40.5 -3.5 -51.5 -10.5s-18 -15.833 -21 -26.5s-4.5 -21 -4.5 -31c0 -23.333 2.5 -39.833 7.5 -49.5s15.167 -18.834 30.5 -27.501c7.33301 -4 16.833 -8.5 28.5 -13.5
l36.5 -15.5c12.667 -5.33301 24.667 -11 36 -17c28.667 -13.333 48.334 -28.166 59.001 -44.499s16 -39.833 16 -70.5v-11c0 -39.333 -10 -68.833 -30 -88.5s-57 -29.5 -111 -29.5z" />
    <glyph glyph-name="t" unicode="t" horiz-adv-x="231" 
d="M168 0c-25.333 0 -46.168 2.83301 -62.501 8.5s-28.333 16 -36 31s-11.5 35.833 -11.5 62.5v318h-33v50h40l11 88h48v-88h85l-15 -50h-70v-297c0 -27.333 5.33301 -45.833 16 -55.5s26.334 -14.5 47.001 -14.5h32v-53h-51z" />
    <glyph glyph-name="u" unicode="u" 
d="M167 0c-34 0 -59.332 4.99902 -75.999 14.999s-27.834 22.333 -33.501 37s-8.5 29.334 -8.5 44.001v374h66v-346c0 -25.333 7 -43.5 21 -54.5s33.667 -16.5 59 -16.5h81v417h66v-470h-175z" />
    <glyph glyph-name="v" unicode="v" horiz-adv-x="322" 
d="M138 0l-130 470h62l93 -353l3 20l83 333h63l-130 -470h-44z" />
    <glyph glyph-name="w" unicode="w" horiz-adv-x="559" 
d="M6 470h67l94 -341l84 341h53l85 -335l94 335h66l-132 -470h-44l-95 367l-96 -367h-44z" />
    <glyph glyph-name="x" unicode="x" horiz-adv-x="316" 
d="M248 0l-94 241l92 229h58l-91 -229l93 -241h-58zM10 0l94 241l-92 229h58l93 -229l-95 -241h-58zM126 211v54h66v-54h-66z" />
    <glyph glyph-name="y" unicode="y" horiz-adv-x="338" 
d="M-10 -170l8 42h40c22.667 0 41 5.5 55 16.5s24.667 32.5 32 64.5l14 54l-131 463h64l95 -362l1 -15h-2l1 15l95 362h66l-151 -534c-10.667 -38 -24.667 -65.167 -42 -81.5s-44.333 -24.5 -81 -24.5h-64z" />
    <glyph glyph-name="z" unicode="z" horiz-adv-x="301" 
d="M17 9l185 408h-181l13 53h240v-34l-173 -383h183l-22 -53h-245v9z" />
    <glyph glyph-name="braceleft" unicode="{" horiz-adv-x="319" 
d="M268 -135c-45.333 0 -81.6631 4.66992 -108.996 14.0029s-48 21 -62 35s-23.333 28.167 -28 42.5s-7 26.5 -7 36.5c0 24.667 2.66699 47.667 8 69l15.5 61.5c5 19.667 7.5 39.167 7.5 58.5c0 25.333 -5.16699 44.833 -15.5 58.5s-25.166 20.5 -44.499 20.5v8
c19.333 0 34.166 7 44.499 21s15.5 33.333 15.5 58c0 21.333 -2.5 41.5 -7.5 60.5l-15.5 59c-5.33301 20.333 -8 43.5 -8 69.5c0 10 2.33301 22.167 7 36.5s14 28.5 28 42.5s34.667 25.667 62 35s63.666 14 108.999 14v-42c-28.667 0 -51.834 -3.33301 -69.501 -10
s-31.334 -15 -41.001 -25s-16.334 -20.5 -20.001 -31.5s-5.5 -21.5 -5.5 -31.5c0 -16.667 2.16699 -33.334 6.5 -50.001s8.5 -34 12.5 -52s6 -38 6 -60c0 -26.667 -6 -48.334 -18 -65.001s-32.333 -27.667 -61 -33c28.667 -5.33301 49 -16.333 61 -33s18 -38.334 18 -65.001
c0 -20.667 -2 -39.667 -6 -57s-8.16699 -34.5 -12.5 -51.5s-6.5 -34.833 -6.5 -53.5c0 -10 1.83301 -20.5 5.5 -31.5s10.167 -21.5 19.5 -31.5s23 -18.333 41 -25s41.333 -10 70 -10v-42z" />
    <glyph glyph-name="bar" unicode="|" horiz-adv-x="222" 
d="M84 649h54v-722h-54v722z" />
    <glyph glyph-name="braceright" unicode="}" horiz-adv-x="319" 
d="M52 -135l-0.00292969 41.9971c28.667 0 51.834 3.33301 69.501 10s31.334 15 41.001 25s16.334 20.5 20.001 31.5s5.5 21.5 5.5 31.5c0 18.667 -2.16699 36.5 -6.5 53.5l-13 51.5c-4.33301 17.333 -6.5 36.333 -6.5 57c0 26.667 6.16699 48.334 18.5 65.001
s32.833 27.667 61.5 33c-28.667 5.33301 -49.167 16.333 -61.5 33s-18.5 38.334 -18.5 65.001c0 22 2.16699 42 6.5 60l13 52c4.33301 16.667 6.5 33.334 6.5 50.001c0 10 -2 20.5 -6 31.5s-10.667 21.5 -20 31.5s-23 18.333 -41 25s-41 10 -69 10v42
c45.333 0 81.666 -4.66699 108.999 -14s47.833 -21 61.5 -35s22.834 -28.167 27.501 -42.5s7 -26.5 7 -36.5c0 -26 -2.5 -49.167 -7.5 -69.5s-10.167 -40 -15.5 -59s-8 -39.167 -8 -60.5c0 -24.667 5.16699 -44 15.5 -58s25.166 -21 44.499 -21v-8
c-19.333 0 -34.166 -6.83301 -44.499 -20.5s-15.5 -33.167 -15.5 -58.5c0 -19.333 2.66699 -38.833 8 -58.5s10.5 -40.167 15.5 -61.5s7.5 -44.333 7.5 -69c0 -10 -2.33301 -22.167 -7 -36.5s-13.834 -28.5 -27.501 -42.5s-34.167 -25.667 -61.5 -35
s-63.666 -14 -108.999 -14z" />
    <glyph glyph-name="asciitilde" unicode="~" horiz-adv-x="423" 
d="M48 617c0 30 8.33301 52.168 25 66.501s38 21.5 64 21.5c21.333 0 39.666 -3.5 54.999 -10.5s29.833 -14 43.5 -21s28.167 -10.5 43.5 -10.5c18.667 0 32.334 4.5 41.001 13.5s13 18.5 13 28.5h42c0 -31.333 -9 -53.333 -27 -66s-38.333 -19 -61 -19
c-21.333 0 -39.333 3.66699 -54 11s-28.5 14.666 -41.5 21.999s-27.833 11 -44.5 11c-15.333 0 -28 -4.33301 -38 -13s-15 -20 -15 -34h-46z" />
    <glyph glyph-name="uni00A0" unicode="&#xa0;" horiz-adv-x="163" 
 />
    <glyph glyph-name="exclamdown" unicode="&#xa1;" horiz-adv-x="233" 
d="M118 475c14 0 22.333 -2.16699 25 -6.5s4 -11.5 4 -21.5c0 -10.667 -1.16699 -18.334 -3.5 -23.001s-10.833 -7 -25.5 -7c-13.333 0 -21.166 2.33301 -23.499 7s-3.5 12.334 -3.5 23.001c0 10 1.16699 17.167 3.5 21.5s10.166 6.5 23.499 6.5zM104 290h29l20 -432h-68z
" />
    <glyph glyph-name="cent" unicode="&#xa2;" horiz-adv-x="352" 
d="M171 91c-39.333 0 -69.001 5.33398 -89.001 16.001s-33.667 24.5 -41 41.5s-11 34.5 -11 52.5v259c0 18 3.66699 35.5 11 52.5s21.5 30.833 42.5 41.5s52.167 16 93.5 16c38.667 0 68.334 -5.33301 89.001 -16s35.167 -24.167 43.5 -40.5s12.5 -34.166 12.5 -53.499v-71
l-66 -6v65c0 22.667 -7 40 -21 52s-33.333 18 -58 18c-25.333 0 -45.166 -6 -59.499 -18s-21.5 -29.333 -21.5 -52v-234c0 -22.667 7 -39.834 21 -51.501s31.667 -17.5 53 -17.5c28.667 0 50.167 6.16699 64.5 18.5s21.5 31.166 21.5 56.499v57l66 6v-72
c0 -22 -4.16699 -42.167 -12.5 -60.5s-23.333 -32.833 -45 -43.5s-52.834 -16 -93.501 -16zM138.999 -84.999l48 767h18l-49 -767h-17z" />
    <glyph glyph-name="sterling" unicode="&#xa3;" horiz-adv-x="443" 
d="M307 -2c-14.667 0 -34.001 1.50195 -58.001 4.50195l-74 9c-25.333 3 -47.333 4.5 -66 4.5c-14 0 -26 -1.16699 -36 -3.5s-18 -5.5 -24 -9.5v25c27.333 29.333 46.666 61.333 57.999 96s17 77.667 17 129c0 34.667 -3.5 66.667 -10.5 96s-14 56.666 -21 81.999
s-10.5 49 -10.5 71c0 44.667 12.667 77 38 97s59.666 30 102.999 30c44.667 0 79.334 -10.333 104.001 -31s37 -55.667 37 -105v-43h-68v37c0 39.333 -7.33301 66 -22 80s-32.667 21 -54 21s-38.666 -6.66699 -51.999 -20s-20 -32.666 -20 -57.999c0 -22 3.5 -46 10.5 -72
s13.833 -54.333 20.5 -85s10 -65 10 -103c0 -53.333 -6 -95.333 -18 -126s-27.667 -53 -47 -67h11h13c12 0 24.833 -1.16699 38.5 -3.5s27.334 -4.5 41.001 -6.5s25.834 -3 36.501 -3c17.333 0 31.666 5.16699 42.999 15.5s17 29.833 17 58.5v54l71 12v-62
c0 -23.333 -2 -44.333 -6 -63s-12.333 -33.334 -25 -44.001s-31.667 -16.334 -57 -17.001zM48.999 267.002l7 31h228l-7 -31h-228z" />
    <glyph glyph-name="currency" unicode="&#xa4;" horiz-adv-x="376" 
d="M190 228c-24.667 0 -47 5.83301 -67 17.5s-35.833 27.667 -47.5 48s-17.5 42.5 -17.5 66.5c0 24.667 5.83301 47 17.5 67s27.5 35.833 47.5 47.5s42.333 17.5 67 17.5c24 0 46 -5.83301 66 -17.5s36 -27.5 48 -47.5s18 -42.333 18 -67c0 -24 -6 -46.167 -18 -66.5
s-28 -36.333 -48 -48s-42 -17.5 -66 -17.5zM189 275c22.667 0.666992 42.332 9.33203 58.999 25.999s25 36.334 25 59.001c0 23.333 -8.16699 43.166 -24.5 59.499s-36.166 24.5 -59.499 24.5s-43.333 -8.16699 -60 -24.5s-25 -36.166 -25 -59.499s8.33301 -43.333 25 -60
s36.667 -25 60 -25zM60.998 203.998l-26 26l62 64l29 -23zM315.998 206.998l-65 66l27 24l65 -64zM277.998 423.998l-25 27l66 62l27 -26zM100.998 421.998l-69 66l27 29l66 -67z" />
    <glyph glyph-name="yen" unicode="&#xa5;" horiz-adv-x="372" 
d="M152 0v242l-135 378h62l106 -294l2 -15h1l1 15l103 294h62l-135 -377v-243h-67zM31 145l7 37h298l-7 -37h-298zM31 269l7 38h298l-7 -38h-298z" />
    <glyph glyph-name="brokenbar" unicode="&#xa6;" horiz-adv-x="222" 
d="M84 -73v319h54v-319h-54zM84 349v300h54v-300h-54z" />
    <glyph glyph-name="section" unicode="&#xa7;" horiz-adv-x="417" 
d="M202 -263c-35.333 0.666992 -64.502 3.50195 -87.502 8.50195s-39.833 13.5 -50.5 25.5s-16 28 -16 48v124l66 7v-106c0 -17.333 6.16699 -30.333 18.5 -39s33.833 -13 64.5 -13c21.333 0 37.5 2.33301 48.5 7s18.333 12 22 22s5.5 23.333 5.5 40v74
c0 27.333 -6 47.333 -18 60s-28 21.667 -48 27l-75 22c-30.667 9.33301 -54.334 21.666 -71.001 36.999s-25 40.333 -25 75v75c0 20 2.66699 37.167 8 51.5s15.833 25.5 31.5 33.5s39.5 12.333 71.5 13c-23.333 9.33301 -40.833 20.833 -52.5 34.5
s-17.5 32.834 -17.5 57.501v100c0 26.667 4.83301 47.334 14.5 62.001s25.334 24.834 47.001 30.501s50.834 8.5 87.501 8.5s65.334 -2.66699 86.001 -8s35.167 -14.333 43.5 -27s12.5 -29.667 12.5 -51v-117l-67 -11v105c0 20 -5 34.833 -15 44.5s-30 14.5 -60 14.5
c-31.333 0 -52.833 -5.16699 -64.5 -15.5s-17.5 -28.833 -17.5 -55.5v-84c0 -22 5.66699 -38 17 -48s25.333 -17 42 -21l86 -21c28.667 -6.66699 51.167 -17.834 67.5 -33.501s24.5 -37.834 24.5 -66.501v-86c0 -26 -4 -47 -12 -63s-18.833 -27.667 -32.5 -35
s-28.5 -11.666 -44.5 -12.999c14 -6 24.333 -13.167 31 -21.5s11 -18 13 -29s3 -23.5 3 -37.5v-103c0 -26.667 -4.83301 -47.334 -14.5 -62.001s-24.5 -24.834 -44.5 -30.501s-46 -8.83398 -78 -9.50098zM263.998 56.002c14.667 1.33301 26.998 9 36.998 23s15 32 15 54v65
c0 21.333 -7 37.333 -21 48s-29 18.334 -45 23.001l-25.5 7c-5 1.33301 -9.16699 2.5 -12.5 3.5s-6.83301 1.83301 -10.5 2.5s-10.167 2 -19.5 4c-24.667 0 -42.667 -3 -54 -9s-18.166 -14.333 -20.499 -25s-3.5 -22.667 -3.5 -36v-54c0 -16 3.33301 -28.667 10 -38
s15 -16.5 25 -21.5s19.667 -9.16699 29 -12.5c22 -6 38.833 -10.833 50.5 -14.5s20.834 -6.83398 27.501 -9.50098s12.667 -6 18 -10z" />
    <glyph glyph-name="dieresis" unicode="&#xa8;" horiz-adv-x="202" 
d="M153 528c-13.333 0 -21 2.33301 -23 7s-3 11.667 -3 21c0 10.667 1 18.167 3 22.5s9.66699 6.5 23 6.5c14.667 0 23.167 -2.16699 25.5 -6.5s3.5 -11.833 3.5 -22.5c0 -9.33301 -1.16699 -16.333 -3.5 -21s-10.833 -7 -25.5 -7zM47 528
c-13.333 0 -21.166 2.33301 -23.499 7s-3.5 11.667 -3.5 21c0 10.667 1.16699 18.167 3.5 22.5s10.166 6.5 23.499 6.5c14.667 0 23.167 -2.16699 25.5 -6.5s3.5 -11.833 3.5 -22.5c0 -9.33301 -1.33301 -16.333 -4 -21s-11 -7 -25 -7z" />
    <glyph glyph-name="copyright" unicode="&#xa9;" horiz-adv-x="767" 
d="M386 -3c-48.667 0 -93.334 8.16699 -134.001 24.5s-76.167 38.833 -106.5 67.5s-53.833 61.667 -70.5 99s-25 77 -25 119c0 44.667 8.33301 86.334 25 125.001s40.167 72.667 70.5 102s65.833 52.166 106.5 68.499s85.334 24.5 134.001 24.5
c44.667 0 87 -8.16699 127 -24.5s75.333 -39.166 106 -68.499s54.667 -63.333 72 -102s26 -80.334 26 -125.001c0 -42 -8.66699 -81.667 -26 -119s-41.333 -70.333 -72 -99s-66 -51.167 -106 -67.5s-82.333 -24.5 -127 -24.5zM386 32c38.667 0 75.5 7.16699 110.5 21.5
s66.167 34.166 93.5 59.499s48.833 54.5 64.5 87.5s23.5 68.167 23.5 105.5c0 39.333 -7.83301 76.166 -23.5 110.499s-37.167 64.666 -64.5 90.999s-58.5 47 -93.5 62s-71.833 22.5 -110.5 22.5c-40.667 0 -79 -7.5 -115 -22.5s-67.667 -35.667 -95 -62
s-48.666 -56.666 -63.999 -90.999s-23 -71.166 -23 -110.499c0 -37.333 7.66699 -72.5 23 -105.5s36.666 -62.167 63.999 -87.5s59 -45.166 95 -59.499s74.333 -21.5 115 -21.5zM379 121c-31.333 0 -55.001 4.16895 -71.001 12.502s-26.833 19.166 -32.5 32.499
s-8.5 27 -8.5 41v202c0 14.667 3 28.667 9 42s17.333 24.166 34 32.499s41.334 12.5 74.001 12.5c30.667 0 54.167 -4.16699 70.5 -12.5s27.833 -19 34.5 -32s10 -26.833 10 -41.5v-55l-53 -6v51c0 17.333 -5.5 30.833 -16.5 40.5s-26.167 14.5 -45.5 14.5
c-20 0 -35.667 -4.66699 -47 -14s-17 -23 -17 -41v-183c0 -17.333 5.5 -30.5 16.5 -39.5s25.167 -13.5 42.5 -13.5c22 0 38.667 4.66699 50 14s17 23.666 17 42.999v45l53 6v-58c0 -16.667 -3.33301 -32.167 -10 -46.5s-18.667 -25.666 -36 -33.999s-42 -12.5 -74 -12.5z
" />
    <glyph glyph-name="ordfeminine" unicode="&#xaa;" horiz-adv-x="285" 
d="M97 350c-18.667 0 -32 2.49805 -40 7.49805s-12.833 13.5 -14.5 25.5s-2.5 28.667 -2.5 50v158c0 16.667 1.83301 29.667 5.5 39s11.334 15.833 23.001 19.5s28.167 5.5 49.5 5.5h127v-305h-52v268h-68c-16 0 -25.5 -3.16699 -28.5 -9.5s-4.5 -17.166 -4.5 -32.499v-147
c0 -17.333 1.66699 -28.666 5 -33.999s11.666 -8 24.999 -8h54l-4 -37h-75z" />
    <glyph glyph-name="guillemotleft" unicode="&#xab;" horiz-adv-x="528" 
d="M403 50l-129 185l133 193h57l-133 -193l128 -185h-56zM193 50l-129 185l134 193h56l-133 -193l128 -185h-56z" />
    <glyph glyph-name="logicalnot" unicode="&#xac;" horiz-adv-x="617" 
d="M508 63v223h-466v47h532v-270h-66z" />
    <glyph glyph-name="uni00AD" unicode="&#xad;" horiz-adv-x="177" 
 />
    <glyph glyph-name="registered" unicode="&#xae;" horiz-adv-x="600" 
d="M268 286c-38.667 0 -73.667 9.16699 -105 27.5s-56 43 -74 74s-27 65.833 -27 104.5c0 37.333 9 71.166 27 101.499s42.667 54.333 74 72s66.333 26.5 105 26.5c37.333 0 71.333 -8.83301 102 -26.5s55.167 -41.667 73.5 -72s27.5 -64.166 27.5 -101.499
c0 -38.667 -9.16699 -73.5 -27.5 -104.5s-42.833 -55.667 -73.5 -74s-64.667 -27.5 -102 -27.5zM268 316c32 0.666992 60.832 8.83398 86.499 24.501s46.167 36.667 61.5 63s23 55.5 23 87.5c0 31.333 -7.66699 60 -23 86s-35.833 46.667 -61.5 62s-54.5 23 -86.5 23
c-32.667 0 -62.167 -7.66699 -88.5 -23s-47.166 -36 -62.499 -62s-23 -54.667 -23 -86c0 -32 7.66699 -61.333 23 -88s36 -47.834 62 -63.501s55.667 -23.5 89 -23.5zM314.999 352l-45 114l-35 2v-110h-31v258h86c19.333 0 31.333 -3.33301 36 -10s7 -16.667 7 -30v-49
c0 -16 -2.16699 -28.833 -6.5 -38.5s-13.833 -15.167 -28.5 -16.5l46 -109zM234.999 496l38 0.000976562c10 0 17.5 1.83301 22.5 5.5s7.16699 11.5 6.5 23.5v36c0 11.333 -1.66699 19.166 -5 23.499s-10 6.5 -20 6.5h-42v-95z" />
    <glyph glyph-name="macron" unicode="&#xaf;" horiz-adv-x="228" 
d="M0 537v42h228v-42h-228z" />
    <glyph glyph-name="degree" unicode="&#xb0;" horiz-adv-x="298" 
d="M149 544c-19.333 0 -36.833 4.16699 -52.5 12.5s-28.167 19.833 -37.5 34.5s-14 30.667 -14 48c0 18.667 4.66699 35.5 14 50.5s21.833 27 37.5 36s33.167 13.5 52.5 13.5s36.833 -4.5 52.5 -13.5s28.167 -21 37.5 -36s14 -31.833 14 -50.5
c0 -17.333 -4.66699 -33.333 -14 -48s-21.833 -26.167 -37.5 -34.5s-33.167 -12.5 -52.5 -12.5zM149 578c17.333 0 32.5 5.83301 45.5 17.5s19.5 26.167 19.5 43.5s-6.5 32.333 -19.5 45s-28.167 19 -45.5 19c-18.667 0 -34.167 -6.33301 -46.5 -19s-18.5 -27.667 -18.5 -45
s6.16699 -31.833 18.5 -43.5s27.833 -17.5 46.5 -17.5z" />
    <glyph glyph-name="plusminus" unicode="&#xb1;" horiz-adv-x="420" 
d="M190 463h36v-316h-36v316zM68 -12v39h285v-39h-285zM52 294v37h317v-37h-317z" />
    <glyph glyph-name="uni00B2" unicode="&#xb2;" horiz-adv-x="276" 
d="M28 228c0 32.667 1.33301 59.335 4 80.002s7 37.667 13 51s13.833 24.5 23.5 33.5s21.5 18.167 35.5 27.5c4.66699 2 9 4.5 13 7.5l10 7.5c17.333 10 30.166 19 38.499 27s14 16.667 17 26s4.5 19.333 4.5 30v25c0 20 -3.83301 33.833 -11.5 41.5
s-18.167 11.5 -31.5 11.5h-13c-12 0 -21 -2.5 -27 -7.5s-10.167 -11.333 -12.5 -19s-3.5 -15.5 -3.5 -23.5v-64l-58 10v58c0 31.333 7 52.833 21 64.5s36 17.5 66 17.5h47c27.333 0 48 -5.83301 62 -17.5s21 -31.834 21 -60.501v-37
c0 -24.667 -6.16699 -45.834 -18.5 -63.501s-32.166 -34.5 -59.499 -50.5c-4 -2.66699 -8.16699 -5.66699 -12.5 -9s-8.83301 -7 -13.5 -11c-18 -14 -31 -27.5 -39 -40.5s-13.167 -25.5 -15.5 -37.5s-3.5 -22.333 -3.5 -31h160l-9 -46h-208z" />
    <glyph glyph-name="uni00B3" unicode="&#xb3;" horiz-adv-x="281" 
d="M122 228c-30.667 0 -53.667 6.66992 -69 20.0029s-23 35 -23 65v57l58 -7v-39c0 -20 3 -34.667 9 -44s17 -14 33 -14h15c16.667 0 28.334 5 35.001 15s10 24.333 10 43v33c0 24.667 -4.66699 40.5 -14 47.5s-21.333 10.5 -36 10.5h-48v37h41c16 0 29.5 4.5 40.5 13.5
s16.5 26.167 16.5 51.5v30c0 20 -3.33301 33.167 -10 39.5s-18 9.5 -34 9.5h-17c-17.333 0 -28.5 -4.66699 -33.5 -14s-7.5 -21 -7.5 -35v-54l-58 11v50c0 25.333 6.33301 44.5 19 57.5s31.334 19.5 56.001 19.5h63c24.667 0 44.5 -5.33301 59.5 -16
s22.5 -33.334 22.5 -68.001v-27c0 -18.667 -3.83301 -34.167 -11.5 -46.5s-16.5 -21.833 -26.5 -28.5s-18.667 -10.334 -26 -11.001l-22 -1l22 -1c7.33301 -0.666992 16.166 -3.33398 26.499 -8.00098s19.166 -12 26.499 -22s11 -23.333 11 -40v-48
c0 -30 -8 -51.833 -24 -65.5s-37.333 -20.5 -64 -20.5h-40z" />
    <glyph glyph-name="acute" unicode="&#xb4;" horiz-adv-x="150" 
d="M0 532l88 96h62l-107 -96h-43z" />
    <glyph glyph-name="uni00B5" unicode="&#xb5;" horiz-adv-x="376" 
d="M154 0c-33.333 0 -58.5 4.99902 -75.5 14.999s-28.333 22.333 -34 37s-8.5 29.334 -8.5 44.001v374h66v-346c0 -25.333 7 -43.5 21 -54.5s33.667 -16.5 59 -16.5h80v417h66v-470h-174zM121 -174.001c-32 0 -54.167 7.66699 -66.5 23s-18.5 39.333 -18.5 72v549h66v-533
c0 -20.667 3 -35.5 9 -44.5s17.667 -13.5 35 -13.5h10l-9 -53h-26z" />
    <glyph glyph-name="paragraph" unicode="&#xb6;" horiz-adv-x="434" 
d="M193 -116v346.001h-74c-38 0 -65.333 6.5 -82 19.5s-27 30 -31 51s-6 43.5 -6 67.5v156c0 21.333 2.16699 39.166 6.5 53.499s13.5 25 27.5 32s35 10.5 63 10.5h163v-736h-67zM310 620.001h54v-736h-54v736zM152 575.001v45h175v-45h-175z" />
    <glyph glyph-name="periodcentered" unicode="&#xb7;" horiz-adv-x="164" 
d="M81 230c-14 0 -22 2.33301 -24 7s-3 12 -3 22c0 10.667 1 18.167 3 22.5s10 6.5 24 6.5s22.333 -2.16699 25 -6.5s4 -11.833 4 -22.5c0 -10 -1.33301 -17.333 -4 -22s-11 -7 -25 -7z" />
    <glyph glyph-name="cedilla" unicode="&#xb8;" horiz-adv-x="174" 
d="M72 -180c-14 0 -26.8311 2.5 -38.498 7.5s-21.167 10.167 -28.5 15.5l17 26c3.33301 -4.66699 9.66602 -9.16699 18.999 -13.5s18.666 -6.5 27.999 -6.5c16 0 28.167 5 36.5 15s12.5 20.667 12.5 32c0 10 -3.5 19.333 -10.5 28s-18.167 13 -33.5 13
c-10 0 -19.167 -2 -27.5 -6s-15.166 -8.66699 -20.499 -14l-22 17l52 66h30l-41 -51c13.333 9.33301 27.333 14 42 14c26 0 44.5 -6.66699 55.5 -20s16.5 -28 16.5 -44c0 -18.667 -7.33301 -36.5 -22 -53.5s-36.334 -25.5 -65.001 -25.5z" />
    <glyph glyph-name="uni00B9" unicode="&#xb9;" horiz-adv-x="213" 
d="M111 226v341l-72 -83l-24 24l97 121h56l1 -403h-58z" />
    <glyph glyph-name="ordmasculine" unicode="&#xba;" horiz-adv-x="278" 
d="M134 345c-26.667 0 -46.667 3.50195 -60 10.502s-22.333 16 -27 27s-7 22.167 -7 33.5v168c0 12 2.33301 23.5 7 34.5s14.167 19.833 28.5 26.5s35.5 10 63.5 10c26 0.666992 46.333 -2.5 61 -9.5s24.667 -15.833 30 -26.5s8 -22.334 8 -35.001v-161
c0 -14.667 -2.83301 -27.834 -8.5 -39.501s-16 -21 -31 -28s-36.5 -10.5 -64.5 -10.5zM136 382.002c18.667 0 32.5 3.66699 41.5 11s13.5 19.333 13.5 36v148c0 14.667 -4.33301 25.5 -13 32.5s-21.667 10.5 -39 10.5s-30.333 -3.5 -39 -10.5s-13 -17.833 -13 -32.5v-152
c0 -14.667 4.33301 -25.5 13 -32.5s20.667 -10.5 36 -10.5z" />
    <glyph glyph-name="guillemotright" unicode="&#xbb;" horiz-adv-x="512" 
d="M271 50l128 185l-133 193h56l134 -193l-129 -185h-56zM61 50l128 185l-133 193h57l133 -193l-129 -185h-56z" />
    <glyph glyph-name="onequarter" unicode="&#xbc;" horiz-adv-x="659" 
d="M111 226v341l-72 -83l-24 24l97 121h56l1 -403h-58zM86 -44l381 674h55l-383 -674h-53zM533 4l1 79h-154l-25 38l169 286h76l-1 -286h57l-8 -38h-49l1 -79h-67zM417 121h119v215z" />
    <glyph glyph-name="onehalf" unicode="&#xbd;" horiz-adv-x="685" 
d="M111 226v341l-72 -83l-24 24l97 121h56l1 -403h-58zM86 -44l381 674h55l-383 -674h-53zM437 0c0 32.667 1.33301 59.335 4 80.002s7 37.667 13 51s13.833 24.5 23.5 33.5s21.5 18.167 35.5 27.5c4.66699 2 9 4.5 13 7.5l10 7.5c17.333 10 30.166 19 38.499 27
s14 16.667 17 26s4.5 19.333 4.5 30v25c0 20 -3.83301 33.833 -11.5 41.5s-18.167 11.5 -31.5 11.5h-13c-12 0 -21 -2.5 -27 -7.5s-10.167 -11.333 -12.5 -19s-3.5 -15.5 -3.5 -23.5v-64l-58 10v58c0 31.333 7 52.833 21 64.5s36 17.5 66 17.5h47
c27.333 0 48 -5.83301 62 -17.5s21 -31.834 21 -60.501v-37c0 -24.667 -6.16699 -45.834 -18.5 -63.501s-32.166 -34.5 -59.499 -50.5c-4 -2.66699 -8.16699 -5.66699 -12.5 -9s-8.83301 -7 -13.5 -11c-18 -14 -31 -27.5 -39 -40.5s-13.167 -25.5 -15.5 -37.5
s-3.5 -22.333 -3.5 -31h160l-9 -46h-208z" />
    <glyph glyph-name="threequarters" unicode="&#xbe;" horiz-adv-x="652" 
d="M122 228c-30.667 0 -53.667 6.66992 -69 20.0029s-23 35 -23 65v57l58 -7v-39c0 -20 3 -34.667 9 -44s17 -14 33 -14h15c16.667 0 28.334 5 35.001 15s10 24.333 10 43v33c0 24.667 -4.66699 40.5 -14 47.5s-21.333 10.5 -36 10.5h-48v37h41c16 0 29.5 4.5 40.5 13.5
s16.5 26.167 16.5 51.5v30c0 20 -3.33301 33.167 -10 39.5s-18 9.5 -34 9.5h-17c-17.333 0 -28.5 -4.66699 -33.5 -14s-7.5 -21 -7.5 -35v-54l-58 11v50c0 25.333 6.33301 44.5 19 57.5s31.334 19.5 56.001 19.5h63c24.667 0 44.5 -5.33301 59.5 -16
s22.5 -33.334 22.5 -68.001v-27c0 -18.667 -3.83301 -34.167 -11.5 -46.5s-16.5 -21.833 -26.5 -28.5s-18.667 -10.334 -26 -11.001l-22 -1l22 -1c7.33301 -0.666992 16.166 -3.33398 26.499 -8.00098s19.166 -12 26.499 -22s11 -23.333 11 -40v-48
c0 -30 -8 -51.833 -24 -65.5s-37.333 -20.5 -64 -20.5h-40zM123 -43.9971l381 674h55l-383 -674h-53zM525 2.00293l1 79h-154l-25 38l169 286h76l-1 -286h57l-8 -38h-49l1 -79h-67zM409 119.003h119v215z" />
    <glyph glyph-name="questiondown" unicode="&#xbf;" horiz-adv-x="391" 
d="M261 326l2.99902 -177h-102c-19.333 0 -33 -3 -41 -9s-12.833 -14.167 -14.5 -24.5s-2.5 -21.833 -2.5 -34.5v-97c0 -28 6.33301 -48 19 -60s28.334 -18 47.001 -18h25c18.667 0 32.834 4.16699 42.501 12.5s16.5 18.5 20.5 30.5s6 23.667 6 35v98l66 -9v-90
c0 -46 -11.833 -79.667 -35.5 -101s-57.5 -32 -101.5 -32h-25c-42 0 -74.167 11.167 -96.5 33.5s-33.5 53.5 -33.5 93.5v108c0 40.667 8.16699 69.5 24.5 86.5s43.166 25.833 80.499 26.5l63 1l11 127h44zM238.999 473c12 0 19.5 -1.83301 22.5 -5.5s4.5 -11.167 4.5 -22.5
c0 -12 -1.5 -20 -4.5 -24s-10.5 -6 -22.5 -6c-12.667 0 -20.667 2 -24 6s-5 12 -5 24c0 10.667 1.66699 18 5 22s11.333 6 24 6z" />
    <glyph glyph-name="Agrave" unicode="&#xc0;" horiz-adv-x="381" 
d="M16 0l130 620h89l129 -620h-70l-30 146l13 -12h-176l11 12l-28 -146h-68zM114 180l-7 8h165l-9 -8l-64 352l-2 10h-14l-2 -10zM186 682l-113 90h62l94 -90h-43z" />
    <glyph glyph-name="Aacute" unicode="&#xc1;" horiz-adv-x="381" 
d="M16 0l130 620h89l129 -620h-70l-30 146l13 -12h-176l11 12l-28 -146h-68zM114 180l-7 8h165l-9 -8l-64 352l-2 10h-14l-2 -10zM133 682l94 90h62l-113 -90h-43z" />
    <glyph glyph-name="Acircumflex" unicode="&#xc2;" horiz-adv-x="381" 
d="M16 0l130 620h89l129 -620h-70l-30 146l13 -12h-176l11 12l-28 -146h-68zM114 180l-7 8h165l-9 -8l-64 352l-2 10h-14l-2 -10zM74 682l84 92h63l84 -92h-47l-68 59l-69 -59h-47z" />
    <glyph glyph-name="Atilde" unicode="&#xc3;" horiz-adv-x="381" 
d="M16 0l130 620h89l129 -620h-70l-30 146l13 -12h-176l11 12l-28 -146h-68zM114 180l-7 8h165l-9 -8l-64 352l-2 10h-14l-2 -10zM81 678c0 28.667 5.5 49.833 16.5 63.5s25.167 20.5 42.5 20.5c14.667 0 27 -3.33301 37 -10s19.5 -13.5 28.5 -20.5s18.5 -10.5 28.5 -10.5
c12.667 0 21.167 4.33301 25.5 13s6.5 18 6.5 28h33c0 -30 -6.16699 -51.167 -18.5 -63.5s-25.833 -18.5 -40.5 -18.5c-14 0 -26 3.66699 -36 11s-19.167 14.5 -27.5 21.5s-17.833 10.5 -28.5 10.5c-10 0 -17.833 -4 -23.5 -12s-8.5 -19 -8.5 -33h-35z" />
    <glyph glyph-name="Adieresis" unicode="&#xc4;" horiz-adv-x="381" 
d="M16 0l130 620h89l129 -620h-70l-30 146l13 -12h-176l11 12l-28 -146h-68zM114 180l-7 8h165l-9 -8l-64 352l-2 10h-14l-2 -10zM241 678c-13.333 0 -21 2.33301 -23 7s-3 11.667 -3 21c0 10.667 1 18.167 3 22.5s9.66699 6.5 23 6.5c14.667 0 23.167 -2.16699 25.5 -6.5
s3.5 -11.833 3.5 -22.5c0 -9.33301 -1.16699 -16.333 -3.5 -21s-10.833 -7 -25.5 -7zM135 678c-13.333 0 -21.166 2.33301 -23.499 7s-3.5 11.667 -3.5 21c0 10.667 1.16699 18.167 3.5 22.5s10.166 6.5 23.499 6.5c14.667 0 23.167 -2.16699 25.5 -6.5
s3.5 -11.833 3.5 -22.5c0 -9.33301 -1.33301 -16.333 -4 -21s-11 -7 -25 -7z" />
    <glyph glyph-name="Aring" unicode="&#xc5;" horiz-adv-x="381" 
d="M16 0l130 620h89l129 -620h-70l-30 146l13 -12h-176l11 12l-28 -146h-68zM114 180l-7 8h165l-9 -8l-64 352l-2 10h-14l-2 -10zM190 676c-23.333 0 -42.5 7.33301 -57.5 22s-22.5 32 -22.5 52c0 20.667 7.5 38.334 22.5 53.001s34.167 22 57.5 22
c21.333 0 39.5 -7.33301 54.5 -22s22.5 -32.334 22.5 -53.001c0 -20 -7.5 -37.333 -22.5 -52s-33.167 -22 -54.5 -22zM190 705c12 0 22.667 4.33301 32 13s14 19 14 31c0 12.667 -4.66699 23.667 -14 33s-20 14 -32 14c-14 0 -25.5 -4.66699 -34.5 -14
s-13.5 -20.333 -13.5 -33c0 -12 4.5 -22.333 13.5 -31s20.5 -13 34.5 -13z" />
    <glyph glyph-name="AE" unicode="&#xc6;" horiz-adv-x="601" 
d="M280 620h293v-53h-225v-194h207l-9 -53h-198v-267h225v-53h-293v620zM72 135v53h225v-53h-225zM15 0l153 620h58l-143 -620h-68zM179 567v53h116v-53h-116z" />
    <glyph glyph-name="Ccedilla" unicode="&#xc7;" horiz-adv-x="373" 
d="M189 -7c-48 0 -84.167 9.16602 -108.5 27.499s-36.5 44.833 -36.5 79.5v412c0 39.333 11.167 68.333 33.5 87s58.5 28 108.5 28s87.167 -9.16699 111.5 -27.5s36.5 -47.833 36.5 -88.5v-132l-67 -9v125c0 24 -5.33301 42.833 -16 56.5s-31.667 20.5 -63 20.5
c-30.667 0 -51 -7 -61 -21s-15 -32.333 -15 -55v-380c0 -19.333 5.83301 -35.333 17.5 -48s31.167 -19 58.5 -19c28.667 0 49 6.33301 61 19s18 28.667 18 48v119l67 9v-143c0 -35.333 -12.5 -62.166 -37.5 -80.499s-60.833 -27.5 -107.5 -27.5zM189 -180.001
c-14 0 -26.8311 2.5 -38.498 7.5s-21.167 10.167 -28.5 15.5l17 26c3.33301 -4.66699 9.66602 -9.16699 18.999 -13.5s18.666 -6.5 27.999 -6.5c16 0 28.167 5 36.5 15s12.5 20.667 12.5 32c0 10 -3.5 19.333 -10.5 28s-18.167 13 -33.5 13c-10 0 -19.167 -2 -27.5 -6
s-15.166 -8.66699 -20.499 -14l-22 17l52 66h30l-41 -51c13.333 9.33301 27.333 14 42 14c26 0 44.5 -6.66699 55.5 -20s16.5 -28 16.5 -44c0 -18.667 -7.33301 -36.5 -22 -53.5s-36.334 -25.5 -65.001 -25.5z" />
    <glyph glyph-name="Egrave" unicode="&#xc8;" horiz-adv-x="364" 
d="M52 620h285v-53h-217v-194h199l-9 -53h-190v-267h217v-53h-285v620zM180 682l-113 90h62l94 -90h-43z" />
    <glyph glyph-name="Eacute" unicode="&#xc9;" horiz-adv-x="364" 
d="M52 620h285v-53h-217v-194h199l-9 -53h-190v-267h217v-53h-285v620zM127 682l94 90h62l-113 -90h-43z" />
    <glyph glyph-name="Ecircumflex" unicode="&#xca;" horiz-adv-x="364" 
d="M52 620h285v-53h-217v-194h199l-9 -53h-190v-267h217v-53h-285v620zM68 682l84 92h63l84 -92h-47l-68 59l-69 -59h-47z" />
    <glyph glyph-name="Edieresis" unicode="&#xcb;" horiz-adv-x="364" 
d="M52 620h285v-53h-217v-194h199l-9 -53h-190v-267h217v-53h-285v620zM235 678c-13.333 0 -21 2.33301 -23 7s-3 11.667 -3 21c0 10.667 1 18.167 3 22.5s9.66699 6.5 23 6.5c14.667 0 23.167 -2.16699 25.5 -6.5s3.5 -11.833 3.5 -22.5
c0 -9.33301 -1.16699 -16.333 -3.5 -21s-10.833 -7 -25.5 -7zM129 678c-13.333 0 -21.166 2.33301 -23.499 7s-3.5 11.667 -3.5 21c0 10.667 1.16699 18.167 3.5 22.5s10.166 6.5 23.499 6.5c14.667 0 23.167 -2.16699 25.5 -6.5s3.5 -11.833 3.5 -22.5
c0 -9.33301 -1.33301 -16.333 -4 -21s-11 -7 -25 -7z" />
    <glyph glyph-name="Igrave" unicode="&#xcc;" horiz-adv-x="172" 
d="M52 620h68v-620h-68v620zM83 682l-113 90h62l94 -90h-43z" />
    <glyph glyph-name="Iacute" unicode="&#xcd;" horiz-adv-x="172" 
d="M52 620h68v-620h-68v620zM29 682l94 90h62l-113 -90h-43z" />
    <glyph glyph-name="Icircumflex" unicode="&#xce;" horiz-adv-x="172" 
d="M52 620h68v-620h-68v620zM-30 682l84 92h63l84 -92h-47l-68 59l-69 -59h-47z" />
    <glyph glyph-name="Idieresis" unicode="&#xcf;" horiz-adv-x="172" 
d="M52 620h68v-620h-68v620zM137 678c-13.333 0 -21 2.33301 -23 7s-3 11.667 -3 21c0 10.667 1 18.167 3 22.5s9.66699 6.5 23 6.5c14.667 0 23.167 -2.16699 25.5 -6.5s3.5 -11.833 3.5 -22.5c0 -9.33301 -1.16699 -16.333 -3.5 -21s-10.833 -7 -25.5 -7zM31 678
c-13.333 0 -21.166 2.33301 -23.499 7s-3.5 11.667 -3.5 21c0 10.667 1.16699 18.167 3.5 22.5s10.166 6.5 23.499 6.5c14.667 0 23.167 -2.16699 25.5 -6.5s3.5 -11.833 3.5 -22.5c0 -9.33301 -1.33301 -16.333 -4 -21s-11 -7 -25 -7z" />
    <glyph glyph-name="Eth" unicode="&#xd0;" horiz-adv-x="399" 
d="M65 620h212.001c31.333 0 53.166 -7.83301 65.499 -23.5s18.5 -39.167 18.5 -70.5v-431c0 -34 -5.66699 -58.333 -17 -73s-35 -22 -71 -22h-208v620zM9.00098 187v39h210v-39h-210zM234.001 53c24 0 40 4.50098 48 13.501s12 25.833 12 50.5v387
c0 21.333 -4.66699 37.166 -14 47.499s-22.333 15.5 -39 15.5h-108v-514h101z" />
    <glyph glyph-name="Ntilde" unicode="&#xd1;" horiz-adv-x="408" 
d="M52 0v620h68l166 -474l2 -5l1 -1v480h67v-620h-70l-164 448l-2 7h-1v-455h-67zM95 678c0 28.667 5.5 49.833 16.5 63.5s25.167 20.5 42.5 20.5c14.667 0 27 -3.33301 37 -10s19.5 -13.5 28.5 -20.5s18.5 -10.5 28.5 -10.5c12.667 0 21.167 4.33301 25.5 13s6.5 18 6.5 28
h33c0 -30 -6.16699 -51.167 -18.5 -63.5s-25.833 -18.5 -40.5 -18.5c-14 0 -26 3.66699 -36 11s-19.167 14.5 -27.5 21.5s-17.833 10.5 -28.5 10.5c-10 0 -17.833 -4 -23.5 -12s-8.5 -19 -8.5 -33h-35z" />
    <glyph glyph-name="Ograve" unicode="&#xd2;" horiz-adv-x="380" 
d="M189 -4c-48 0 -84.168 8.83301 -108.501 26.5s-36.5 42.5 -36.5 74.5v432c0 28.667 11.333 52.5 34 71.5s59.667 28.167 111 27.5c52.667 -0.666992 90.334 -10.167 113.001 -28.5s34 -41.833 34 -70.5v-432c0 -31.333 -12 -56 -36 -74s-61 -27 -111 -27zM188.999 51
c28.667 0 49.333 5.83301 62 17.5s19 26.834 19 45.501v398c0 16.667 -5.66699 31 -17 43s-33 18 -65 18c-30 0 -50.5 -5.83301 -61.5 -17.5s-16.5 -25.834 -16.5 -42.501v-400c0 -18 6.33301 -32.833 19 -44.5s32.667 -17.5 60 -17.5zM186.998 682l-113 90h62l94 -90h-43z
" />
    <glyph glyph-name="Oacute" unicode="&#xd3;" horiz-adv-x="380" 
d="M189 -4c-48 0 -84.168 8.83301 -108.501 26.5s-36.5 42.5 -36.5 74.5v432c0 28.667 11.333 52.5 34 71.5s59.667 28.167 111 27.5c52.667 -0.666992 90.334 -10.167 113.001 -28.5s34 -41.833 34 -70.5v-432c0 -31.333 -12 -56 -36 -74s-61 -27 -111 -27zM188.999 51
c28.667 0 49.333 5.83301 62 17.5s19 26.834 19 45.501v398c0 16.667 -5.66699 31 -17 43s-33 18 -65 18c-30 0 -50.5 -5.83301 -61.5 -17.5s-16.5 -25.834 -16.5 -42.501v-400c0 -18 6.33301 -32.833 19 -44.5s32.667 -17.5 60 -17.5zM133.998 682l94 90h62l-113 -90h-43z
" />
    <glyph glyph-name="Ocircumflex" unicode="&#xd4;" horiz-adv-x="380" 
d="M189 -4c-48 0 -84.168 8.83301 -108.501 26.5s-36.5 42.5 -36.5 74.5v432c0 28.667 11.333 52.5 34 71.5s59.667 28.167 111 27.5c52.667 -0.666992 90.334 -10.167 113.001 -28.5s34 -41.833 34 -70.5v-432c0 -31.333 -12 -56 -36 -74s-61 -27 -111 -27zM188.999 51
c28.667 0 49.333 5.83301 62 17.5s19 26.834 19 45.501v398c0 16.667 -5.66699 31 -17 43s-33 18 -65 18c-30 0 -50.5 -5.83301 -61.5 -17.5s-16.5 -25.834 -16.5 -42.501v-400c0 -18 6.33301 -32.833 19 -44.5s32.667 -17.5 60 -17.5zM73.998 682l84 92h63l84 -92h-47
l-68 59l-69 -59h-47z" />
    <glyph glyph-name="Otilde" unicode="&#xd5;" horiz-adv-x="380" 
d="M189 -4c-48 0 -84.168 8.83301 -108.501 26.5s-36.5 42.5 -36.5 74.5v432c0 28.667 11.333 52.5 34 71.5s59.667 28.167 111 27.5c52.667 -0.666992 90.334 -10.167 113.001 -28.5s34 -41.833 34 -70.5v-432c0 -31.333 -12 -56 -36 -74s-61 -27 -111 -27zM188.999 51
c28.667 0 49.333 5.83301 62 17.5s19 26.834 19 45.501v398c0 16.667 -5.66699 31 -17 43s-33 18 -65 18c-30 0 -50.5 -5.83301 -61.5 -17.5s-16.5 -25.834 -16.5 -42.501v-400c0 -18 6.33301 -32.833 19 -44.5s32.667 -17.5 60 -17.5zM80.998 678
c0 28.667 5.5 49.833 16.5 63.5s25.167 20.5 42.5 20.5c14.667 0 27 -3.33301 37 -10s19.5 -13.5 28.5 -20.5s18.5 -10.5 28.5 -10.5c12.667 0 21.167 4.33301 25.5 13s6.5 18 6.5 28h33c0 -30 -6.16699 -51.167 -18.5 -63.5s-25.833 -18.5 -40.5 -18.5
c-14 0 -26 3.66699 -36 11s-19.167 14.5 -27.5 21.5s-17.833 10.5 -28.5 10.5c-10 0 -17.833 -4 -23.5 -12s-8.5 -19 -8.5 -33h-35z" />
    <glyph glyph-name="Odieresis" unicode="&#xd6;" horiz-adv-x="380" 
d="M189 -4c-48 0 -84.168 8.83301 -108.501 26.5s-36.5 42.5 -36.5 74.5v432c0 28.667 11.333 52.5 34 71.5s59.667 28.167 111 27.5c52.667 -0.666992 90.334 -10.167 113.001 -28.5s34 -41.833 34 -70.5v-432c0 -31.333 -12 -56 -36 -74s-61 -27 -111 -27zM188.999 51
c28.667 0 49.333 5.83301 62 17.5s19 26.834 19 45.501v398c0 16.667 -5.66699 31 -17 43s-33 18 -65 18c-30 0 -50.5 -5.83301 -61.5 -17.5s-16.5 -25.834 -16.5 -42.501v-400c0 -18 6.33301 -32.833 19 -44.5s32.667 -17.5 60 -17.5zM240.998 678
c-13.333 0 -21 2.33301 -23 7s-3 11.667 -3 21c0 10.667 1 18.167 3 22.5s9.66699 6.5 23 6.5c14.667 0 23.167 -2.16699 25.5 -6.5s3.5 -11.833 3.5 -22.5c0 -9.33301 -1.16699 -16.333 -3.5 -21s-10.833 -7 -25.5 -7zM134.998 678c-13.333 0 -21.166 2.33301 -23.499 7
s-3.5 11.667 -3.5 21c0 10.667 1.16699 18.167 3.5 22.5s10.166 6.5 23.499 6.5c14.667 0 23.167 -2.16699 25.5 -6.5s3.5 -11.833 3.5 -22.5c0 -9.33301 -1.33301 -16.333 -4 -21s-11 -7 -25 -7z" />
    <glyph glyph-name="multiply" unicode="&#xd7;" horiz-adv-x="372" 
d="M64 402l27 27l224 -225l-27 -26zM84 175l-26 26l224 225l27 -27z" />
    <glyph glyph-name="Oslash" unicode="&#xd8;" horiz-adv-x="382" 
d="M191 -4c-48.667 0 -85.333 8.83301 -110 26.5s-37 42.5 -37 74.5v427c0 34 11.5 59.833 34.5 77.5s59.833 26.167 110.5 25.5c50.667 0 88 -8.83301 112 -26.5s36 -43.5 36 -77.5v-426c0 -31.333 -12.833 -56 -38.5 -74s-61.5 -27 -107.5 -27zM189.001 51
c30 0 51.168 6 63.501 18s18.5 26.333 18.5 43v395c0 12 -2.33301 23 -7 33s-13 17.833 -25 23.5s-29 8.5 -51 8.5c-30.667 0 -51.334 -6.66699 -62.001 -20s-16 -28 -16 -44v-396c0 -16.667 6.16699 -31 18.5 -43s32.5 -18 60.5 -18zM61.002 -44l221 679h31l-224 -679h-28z
" />
    <glyph glyph-name="Ugrave" unicode="&#xd9;" horiz-adv-x="388" 
d="M194 -5c-27.333 0 -52 3 -74 9s-39.5 15.833 -52.5 29.5s-19.5 32.167 -19.5 55.5v531h68v-509c0 -10.667 2.16699 -20.834 6.5 -30.501s12 -17.5 23 -23.5s27.167 -9 48.5 -9c22 0 38.667 3 50 9s18.833 13.833 22.5 23.5s5.5 19.834 5.5 30.501v509h67v-531
c0 -23.333 -6.16699 -41.833 -18.5 -55.5s-29.5 -23.5 -51.5 -29.5s-47 -9 -75 -9zM190 682l-113 90h62l94 -90h-43z" />
    <glyph glyph-name="Uacute" unicode="&#xda;" horiz-adv-x="388" 
d="M194 -5c-27.333 0 -52 3 -74 9s-39.5 15.833 -52.5 29.5s-19.5 32.167 -19.5 55.5v531h68v-509c0 -10.667 2.16699 -20.834 6.5 -30.501s12 -17.5 23 -23.5s27.167 -9 48.5 -9c22 0 38.667 3 50 9s18.833 13.833 22.5 23.5s5.5 19.834 5.5 30.501v509h67v-531
c0 -23.333 -6.16699 -41.833 -18.5 -55.5s-29.5 -23.5 -51.5 -29.5s-47 -9 -75 -9zM137 682l94 90h62l-113 -90h-43z" />
    <glyph glyph-name="Ucircumflex" unicode="&#xdb;" horiz-adv-x="388" 
d="M194 -5c-27.333 0 -52 3 -74 9s-39.5 15.833 -52.5 29.5s-19.5 32.167 -19.5 55.5v531h68v-509c0 -10.667 2.16699 -20.834 6.5 -30.501s12 -17.5 23 -23.5s27.167 -9 48.5 -9c22 0 38.667 3 50 9s18.833 13.833 22.5 23.5s5.5 19.834 5.5 30.501v509h67v-531
c0 -23.333 -6.16699 -41.833 -18.5 -55.5s-29.5 -23.5 -51.5 -29.5s-47 -9 -75 -9zM78 682l84 92h63l84 -92h-47l-68 59l-69 -59h-47z" />
    <glyph glyph-name="Udieresis" unicode="&#xdc;" horiz-adv-x="388" 
d="M194 -5c-27.333 0 -52 3 -74 9s-39.5 15.833 -52.5 29.5s-19.5 32.167 -19.5 55.5v531h68v-509c0 -10.667 2.16699 -20.834 6.5 -30.501s12 -17.5 23 -23.5s27.167 -9 48.5 -9c22 0 38.667 3 50 9s18.833 13.833 22.5 23.5s5.5 19.834 5.5 30.501v509h67v-531
c0 -23.333 -6.16699 -41.833 -18.5 -55.5s-29.5 -23.5 -51.5 -29.5s-47 -9 -75 -9zM245 678c-13.333 0 -21 2.33301 -23 7s-3 11.667 -3 21c0 10.667 1 18.167 3 22.5s9.66699 6.5 23 6.5c14.667 0 23.167 -2.16699 25.5 -6.5s3.5 -11.833 3.5 -22.5
c0 -9.33301 -1.16699 -16.333 -3.5 -21s-10.833 -7 -25.5 -7zM139 678c-13.333 0 -21.166 2.33301 -23.499 7s-3.5 11.667 -3.5 21c0 10.667 1.16699 18.167 3.5 22.5s10.166 6.5 23.499 6.5c14.667 0 23.167 -2.16699 25.5 -6.5s3.5 -11.833 3.5 -22.5
c0 -9.33301 -1.33301 -16.333 -4 -21s-11 -7 -25 -7z" />
    <glyph glyph-name="Yacute" unicode="&#xdd;" horiz-adv-x="354" 
d="M144 0v242l-135 378h62l106 -294l1 -15h1l2 15l102 294h63l-136 -377v-243h-66zM120 682l94 90h62l-113 -90h-43z" />
    <glyph glyph-name="Thorn" unicode="&#xde;" horiz-adv-x="383" 
d="M30 678l66.999 -0.000976562v-97h132c28.667 0 49.834 -3.5 63.501 -10.5s22.667 -17.667 27 -32s6.5 -32.166 6.5 -53.499v-156c0 -24 -2 -46.5 -6 -67.5s-14.333 -38 -31 -51s-44 -19.5 -82 -19.5h-110v-191h-67v678zM187.999 243.999c24 0 41.668 6.16699 53.001 18.5
s17 32.833 17 61.5v132c0 28 -3.83301 46.833 -11.5 56.5s-23.834 14.5 -48.501 14.5h-101v-283h91z" />
    <glyph glyph-name="germandbls" unicode="&#xdf;" horiz-adv-x="475" 
d="M-26 -174l-15.002 53.0029h63c18.667 0 30.834 4.5 36.501 13.5s8.5 23.833 8.5 44.5l-1 496h-43v37h43v67c0 33.333 7 55.833 21 67.5s41.333 17.5 82 17.5h73c25.333 0 45.5 -2.66699 60.5 -8s25.667 -15 32 -29s9.5 -34.667 9.5 -62v-47c0 -10 -2 -17.5 -6 -22.5
s-11.333 -9.83301 -22 -14.5c-16.667 -2 -29.334 -7 -38.001 -15s-14.5 -17.833 -17.5 -29.5s-4.5 -24.167 -4.5 -37.5c0 -21.333 2.33301 -37.333 7 -48s15.667 -20.667 33 -30l43.5 -24.5l30.5 -16.5c20 -10 34.667 -20.5 44 -31.5s15.5 -23.167 18.5 -36.5
s4.5 -29 4.5 -47v-11c0 -39.333 -9.83301 -68.833 -29.5 -88.5s-56.834 -29.5 -111.501 -29.5c-47.333 0 -81.166 9.83301 -101.499 29.5s-30.5 47.167 -30.5 82.5v67l59 8v-72c0 -12 2 -23.333 6 -34s11.5 -19.334 22.5 -26.001s26.5 -10 46.5 -10
c24.667 0 44 4.66699 58 14s21 28 21 56c0 18.667 -0.833008 33.667 -2.5 45s-5.66699 21 -12 29s-17.166 16 -32.499 24c-9.33301 6 -21.166 12.667 -35.499 20l-39.5 21c-16 8.66699 -28.333 17.5 -37 26.5s-14.667 20 -18 33s-5 29.5 -5 49.5c0 34.667 6.33301 62 19 82
s34 31.667 64 35v51c-0.666992 25.333 -5.66699 41.666 -15 48.999s-26 11 -50 11h-13c-28 0 -46.167 -3.83301 -54.5 -11.5s-12.5 -23.834 -12.5 -48.501v-604c0 -32.667 -6.16699 -56.667 -18.5 -72s-34.833 -23 -67.5 -23h-73z" />
    <glyph glyph-name="agrave" unicode="&#xe0;" 
d="M126 0c-24.667 0 -42.3311 3.6709 -52.998 11.0039s-17.334 20.166 -20.001 38.499s-4 44.5 -4 78.5v243c0 26 3 46.167 9 60.5s16.833 24.333 32.5 30s38.5 8.5 68.5 8.5h183v-470h-66v417h-111c-16.667 0 -28.5 -2.33301 -35.5 -7s-11.167 -11.834 -12.5 -21.501
s-2 -23.167 -2 -40.5v-227c0 -18.667 1 -32.834 3 -42.501s6.16699 -16.334 12.5 -20.001s16.166 -5.5 29.499 -5.5h87l-7 -53h-114zM199.003 532.004l-107 96h62l88 -96h-43z" />
    <glyph glyph-name="aacute" unicode="&#xe1;" 
d="M126 0c-24.667 0 -42.3311 3.6709 -52.998 11.0039s-17.334 20.166 -20.001 38.499s-4 44.5 -4 78.5v243c0 26 3 46.167 9 60.5s16.833 24.333 32.5 30s38.5 8.5 68.5 8.5h183v-470h-66v417h-111c-16.667 0 -28.5 -2.33301 -35.5 -7s-11.167 -11.834 -12.5 -21.501
s-2 -23.167 -2 -40.5v-227c0 -18.667 1 -32.834 3 -42.501s6.16699 -16.334 12.5 -20.001s16.166 -5.5 29.499 -5.5h87l-7 -53h-114zM146.003 532.004l88 96h62l-107 -96h-43z" />
    <glyph glyph-name="acircumflex" unicode="&#xe2;" 
d="M126 0c-24.667 0 -42.3311 3.6709 -52.998 11.0039s-17.334 20.166 -20.001 38.499s-4 44.5 -4 78.5v243c0 26 3 46.167 9 60.5s16.833 24.333 32.5 30s38.5 8.5 68.5 8.5h183v-470h-66v417h-111c-16.667 0 -28.5 -2.33301 -35.5 -7s-11.167 -11.834 -12.5 -21.501
s-2 -23.167 -2 -40.5v-227c0 -18.667 1 -32.834 3 -42.501s6.16699 -16.334 12.5 -20.001s16.166 -5.5 29.499 -5.5h87l-7 -53h-114zM87.0029 532.004l84 92h63l84 -92h-47l-68 59l-69 -59h-47z" />
    <glyph glyph-name="atilde" unicode="&#xe3;" 
d="M126 0c-24.667 0 -42.3311 3.6709 -52.998 11.0039s-17.334 20.166 -20.001 38.499s-4 44.5 -4 78.5v243c0 26 3 46.167 9 60.5s16.833 24.333 32.5 30s38.5 8.5 68.5 8.5h183v-470h-66v417h-111c-16.667 0 -28.5 -2.33301 -35.5 -7s-11.167 -11.834 -12.5 -21.501
s-2 -23.167 -2 -40.5v-227c0 -18.667 1 -32.834 3 -42.501s6.16699 -16.334 12.5 -20.001s16.166 -5.5 29.499 -5.5h87l-7 -53h-114zM94.0029 528.004c0 28.667 5.5 49.833 16.5 63.5s25.167 20.5 42.5 20.5c14.667 0 27 -3.33301 37 -10s19.5 -13.5 28.5 -20.5
s18.5 -10.5 28.5 -10.5c12.667 0 21.167 4.33301 25.5 13s6.5 18 6.5 28h33c0 -30 -6.16699 -51.167 -18.5 -63.5s-25.833 -18.5 -40.5 -18.5c-14 0 -26 3.66699 -36 11s-19.167 14.5 -27.5 21.5s-17.833 10.5 -28.5 10.5c-10 0 -17.833 -4 -23.5 -12s-8.5 -19 -8.5 -33h-35
z" />
    <glyph glyph-name="adieresis" unicode="&#xe4;" 
d="M126 0c-24.667 0 -42.3311 3.6709 -52.998 11.0039s-17.334 20.166 -20.001 38.499s-4 44.5 -4 78.5v243c0 26 3 46.167 9 60.5s16.833 24.333 32.5 30s38.5 8.5 68.5 8.5h183v-470h-66v417h-111c-16.667 0 -28.5 -2.33301 -35.5 -7s-11.167 -11.834 -12.5 -21.501
s-2 -23.167 -2 -40.5v-227c0 -18.667 1 -32.834 3 -42.501s6.16699 -16.334 12.5 -20.001s16.166 -5.5 29.499 -5.5h87l-7 -53h-114zM254.003 528.004c-13.333 0 -21 2.33301 -23 7s-3 11.667 -3 21c0 10.667 1 18.167 3 22.5s9.66699 6.5 23 6.5
c14.667 0 23.167 -2.16699 25.5 -6.5s3.5 -11.833 3.5 -22.5c0 -9.33301 -1.16699 -16.333 -3.5 -21s-10.833 -7 -25.5 -7zM148.003 528.004c-13.333 0 -21.166 2.33301 -23.499 7s-3.5 11.667 -3.5 21c0 10.667 1.16699 18.167 3.5 22.5s10.166 6.5 23.499 6.5
c14.667 0 23.167 -2.16699 25.5 -6.5s3.5 -11.833 3.5 -22.5c0 -9.33301 -1.33301 -16.333 -4 -21s-11 -7 -25 -7z" />
    <glyph glyph-name="aring" unicode="&#xe5;" 
d="M126 0c-24.667 0 -42.3311 3.6709 -52.998 11.0039s-17.334 20.166 -20.001 38.499s-4 44.5 -4 78.5v243c0 26 3 46.167 9 60.5s16.833 24.333 32.5 30s38.5 8.5 68.5 8.5h183v-470h-66v417h-111c-16.667 0 -28.5 -2.33301 -35.5 -7s-11.167 -11.834 -12.5 -21.501
s-2 -23.167 -2 -40.5v-227c0 -18.667 1 -32.834 3 -42.501s6.16699 -16.334 12.5 -20.001s16.166 -5.5 29.499 -5.5h87l-7 -53h-114zM203.003 526.004c-23.333 0 -42.5 7.33301 -57.5 22s-22.5 32 -22.5 52c0 20.667 7.5 38.334 22.5 53.001s34.167 22 57.5 22
c21.333 0 39.5 -7.33301 54.5 -22s22.5 -32.334 22.5 -53.001c0 -20 -7.5 -37.333 -22.5 -52s-33.167 -22 -54.5 -22zM203.003 555.004c12 0 22.667 4.33301 32 13s14 19 14 31c0 12.667 -4.66699 23.667 -14 33s-20 14 -32 14c-14 0 -25.5 -4.66699 -34.5 -14
s-13.5 -20.333 -13.5 -33c0 -12 4.5 -22.333 13.5 -31s20.5 -13 34.5 -13z" />
    <glyph glyph-name="ae" unicode="&#xe6;" horiz-adv-x="581" 
d="M126 0c-24.667 0 -42.3311 3.6709 -52.998 11.0039s-17.334 20.166 -20.001 38.499s-4 44.5 -4 78.5v243c0 26 3 46.167 9 60.5s16.833 24.333 32.5 30s38.5 8.5 68.5 8.5h183v-470h-66v417h-111c-16.667 0 -28.5 -2.33301 -35.5 -7s-11.167 -11.834 -12.5 -21.501
s-2 -23.167 -2 -40.5v-227c0 -18.667 1 -32.834 3 -42.501s6.16699 -16.334 12.5 -20.001s16.166 -5.5 29.499 -5.5h87l-7 -53h-114zM415.003 -0.996094c-39.333 0 -68.999 5.33105 -88.999 15.998s-33.667 24.5 -41 41.5s-11 34.5 -11 52.5v259
c0 18.667 3.66699 36.334 11 53.001s21.5 30.334 42.5 41.001s52.167 16 93.5 16c38.667 0 68.5 -5.16699 89.5 -15.5s35.667 -23.833 44 -40.5s12.5 -34.334 12.5 -53.001v-108l-66 -4v100c0 22 -7 39.167 -21 51.5s-33.667 18.5 -59 18.5s-45.166 -6 -59.499 -18
s-21.5 -29.333 -21.5 -52v-236c0 -22 7 -38.833 21 -50.5s32 -17.5 54 -17.5c28 0 49.333 6.16699 64 18.5s22 30.833 22 55.5v45l66 6v-60c0 -21.333 -4.33301 -41.166 -13 -59.499s-23.834 -32.833 -45.501 -43.5s-52.834 -16 -93.501 -16zM284.004 229.002v37h283v-37
h-283z" />
    <glyph glyph-name="ccedilla" unicode="&#xe7;" horiz-adv-x="379" 
d="M186 -4c-39.333 0 -68.999 5.33105 -88.999 15.998s-33.667 24.5 -41 41.5s-11 34.5 -11 52.5v259c0 18.667 3.66699 36.334 11 53.001s21.5 30.334 42.5 41.001s52.167 16 93.5 16c38.667 0 68.5 -5.16699 89.5 -15.5s35.667 -23.833 44 -40.5
s12.5 -34.334 12.5 -53.001v-70l-66 -8v66c0 22 -7 39.167 -21 51.5s-33.667 18.5 -59 18.5s-45.166 -6 -59.499 -18s-21.5 -29.333 -21.5 -52v-236c0 -22 7 -38.833 21 -50.5s32 -17.5 54 -17.5c28 0 49.333 6.16699 64 18.5s22 30.833 22 55.5v58l66 6v-73
c0 -21.333 -4.33301 -41.166 -13 -59.499s-23.834 -32.833 -45.501 -43.5s-52.834 -16 -93.501 -16zM192.001 -180.002c-14 0 -26.8311 2.5 -38.498 7.5s-21.167 10.167 -28.5 15.5l17 26c3.33301 -4.66699 9.66602 -9.16699 18.999 -13.5s18.666 -6.5 27.999 -6.5
c16 0 28.167 5 36.5 15s12.5 20.667 12.5 32c0 10 -3.5 19.333 -10.5 28s-18.167 13 -33.5 13c-10 0 -19.167 -2 -27.5 -6s-15.166 -8.66699 -20.499 -14l-22 17l52 66h30l-41 -51c13.333 9.33301 27.333 14 42 14c26 0 44.5 -6.66699 55.5 -20s16.5 -28 16.5 -44
c0 -18.667 -7.33301 -36.5 -22 -53.5s-36.334 -25.5 -65.001 -25.5z" />
    <glyph glyph-name="egrave" unicode="&#xe8;" horiz-adv-x="383" 
d="M186 -4c-39.333 0 -68.999 5.33105 -88.999 15.998s-33.667 24.5 -41 41.5s-11 34.5 -11 52.5v259c0 18.667 3.66699 36.334 11 53.001s21.5 30.334 42.5 41.001s52.167 16 93.5 16c38.667 0 68.5 -5.16699 89.5 -15.5s35.667 -23.833 44 -40.5
s12.5 -34.334 12.5 -53.001v-108l-66 -4v100c0 22 -7 39.167 -21 51.5s-33.667 18.5 -59 18.5s-45.166 -6 -59.499 -18s-21.5 -29.333 -21.5 -52v-236c0 -22 7 -38.833 21 -50.5s32 -17.5 54 -17.5c28 0 49.333 6.16699 64 18.5s22 30.833 22 55.5v45l66 6v-60
c0 -21.333 -4.33301 -41.166 -13 -59.499s-23.834 -32.833 -45.501 -43.5s-52.834 -16 -93.501 -16zM55.001 225.998v37h283v-37h-283zM188.001 531.998l-107 96h62l88 -96h-43z" />
    <glyph glyph-name="eacute" unicode="&#xe9;" horiz-adv-x="383" 
d="M186 -4c-39.333 0 -68.999 5.33105 -88.999 15.998s-33.667 24.5 -41 41.5s-11 34.5 -11 52.5v259c0 18.667 3.66699 36.334 11 53.001s21.5 30.334 42.5 41.001s52.167 16 93.5 16c38.667 0 68.5 -5.16699 89.5 -15.5s35.667 -23.833 44 -40.5
s12.5 -34.334 12.5 -53.001v-108l-66 -4v100c0 22 -7 39.167 -21 51.5s-33.667 18.5 -59 18.5s-45.166 -6 -59.499 -18s-21.5 -29.333 -21.5 -52v-236c0 -22 7 -38.833 21 -50.5s32 -17.5 54 -17.5c28 0 49.333 6.16699 64 18.5s22 30.833 22 55.5v45l66 6v-60
c0 -21.333 -4.33301 -41.166 -13 -59.499s-23.834 -32.833 -45.501 -43.5s-52.834 -16 -93.501 -16zM55.001 225.998v37h283v-37h-283zM135.001 531.998l88 96h62l-107 -96h-43z" />
    <glyph glyph-name="ecircumflex" unicode="&#xea;" horiz-adv-x="383" 
d="M186 -4c-39.333 0 -68.999 5.33105 -88.999 15.998s-33.667 24.5 -41 41.5s-11 34.5 -11 52.5v259c0 18.667 3.66699 36.334 11 53.001s21.5 30.334 42.5 41.001s52.167 16 93.5 16c38.667 0 68.5 -5.16699 89.5 -15.5s35.667 -23.833 44 -40.5
s12.5 -34.334 12.5 -53.001v-108l-66 -4v100c0 22 -7 39.167 -21 51.5s-33.667 18.5 -59 18.5s-45.166 -6 -59.499 -18s-21.5 -29.333 -21.5 -52v-236c0 -22 7 -38.833 21 -50.5s32 -17.5 54 -17.5c28 0 49.333 6.16699 64 18.5s22 30.833 22 55.5v45l66 6v-60
c0 -21.333 -4.33301 -41.166 -13 -59.499s-23.834 -32.833 -45.501 -43.5s-52.834 -16 -93.501 -16zM55.001 225.998v37h283v-37h-283zM76.001 531.998l84 92h63l84 -92h-47l-68 59l-69 -59h-47z" />
    <glyph glyph-name="edieresis" unicode="&#xeb;" horiz-adv-x="383" 
d="M186 -4c-39.333 0 -68.999 5.33105 -88.999 15.998s-33.667 24.5 -41 41.5s-11 34.5 -11 52.5v259c0 18.667 3.66699 36.334 11 53.001s21.5 30.334 42.5 41.001s52.167 16 93.5 16c38.667 0 68.5 -5.16699 89.5 -15.5s35.667 -23.833 44 -40.5
s12.5 -34.334 12.5 -53.001v-108l-66 -4v100c0 22 -7 39.167 -21 51.5s-33.667 18.5 -59 18.5s-45.166 -6 -59.499 -18s-21.5 -29.333 -21.5 -52v-236c0 -22 7 -38.833 21 -50.5s32 -17.5 54 -17.5c28 0 49.333 6.16699 64 18.5s22 30.833 22 55.5v45l66 6v-60
c0 -21.333 -4.33301 -41.166 -13 -59.499s-23.834 -32.833 -45.501 -43.5s-52.834 -16 -93.501 -16zM55.001 225.998v37h283v-37h-283zM243.001 527.998c-13.333 0 -21 2.33301 -23 7s-3 11.667 -3 21c0 10.667 1 18.167 3 22.5s9.66699 6.5 23 6.5
c14.667 0 23.167 -2.16699 25.5 -6.5s3.5 -11.833 3.5 -22.5c0 -9.33301 -1.16699 -16.333 -3.5 -21s-10.833 -7 -25.5 -7zM137.001 527.998c-13.333 0 -21.166 2.33301 -23.499 7s-3.5 11.667 -3.5 21c0 10.667 1.16699 18.167 3.5 22.5s10.166 6.5 23.499 6.5
c14.667 0 23.167 -2.16699 25.5 -6.5s3.5 -11.833 3.5 -22.5c0 -9.33301 -1.33301 -16.333 -4 -21s-11 -7 -25 -7z" />
    <glyph glyph-name="igrave" unicode="&#xec;" horiz-adv-x="174" 
d="M54 470h66v-470h-66v470zM84 532l-107 96h62l88 -96h-43z" />
    <glyph glyph-name="iacute" unicode="&#xed;" horiz-adv-x="174" 
d="M54 470h66v-470h-66v470zM31 532l88 96h62l-107 -96h-43z" />
    <glyph glyph-name="icircumflex" unicode="&#xee;" horiz-adv-x="174" 
d="M54 470h66v-470h-66v470zM-29 532l84 92h63l84 -92h-47l-68 59l-69 -59h-47z" />
    <glyph glyph-name="idieresis" unicode="&#xef;" horiz-adv-x="174" 
d="M54 470h66v-470h-66v470zM138 528c-13.333 0 -21 2.33301 -23 7s-3 11.667 -3 21c0 10.667 1 18.167 3 22.5s9.66699 6.5 23 6.5c14.667 0 23.167 -2.16699 25.5 -6.5s3.5 -11.833 3.5 -22.5c0 -9.33301 -1.16699 -16.333 -3.5 -21s-10.833 -7 -25.5 -7zM32 528
c-13.333 0 -21.166 2.33301 -23.499 7s-3.5 11.667 -3.5 21c0 10.667 1.16699 18.167 3.5 22.5s10.166 6.5 23.499 6.5c14.667 0 23.167 -2.16699 25.5 -6.5s3.5 -11.833 3.5 -22.5c0 -9.33301 -1.33301 -16.333 -4 -21s-11 -7 -25 -7z" />
    <glyph glyph-name="eth" unicode="&#xf0;" 
d="M196 -1c-38.667 0 -68.501 4.00293 -89.501 12.0029s-35.333 23.167 -43 45.5s-11.5 55.166 -11.5 98.499v171c0 51.333 9 88.166 27 110.499s50.333 33.5 97 33.5c24 0 42.833 -2.66699 56.5 -8s26.167 -12.666 37.5 -21.999l-6 -6
c-3.33301 41.333 -16.166 76.333 -38.499 105s-56.5 43 -102.5 43h-59v38h88c36 0 68.333 -8.66699 97 -26s51.5 -45.833 68.5 -85.5s25.5 -93.167 25.5 -160.5v-215c0 -27.333 -2 -49.833 -6 -67.5s-11.333 -31.334 -22 -41.001s-25.667 -16.334 -45 -20.001
s-44 -5.5 -74 -5.5zM195.999 56.0029c32 0 53.501 5.66699 64.501 17s16.5 31 16.5 59v225c0 20.667 -5.66699 37.167 -17 49.5s-32 18.5 -62 18.5c-17.333 0 -32 -2.5 -44 -7.5s-21 -14.167 -27 -27.5s-9 -33 -9 -59v-186c0 -24 2.66699 -42.5 8 -55.5
s13.666 -21.833 24.999 -26.5s26.333 -7 45 -7zM110 507.003l-19 15l106 140l19 -14z" />
    <glyph glyph-name="ntilde" unicode="&#xf1;" horiz-adv-x="395" 
d="M54 471h53.001l7 -49c10 16.667 24.5 30.167 43.5 40.5s42.5 15.5 70.5 15.5c38.667 0 68 -8.66699 88 -26s30 -43 30 -77v-375h-66v353c0 24.667 -7.16699 42.5 -21.5 53.5s-33.833 16.5 -58.5 16.5c-21.333 0 -38.333 -4.33301 -51 -13s-22.334 -20 -29.001 -34v-376
h-66v471zM90.001 528c0 28.667 5.5 49.833 16.5 63.5s25.167 20.5 42.5 20.5c14.667 0 27 -3.33301 37 -10s19.5 -13.5 28.5 -20.5s18.5 -10.5 28.5 -10.5c12.667 0 21.167 4.33301 25.5 13s6.5 18 6.5 28h33c0 -30 -6.16699 -51.167 -18.5 -63.5s-25.833 -18.5 -40.5 -18.5
c-14 0 -26 3.66699 -36 11s-19.167 14.5 -27.5 21.5s-17.833 10.5 -28.5 10.5c-10 0 -17.833 -4 -23.5 -12s-8.5 -19 -8.5 -33h-35z" />
    <glyph glyph-name="ograve" unicode="&#xf2;" horiz-adv-x="383" 
d="M186 -4c-39.333 0 -68.998 5.33105 -88.998 15.998s-33.667 24.5 -41 41.5s-11 34.5 -11 52.5v259c0 18.667 3.66699 36.334 11 53.001s21.5 30.334 42.5 41.001s52.167 16 93.5 16c38.667 0 68.5 -5.16699 89.5 -15.5s35.667 -23.833 44 -40.5
s12.5 -34.334 12.5 -53.001v-251c0 -21.333 -4.33301 -41.166 -13 -59.499s-23.834 -32.833 -45.501 -43.5s-52.834 -16 -93.501 -16zM186.002 49.998c28 0 49.332 6.16699 63.999 18.5s22 30.833 22 55.5v230c0 22 -7 39.167 -21 51.5s-33.667 18.5 -59 18.5
s-45.166 -6 -59.499 -18s-21.5 -29.333 -21.5 -52v-236c0 -22 7 -38.833 21 -50.5s32 -17.5 54 -17.5zM188.001 531.998l-107 96h62l88 -96h-43z" />
    <glyph glyph-name="oacute" unicode="&#xf3;" horiz-adv-x="383" 
d="M186 -4c-39.333 0 -68.998 5.33105 -88.998 15.998s-33.667 24.5 -41 41.5s-11 34.5 -11 52.5v259c0 18.667 3.66699 36.334 11 53.001s21.5 30.334 42.5 41.001s52.167 16 93.5 16c38.667 0 68.5 -5.16699 89.5 -15.5s35.667 -23.833 44 -40.5
s12.5 -34.334 12.5 -53.001v-251c0 -21.333 -4.33301 -41.166 -13 -59.499s-23.834 -32.833 -45.501 -43.5s-52.834 -16 -93.501 -16zM186.002 49.998c28 0 49.332 6.16699 63.999 18.5s22 30.833 22 55.5v230c0 22 -7 39.167 -21 51.5s-33.667 18.5 -59 18.5
s-45.166 -6 -59.499 -18s-21.5 -29.333 -21.5 -52v-236c0 -22 7 -38.833 21 -50.5s32 -17.5 54 -17.5zM135.001 531.998l88 96h62l-107 -96h-43z" />
    <glyph glyph-name="ocircumflex" unicode="&#xf4;" horiz-adv-x="383" 
d="M186 -4c-39.333 0 -68.998 5.33105 -88.998 15.998s-33.667 24.5 -41 41.5s-11 34.5 -11 52.5v259c0 18.667 3.66699 36.334 11 53.001s21.5 30.334 42.5 41.001s52.167 16 93.5 16c38.667 0 68.5 -5.16699 89.5 -15.5s35.667 -23.833 44 -40.5
s12.5 -34.334 12.5 -53.001v-251c0 -21.333 -4.33301 -41.166 -13 -59.499s-23.834 -32.833 -45.501 -43.5s-52.834 -16 -93.501 -16zM186.002 49.998c28 0 49.332 6.16699 63.999 18.5s22 30.833 22 55.5v230c0 22 -7 39.167 -21 51.5s-33.667 18.5 -59 18.5
s-45.166 -6 -59.499 -18s-21.5 -29.333 -21.5 -52v-236c0 -22 7 -38.833 21 -50.5s32 -17.5 54 -17.5zM76.001 531.998l84 92h63l84 -92h-47l-68 59l-69 -59h-47z" />
    <glyph glyph-name="otilde" unicode="&#xf5;" horiz-adv-x="383" 
d="M186 -4c-39.333 0 -68.998 5.33105 -88.998 15.998s-33.667 24.5 -41 41.5s-11 34.5 -11 52.5v259c0 18.667 3.66699 36.334 11 53.001s21.5 30.334 42.5 41.001s52.167 16 93.5 16c38.667 0 68.5 -5.16699 89.5 -15.5s35.667 -23.833 44 -40.5
s12.5 -34.334 12.5 -53.001v-251c0 -21.333 -4.33301 -41.166 -13 -59.499s-23.834 -32.833 -45.501 -43.5s-52.834 -16 -93.501 -16zM186.002 49.998c28 0 49.332 6.16699 63.999 18.5s22 30.833 22 55.5v230c0 22 -7 39.167 -21 51.5s-33.667 18.5 -59 18.5
s-45.166 -6 -59.499 -18s-21.5 -29.333 -21.5 -52v-236c0 -22 7 -38.833 21 -50.5s32 -17.5 54 -17.5zM83.001 527.998c0 28.667 5.5 49.833 16.5 63.5s25.167 20.5 42.5 20.5c14.667 0 27 -3.33301 37 -10s19.5 -13.5 28.5 -20.5s18.5 -10.5 28.5 -10.5
c12.667 0 21.167 4.33301 25.5 13s6.5 18 6.5 28h33c0 -30 -6.16699 -51.167 -18.5 -63.5s-25.833 -18.5 -40.5 -18.5c-14 0 -26 3.66699 -36 11s-19.167 14.5 -27.5 21.5s-17.833 10.5 -28.5 10.5c-10 0 -17.833 -4 -23.5 -12s-8.5 -19 -8.5 -33h-35z" />
    <glyph glyph-name="odieresis" unicode="&#xf6;" horiz-adv-x="383" 
d="M186 -4c-39.333 0 -68.998 5.33105 -88.998 15.998s-33.667 24.5 -41 41.5s-11 34.5 -11 52.5v259c0 18.667 3.66699 36.334 11 53.001s21.5 30.334 42.5 41.001s52.167 16 93.5 16c38.667 0 68.5 -5.16699 89.5 -15.5s35.667 -23.833 44 -40.5
s12.5 -34.334 12.5 -53.001v-251c0 -21.333 -4.33301 -41.166 -13 -59.499s-23.834 -32.833 -45.501 -43.5s-52.834 -16 -93.501 -16zM186.002 49.998c28 0 49.332 6.16699 63.999 18.5s22 30.833 22 55.5v230c0 22 -7 39.167 -21 51.5s-33.667 18.5 -59 18.5
s-45.166 -6 -59.499 -18s-21.5 -29.333 -21.5 -52v-236c0 -22 7 -38.833 21 -50.5s32 -17.5 54 -17.5zM243.001 527.998c-13.333 0 -21 2.33301 -23 7s-3 11.667 -3 21c0 10.667 1 18.167 3 22.5s9.66699 6.5 23 6.5c14.667 0 23.167 -2.16699 25.5 -6.5
s3.5 -11.833 3.5 -22.5c0 -9.33301 -1.16699 -16.333 -3.5 -21s-10.833 -7 -25.5 -7zM137.001 527.998c-13.333 0 -21.166 2.33301 -23.499 7s-3.5 11.667 -3.5 21c0 10.667 1.16699 18.167 3.5 22.5s10.166 6.5 23.499 6.5c14.667 0 23.167 -2.16699 25.5 -6.5
s3.5 -11.833 3.5 -22.5c0 -9.33301 -1.33301 -16.333 -4 -21s-11 -7 -25 -7z" />
    <glyph glyph-name="divide" unicode="&#xf7;" horiz-adv-x="420" 
d="M52 192v37h317v-37h-317zM207 352c-14 0 -22 2.33301 -24 7s-3 12 -3 22c0 10.667 1 18.167 3 22.5s10 6.5 24 6.5s22.333 -2.16699 25 -6.5s4 -11.833 4 -22.5c0 -10 -1.33301 -17.333 -4 -22s-11 -7 -25 -7zM207 2c-14 0 -22 2.33301 -24 7s-3 12 -3 22
c0 10.667 1 18.167 3 22.5s10 6.5 24 6.5s22.333 -2.16699 25 -6.5s4 -11.833 4 -22.5c0 -10 -1.33301 -17.333 -4 -22s-11 -7 -25 -7z" />
    <glyph glyph-name="oslash" unicode="&#xf8;" horiz-adv-x="359" 
d="M175 -4c-39.333 0 -69 5.33105 -89 15.998s-33.667 24.5 -41 41.5s-11 34.5 -11 52.5v258c0 18.667 3.66699 36.334 11 53.001s21.5 30.334 42.5 41.001s52.167 16 93.5 16c38.667 0 68.5 -5.16699 89.5 -15.5s35.667 -23.833 44 -40.5s12.5 -34.334 12.5 -53.001v-250
c0 -21.333 -4.16699 -41.166 -12.5 -59.499s-23.5 -32.833 -45.5 -43.5s-53.333 -16 -94 -16zM175 49.998c28 0 49.334 6.16699 64.001 18.5s22 30.833 22 55.5v229c0 22 -7.16699 39.167 -21.5 51.5s-33.833 18.5 -58.5 18.5s-44.334 -6 -59.001 -18s-22 -29.333 -22 -52
v-235c0 -22 7 -38.833 21 -50.5s32 -17.5 54 -17.5zM38.001 -94.002l-19 3l310 663l21 -3z" />
    <glyph glyph-name="ugrave" unicode="&#xf9;" 
d="M167 0c-34 0 -59.332 4.99902 -75.999 14.999s-27.834 22.333 -33.501 37s-8.5 29.334 -8.5 44.001v374h66v-346c0 -25.333 7 -43.5 21 -54.5s33.667 -16.5 59 -16.5h81v417h66v-470h-175zM194.001 531.999l-107 96h62l88 -96h-43z" />
    <glyph glyph-name="uacute" unicode="&#xfa;" 
d="M167 0c-34 0 -59.332 4.99902 -75.999 14.999s-27.834 22.333 -33.501 37s-8.5 29.334 -8.5 44.001v374h66v-346c0 -25.333 7 -43.5 21 -54.5s33.667 -16.5 59 -16.5h81v417h66v-470h-175zM141.001 531.999l88 96h62l-107 -96h-43z" />
    <glyph glyph-name="ucircumflex" unicode="&#xfb;" 
d="M167 0c-34 0 -59.332 4.99902 -75.999 14.999s-27.834 22.333 -33.501 37s-8.5 29.334 -8.5 44.001v374h66v-346c0 -25.333 7 -43.5 21 -54.5s33.667 -16.5 59 -16.5h81v417h66v-470h-175zM81.001 531.999l84 92h63l84 -92h-47l-68 59l-69 -59h-47z" />
    <glyph glyph-name="udieresis" unicode="&#xfc;" 
d="M167 0c-34 0 -59.332 4.99902 -75.999 14.999s-27.834 22.333 -33.501 37s-8.5 29.334 -8.5 44.001v374h66v-346c0 -25.333 7 -43.5 21 -54.5s33.667 -16.5 59 -16.5h81v417h66v-470h-175zM249.001 527.999c-13.333 0 -21 2.33301 -23 7s-3 11.667 -3 21
c0 10.667 1 18.167 3 22.5s9.66699 6.5 23 6.5c14.667 0 23.167 -2.16699 25.5 -6.5s3.5 -11.833 3.5 -22.5c0 -9.33301 -1.16699 -16.333 -3.5 -21s-10.833 -7 -25.5 -7zM143.001 527.999c-13.333 0 -21.166 2.33301 -23.499 7s-3.5 11.667 -3.5 21
c0 10.667 1.16699 18.167 3.5 22.5s10.166 6.5 23.499 6.5c14.667 0 23.167 -2.16699 25.5 -6.5s3.5 -11.833 3.5 -22.5c0 -9.33301 -1.33301 -16.333 -4 -21s-11 -7 -25 -7z" />
    <glyph glyph-name="yacute" unicode="&#xfd;" horiz-adv-x="338" 
d="M-10 -170l8 42h40c22.667 0 41 5.5 55 16.5s24.667 32.5 32 64.5l14 54l-131 463h64l95 -362l1 -15h-2l1 15l95 362h66l-151 -534c-10.667 -38 -24.667 -65.167 -42 -81.5s-44.333 -24.5 -81 -24.5h-64zM114 532l88 96h62l-107 -96h-43z" />
    <glyph glyph-name="thorn" unicode="&#xfe;" horiz-adv-x="355" 
d="M33 -157l0.000976562 771h64v-144h147c27.333 0 46.5 -3.5 57.5 -10.5s17.833 -20.167 20.5 -39.5s4 -47 4 -83v-238c0 -26 -3 -46.167 -9 -60.5s-16.833 -24.333 -32.5 -30s-38.834 -8.5 -69.501 -8.5h-116v-157h-66zM99.001 53l110.998 -0.00195312
c16.667 0 28.334 2.33301 35.001 7s10.834 12 12.501 22s2.5 23.333 2.5 40v227c0 18.667 -1 32.834 -3 42.501s-6.33301 16.334 -13 20.001s-16.667 5.5 -30 5.5h-115v-364z" />
    <glyph glyph-name="ydieresis" unicode="&#xff;" horiz-adv-x="338" 
d="M-10 -170l8 42h40c22.667 0 41 5.5 55 16.5s24.667 32.5 32 64.5l14 54l-131 463h64l95 -362l1 -15h-2l1 15l95 362h66l-151 -534c-10.667 -38 -24.667 -65.167 -42 -81.5s-44.333 -24.5 -81 -24.5h-64zM222 528c-13.333 0 -21 2.33301 -23 7s-3 11.667 -3 21
c0 10.667 1 18.167 3 22.5s9.66699 6.5 23 6.5c14.667 0 23.167 -2.16699 25.5 -6.5s3.5 -11.833 3.5 -22.5c0 -9.33301 -1.16699 -16.333 -3.5 -21s-10.833 -7 -25.5 -7zM116 528c-13.333 0 -21.166 2.33301 -23.499 7s-3.5 11.667 -3.5 21
c0 10.667 1.16699 18.167 3.5 22.5s10.166 6.5 23.499 6.5c14.667 0 23.167 -2.16699 25.5 -6.5s3.5 -11.833 3.5 -22.5c0 -9.33301 -1.33301 -16.333 -4 -21s-11 -7 -25 -7z" />
    <glyph glyph-name="Amacron" unicode="&#x100;" horiz-adv-x="381" 
d="M16 0l130 620h89l129 -620h-70l-30 146l13 -12h-176l11 12l-28 -146h-68zM114 180l-7 8h165l-9 -8l-64 352l-2 10h-14l-2 -10zM76 687v42h228v-42h-228z" />
    <glyph glyph-name="amacron" unicode="&#x101;" 
d="M126 0c-24.667 0 -42.3311 3.6709 -52.998 11.0039s-17.334 20.166 -20.001 38.499s-4 44.5 -4 78.5v243c0 26 3 46.167 9 60.5s16.833 24.333 32.5 30s38.5 8.5 68.5 8.5h183v-470h-66v417h-111c-16.667 0 -28.5 -2.33301 -35.5 -7s-11.167 -11.834 -12.5 -21.501
s-2 -23.167 -2 -40.5v-227c0 -18.667 1 -32.834 3 -42.501s6.16699 -16.334 12.5 -20.001s16.166 -5.5 29.499 -5.5h87l-7 -53h-114zM89.0029 537.004v42h228v-42h-228z" />
    <glyph glyph-name="Abreve" unicode="&#x102;" horiz-adv-x="381" 
d="M16 0l130 620h89l129 -620h-70l-30 146l13 -12h-176l11 12l-28 -146h-68zM114 180l-7 8h165l-9 -8l-64 352l-2 10h-14l-2 -10zM187 675c-26 0 -46.5 4.83203 -61.5 14.499s-25.5 21.834 -31.5 36.501s-9 29.667 -9 45h43c0 -15.333 4.5 -29.5 13.5 -42.5
s24.167 -19.5 45.5 -19.5c24 0 40.5 6.5 49.5 19.5s13.833 27.167 14.5 42.5h42c0 -28 -8.16699 -51 -24.5 -69s-43.5 -27 -81.5 -27z" />
    <glyph glyph-name="abreve" unicode="&#x103;" 
d="M126 0c-24.667 0 -42.3311 3.6709 -52.998 11.0039s-17.334 20.166 -20.001 38.499s-4 44.5 -4 78.5v243c0 26 3 46.167 9 60.5s16.833 24.333 32.5 30s38.5 8.5 68.5 8.5h183v-470h-66v417h-111c-16.667 0 -28.5 -2.33301 -35.5 -7s-11.167 -11.834 -12.5 -21.501
s-2 -23.167 -2 -40.5v-227c0 -18.667 1 -32.834 3 -42.501s6.16699 -16.334 12.5 -20.001s16.166 -5.5 29.499 -5.5h87l-7 -53h-114zM200.003 525.004c-26 0 -46.5 4.83105 -61.5 14.498s-25.5 21.834 -31.5 36.501s-9 29.667 -9 45h43c0 -16.667 4.5 -31.167 13.5 -43.5
s24.167 -18.5 45.5 -18.5c24 0 40.667 6 50 18s14 26.667 14 44h42c0 -27.333 -8.16699 -50.166 -24.5 -68.499s-43.5 -27.5 -81.5 -27.5z" />
    <glyph glyph-name="Aogonek" unicode="&#x104;" horiz-adv-x="381" 
d="M16 0l130 620h89l129 -620h-70l-30 146l13 -12h-176l11 12l-28 -146h-68zM114 180l-7 8h165l-9 -8l-64 352l-2 10h-14l-2 -10zM308 -172c-22.667 0 -41.499 7.16895 -56.499 21.502s-22.5 33.833 -22.5 58.5c0 17.333 7.16699 35.666 21.5 54.999
s38.166 34.333 71.499 45l37 -4c-23.333 -9.33301 -42.5 -21.333 -57.5 -36s-22.5 -32 -22.5 -52c0 -15.333 4.66699 -28 14 -38s21 -15 35 -15c10 0 18.833 1.33301 26.5 4s15.5 7.66699 23.5 15l9 -30c-13.333 -8.66699 -26.333 -14.834 -39 -18.501s-26 -5.5 -40 -5.5z
" />
    <glyph glyph-name="aogonek" unicode="&#x105;" 
d="M126 0c-24.667 0 -42.3311 3.6709 -52.998 11.0039s-17.334 20.166 -20.001 38.499s-4 44.5 -4 78.5v243c0 26 3 46.167 9 60.5s16.833 24.333 32.5 30s38.5 8.5 68.5 8.5h183v-470h-66v417h-111c-16.667 0 -28.5 -2.33301 -35.5 -7s-11.167 -11.834 -12.5 -21.501
s-2 -23.167 -2 -40.5v-227c0 -18.667 1 -32.834 3 -42.501s6.16699 -16.334 12.5 -20.001s16.166 -5.5 29.499 -5.5h87l-7 -53h-114zM287.003 -169.996c-22.667 0 -41.499 7.16895 -56.499 21.502s-22.5 33.833 -22.5 58.5c0 17.333 7.16699 35.666 21.5 54.999
s38.166 34.333 71.499 45l37 -4c-23.333 -9.33301 -42.5 -21.333 -57.5 -36s-22.5 -32 -22.5 -52c0 -15.333 4.66699 -28 14 -38s21 -15 35 -15c10 0 18.833 1.33301 26.5 4s15.5 7.66699 23.5 15l9 -30c-13.333 -8.66699 -26.333 -14.834 -39 -18.501s-26 -5.5 -40 -5.5z
" />
    <glyph glyph-name="Cacute" unicode="&#x106;" horiz-adv-x="373" 
d="M189 -7c-48 0 -84.167 9.16602 -108.5 27.499s-36.5 44.833 -36.5 79.5v412c0 39.333 11.167 68.333 33.5 87s58.5 28 108.5 28s87.167 -9.16699 111.5 -27.5s36.5 -47.833 36.5 -88.5v-132l-67 -9v125c0 24 -5.33301 42.833 -16 56.5s-31.667 20.5 -63 20.5
c-30.667 0 -51 -7 -61 -21s-15 -32.333 -15 -55v-380c0 -19.333 5.83301 -35.333 17.5 -48s31.167 -19 58.5 -19c28.667 0 49 6.33301 61 19s18 28.667 18 48v119l67 9v-143c0 -35.333 -12.5 -62.166 -37.5 -80.499s-60.833 -27.5 -107.5 -27.5zM130 681.999l94 90h62
l-113 -90h-43z" />
    <glyph glyph-name="cacute" unicode="&#x107;" horiz-adv-x="379" 
d="M186 -4c-39.333 0 -68.999 5.33105 -88.999 15.998s-33.667 24.5 -41 41.5s-11 34.5 -11 52.5v259c0 18.667 3.66699 36.334 11 53.001s21.5 30.334 42.5 41.001s52.167 16 93.5 16c38.667 0 68.5 -5.16699 89.5 -15.5s35.667 -23.833 44 -40.5
s12.5 -34.334 12.5 -53.001v-70l-66 -8v66c0 22 -7 39.167 -21 51.5s-33.667 18.5 -59 18.5s-45.166 -6 -59.499 -18s-21.5 -29.333 -21.5 -52v-236c0 -22 7 -38.833 21 -50.5s32 -17.5 54 -17.5c28 0 49.333 6.16699 64 18.5s22 30.833 22 55.5v58l66 6v-73
c0 -21.333 -4.33301 -41.166 -13 -59.499s-23.834 -32.833 -45.501 -43.5s-52.834 -16 -93.501 -16zM133.001 531.998l88 96h62l-107 -96h-43z" />
    <glyph glyph-name="Ccircumflex" unicode="&#x108;" horiz-adv-x="373" 
d="M189 -7c-48 0 -84.167 9.16602 -108.5 27.499s-36.5 44.833 -36.5 79.5v412c0 39.333 11.167 68.333 33.5 87s58.5 28 108.5 28s87.167 -9.16699 111.5 -27.5s36.5 -47.833 36.5 -88.5v-132l-67 -9v125c0 24 -5.33301 42.833 -16 56.5s-31.667 20.5 -63 20.5
c-30.667 0 -51 -7 -61 -21s-15 -32.333 -15 -55v-380c0 -19.333 5.83301 -35.333 17.5 -48s31.167 -19 58.5 -19c28.667 0 49 6.33301 61 19s18 28.667 18 48v119l67 9v-143c0 -35.333 -12.5 -62.166 -37.5 -80.499s-60.833 -27.5 -107.5 -27.5zM71 681.999l84 92h63l84 -92
h-47l-68 59l-69 -59h-47z" />
    <glyph glyph-name="ccircumflex" unicode="&#x109;" horiz-adv-x="379" 
d="M186 -4c-39.333 0 -68.999 5.33105 -88.999 15.998s-33.667 24.5 -41 41.5s-11 34.5 -11 52.5v259c0 18.667 3.66699 36.334 11 53.001s21.5 30.334 42.5 41.001s52.167 16 93.5 16c38.667 0 68.5 -5.16699 89.5 -15.5s35.667 -23.833 44 -40.5
s12.5 -34.334 12.5 -53.001v-70l-66 -8v66c0 22 -7 39.167 -21 51.5s-33.667 18.5 -59 18.5s-45.166 -6 -59.499 -18s-21.5 -29.333 -21.5 -52v-236c0 -22 7 -38.833 21 -50.5s32 -17.5 54 -17.5c28 0 49.333 6.16699 64 18.5s22 30.833 22 55.5v58l66 6v-73
c0 -21.333 -4.33301 -41.166 -13 -59.499s-23.834 -32.833 -45.501 -43.5s-52.834 -16 -93.501 -16zM74.001 531.998l84 92h63l84 -92h-47l-68 59l-69 -59h-47z" />
    <glyph glyph-name="Cdotaccent" unicode="&#x10a;" horiz-adv-x="373" 
d="M189 -7c-48 0 -84.167 9.16602 -108.5 27.499s-36.5 44.833 -36.5 79.5v412c0 39.333 11.167 68.333 33.5 87s58.5 28 108.5 28s87.167 -9.16699 111.5 -27.5s36.5 -47.833 36.5 -88.5v-132l-67 -9v125c0 24 -5.33301 42.833 -16 56.5s-31.667 20.5 -63 20.5
c-30.667 0 -51 -7 -61 -21s-15 -32.333 -15 -55v-380c0 -19.333 5.83301 -35.333 17.5 -48s31.167 -19 58.5 -19c28.667 0 49 6.33301 61 19s18 28.667 18 48v119l67 9v-143c0 -35.333 -12.5 -62.166 -37.5 -80.499s-60.833 -27.5 -107.5 -27.5zM185 678.999
c-13.333 0 -21.166 2.33301 -23.499 7s-3.5 11.667 -3.5 21c0 11.333 1.16699 19.166 3.5 23.499s10.166 6.5 23.499 6.5c14.667 0 23.167 -2.16699 25.5 -6.5s3.5 -12.166 3.5 -23.499c0 -9.33301 -1.33301 -16.333 -4 -21s-11 -7 -25 -7z" />
    <glyph glyph-name="cdotaccent" unicode="&#x10b;" horiz-adv-x="379" 
d="M186 -4c-39.333 0 -68.999 5.33105 -88.999 15.998s-33.667 24.5 -41 41.5s-11 34.5 -11 52.5v259c0 18.667 3.66699 36.334 11 53.001s21.5 30.334 42.5 41.001s52.167 16 93.5 16c38.667 0 68.5 -5.16699 89.5 -15.5s35.667 -23.833 44 -40.5
s12.5 -34.334 12.5 -53.001v-70l-66 -8v66c0 22 -7 39.167 -21 51.5s-33.667 18.5 -59 18.5s-45.166 -6 -59.499 -18s-21.5 -29.333 -21.5 -52v-236c0 -22 7 -38.833 21 -50.5s32 -17.5 54 -17.5c28 0 49.333 6.16699 64 18.5s22 30.833 22 55.5v58l66 6v-73
c0 -21.333 -4.33301 -41.166 -13 -59.499s-23.834 -32.833 -45.501 -43.5s-52.834 -16 -93.501 -16zM188.001 528.998c-13.333 0 -21.166 2.33301 -23.499 7s-3.5 11.667 -3.5 21c0 11.333 1.16699 19.166 3.5 23.499s10.166 6.5 23.499 6.5
c14.667 0 23.167 -2.16699 25.5 -6.5s3.5 -12.166 3.5 -23.499c0 -9.33301 -1.33301 -16.333 -4 -21s-11 -7 -25 -7z" />
    <glyph glyph-name="Ccaron" unicode="&#x10c;" horiz-adv-x="373" 
d="M70 774h48l69 -60l68 60h47l-85 -92h-62zM189 -7c-48 0 -84.167 9.16602 -108.5 27.499s-36.5 44.833 -36.5 79.5v412c0 39.333 11.167 68.333 33.5 87s58.5 28 108.5 28s87.167 -9.16699 111.5 -27.5s36.5 -47.833 36.5 -88.5v-132l-67 -9v125
c0 24 -5.33301 42.833 -16 56.5s-31.667 20.5 -63 20.5c-30.667 0 -51 -7 -61 -21s-15 -32.333 -15 -55v-380c0 -19.333 5.83301 -35.333 17.5 -48s31.167 -19 58.5 -19c28.667 0 49 6.33301 61 19s18 28.667 18 48v119l67 9v-143c0 -35.333 -12.5 -62.166 -37.5 -80.499
s-60.833 -27.5 -107.5 -27.5z" />
    <glyph glyph-name="ccaron" unicode="&#x10d;" horiz-adv-x="379" 
d="M73 624h48l69 -60l68 60h47l-85 -92h-62zM186 -4c-39.333 0 -68.999 5.33105 -88.999 15.998s-33.667 24.5 -41 41.5s-11 34.5 -11 52.5v259c0 18.667 3.66699 36.334 11 53.001s21.5 30.334 42.5 41.001s52.167 16 93.5 16c38.667 0 68.5 -5.16699 89.5 -15.5
s35.667 -23.833 44 -40.5s12.5 -34.334 12.5 -53.001v-70l-66 -8v66c0 22 -7 39.167 -21 51.5s-33.667 18.5 -59 18.5s-45.166 -6 -59.499 -18s-21.5 -29.333 -21.5 -52v-236c0 -22 7 -38.833 21 -50.5s32 -17.5 54 -17.5c28 0 49.333 6.16699 64 18.5s22 30.833 22 55.5v58
l66 6v-73c0 -21.333 -4.33301 -41.166 -13 -59.499s-23.834 -32.833 -45.501 -43.5s-52.834 -16 -93.501 -16z" />
    <glyph glyph-name="Dcaron" unicode="&#x10e;" horiz-adv-x="387" 
d="M79 774h47l69 -60l68 60h47l-84 -92h-63zM52 620h209c31.333 0 52.833 -7.83301 64.5 -23.5s17.5 -39.167 17.5 -70.5v-431c0 -34 -5.33301 -58.333 -16 -73s-34 -22 -70 -22h-205v620zM216 53c24 0 40 4.50098 48 13.501s12 25.833 12 50.5v387
c0 21.333 -4.5 37.166 -13.5 47.499s-21.833 15.5 -38.5 15.5h-105v-514h97z" />
    <glyph glyph-name="dcaron" unicode="&#x10f;" horiz-adv-x="405" 
d="M131 0c-22.667 0 -39.833 2.33203 -51.5 6.99902s-19.667 14.834 -24 30.501s-6.5 39.5 -6.5 71.5v266c0 24.667 3.16699 44 9.5 58s17 23.667 32 29s36.167 8 63.5 8h122v159h66v-629h-211zM276.001 52.999v364.001h-109c-21.333 0 -35.333 -3.33301 -42 -10
s-10 -20.334 -10 -41.001v-258c0 -24 3.33301 -39.167 10 -45.5s18.667 -9.5 36 -9.5h115zM381.001 503l23 144h43l-37 -144h-29z" />
    <glyph glyph-name="Dcroat" unicode="&#x110;" horiz-adv-x="387" 
d="M-7 189v54h166v-54h-166zM52 620h209c31.333 0 52.833 -7.83301 64.5 -23.5s17.5 -39.167 17.5 -70.5v-431c0 -34 -5.33301 -58.333 -16 -73s-34 -22 -70 -22h-205v620zM216 53c24 0 40 4.50098 48 13.501s12 25.833 12 50.5v387c0 21.333 -4.5 37.166 -13.5 47.499
s-21.833 15.5 -38.5 15.5h-105v-514h97z" />
    <glyph glyph-name="dcroat" unicode="&#x111;" 
d="M131 0c-22.667 0 -39.833 2.33203 -51.5 6.99902s-19.667 14.834 -24 30.501s-6.5 39.5 -6.5 71.5v266c0 24.667 3.16699 44 9.5 58s17 23.667 32 29s36.167 8 63.5 8h122v159h66v-629h-211zM276.001 52.999v364.001h-109c-21.333 0 -35.333 -3.33301 -42 -10
s-10 -20.334 -10 -41.001v-258c0 -24 3.33301 -39.167 10 -45.5s18.667 -9.5 36 -9.5h115zM136.001 523v34h243v-34h-243z" />
    <glyph glyph-name="Emacron" unicode="&#x112;" horiz-adv-x="364" 
d="M52 620h285v-53h-217v-194h199l-9 -53h-190v-267h217v-53h-285v620zM69 687v42h228v-42h-228z" />
    <glyph glyph-name="emacron" unicode="&#x113;" horiz-adv-x="383" 
d="M186 -4c-39.333 0 -68.999 5.33105 -88.999 15.998s-33.667 24.5 -41 41.5s-11 34.5 -11 52.5v259c0 18.667 3.66699 36.334 11 53.001s21.5 30.334 42.5 41.001s52.167 16 93.5 16c38.667 0 68.5 -5.16699 89.5 -15.5s35.667 -23.833 44 -40.5
s12.5 -34.334 12.5 -53.001v-108l-66 -4v100c0 22 -7 39.167 -21 51.5s-33.667 18.5 -59 18.5s-45.166 -6 -59.499 -18s-21.5 -29.333 -21.5 -52v-236c0 -22 7 -38.833 21 -50.5s32 -17.5 54 -17.5c28 0 49.333 6.16699 64 18.5s22 30.833 22 55.5v45l66 6v-60
c0 -21.333 -4.33301 -41.166 -13 -59.499s-23.834 -32.833 -45.501 -43.5s-52.834 -16 -93.501 -16zM55.001 225.998v37h283v-37h-283zM78.001 536.998v42h228v-42h-228z" />
    <glyph glyph-name="Ebreve" unicode="&#x114;" horiz-adv-x="364" 
d="M52 620h285v-53h-217v-194h199l-9 -53h-190v-267h217v-53h-285v620zM181 675c-26 0 -46.5 4.83203 -61.5 14.499s-25.5 21.834 -31.5 36.501s-9 29.667 -9 45h43c0 -15.333 4.5 -29.5 13.5 -42.5s24.167 -19.5 45.5 -19.5c24 0 40.5 6.5 49.5 19.5
s13.833 27.167 14.5 42.5h42c0 -28 -8.16699 -51 -24.5 -69s-43.5 -27 -81.5 -27z" />
    <glyph glyph-name="ebreve" unicode="&#x115;" horiz-adv-x="383" 
d="M186 -4c-39.333 0 -68.999 5.33105 -88.999 15.998s-33.667 24.5 -41 41.5s-11 34.5 -11 52.5v259c0 18.667 3.66699 36.334 11 53.001s21.5 30.334 42.5 41.001s52.167 16 93.5 16c38.667 0 68.5 -5.16699 89.5 -15.5s35.667 -23.833 44 -40.5
s12.5 -34.334 12.5 -53.001v-108l-66 -4v100c0 22 -7 39.167 -21 51.5s-33.667 18.5 -59 18.5s-45.166 -6 -59.499 -18s-21.5 -29.333 -21.5 -52v-236c0 -22 7 -38.833 21 -50.5s32 -17.5 54 -17.5c28 0 49.333 6.16699 64 18.5s22 30.833 22 55.5v45l66 6v-60
c0 -21.333 -4.33301 -41.166 -13 -59.499s-23.834 -32.833 -45.501 -43.5s-52.834 -16 -93.501 -16zM55.001 225.998v37h283v-37h-283zM189.001 524.998c-26 0 -46.5 4.83105 -61.5 14.498s-25.5 21.834 -31.5 36.501s-9 29.667 -9 45h43c0 -16.667 4.5 -31.167 13.5 -43.5
s24.167 -18.5 45.5 -18.5c24 0 40.667 6 50 18s14 26.667 14 44h42c0 -27.333 -8.16699 -50.166 -24.5 -68.499s-43.5 -27.5 -81.5 -27.5z" />
    <glyph glyph-name="Edotaccent" unicode="&#x116;" horiz-adv-x="364" 
d="M52 620h285v-53h-217v-194h199l-9 -53h-190v-267h217v-53h-285v620zM182 679c-13.333 0 -21.166 2.33301 -23.499 7s-3.5 11.667 -3.5 21c0 11.333 1.16699 19.166 3.5 23.499s10.166 6.5 23.499 6.5c14.667 0 23.167 -2.16699 25.5 -6.5s3.5 -12.166 3.5 -23.499
c0 -9.33301 -1.33301 -16.333 -4 -21s-11 -7 -25 -7z" />
    <glyph glyph-name="edotaccent" unicode="&#x117;" horiz-adv-x="383" 
d="M186 -4c-39.333 0 -68.999 5.33105 -88.999 15.998s-33.667 24.5 -41 41.5s-11 34.5 -11 52.5v259c0 18.667 3.66699 36.334 11 53.001s21.5 30.334 42.5 41.001s52.167 16 93.5 16c38.667 0 68.5 -5.16699 89.5 -15.5s35.667 -23.833 44 -40.5
s12.5 -34.334 12.5 -53.001v-108l-66 -4v100c0 22 -7 39.167 -21 51.5s-33.667 18.5 -59 18.5s-45.166 -6 -59.499 -18s-21.5 -29.333 -21.5 -52v-236c0 -22 7 -38.833 21 -50.5s32 -17.5 54 -17.5c28 0 49.333 6.16699 64 18.5s22 30.833 22 55.5v45l66 6v-60
c0 -21.333 -4.33301 -41.166 -13 -59.499s-23.834 -32.833 -45.501 -43.5s-52.834 -16 -93.501 -16zM55.001 225.998v37h283v-37h-283zM190.001 528.998c-13.333 0 -21.166 2.33301 -23.499 7s-3.5 11.667 -3.5 21c0 11.333 1.16699 19.166 3.5 23.499
s10.166 6.5 23.499 6.5c14.667 0 23.167 -2.16699 25.5 -6.5s3.5 -12.166 3.5 -23.499c0 -9.33301 -1.33301 -16.333 -4 -21s-11 -7 -25 -7z" />
    <glyph glyph-name="Eogonek" unicode="&#x118;" horiz-adv-x="364" 
d="M52 620h285v-53h-217v-194h199l-9 -53h-190v-267h217v-53h-285v620zM283 -171c-22.667 0 -41.499 7.16895 -56.499 21.502s-22.5 33.833 -22.5 58.5c0 17.333 7.16699 35.666 21.5 54.999s38.166 34.333 71.499 45l37 -4c-23.333 -9.33301 -42.5 -21.333 -57.5 -36
s-22.5 -32 -22.5 -52c0 -15.333 4.66699 -28 14 -38s21 -15 35 -15c10 0 18.833 1.33301 26.5 4s15.5 7.66699 23.5 15l9 -30c-13.333 -8.66699 -26.333 -14.834 -39 -18.501s-26 -5.5 -40 -5.5z" />
    <glyph glyph-name="eogonek" unicode="&#x119;" horiz-adv-x="383" 
d="M186 -4c-39.333 0 -68.999 5.33105 -88.999 15.998s-33.667 24.5 -41 41.5s-11 34.5 -11 52.5v259c0 18.667 3.66699 36.334 11 53.001s21.5 30.334 42.5 41.001s52.167 16 93.5 16c38.667 0 68.5 -5.16699 89.5 -15.5s35.667 -23.833 44 -40.5
s12.5 -34.334 12.5 -53.001v-108l-66 -4v100c0 22 -7 39.167 -21 51.5s-33.667 18.5 -59 18.5s-45.166 -6 -59.499 -18s-21.5 -29.333 -21.5 -52v-236c0 -22 7 -38.833 21 -50.5s32 -17.5 54 -17.5c28 0 49.333 6.16699 64 18.5s22 30.833 22 55.5v45l66 6v-60
c0 -21.333 -4.33301 -41.166 -13 -59.499s-23.834 -32.833 -45.501 -43.5s-52.834 -16 -93.501 -16zM55.001 225.998v37h283v-37h-283zM219.001 -169.002c-22.667 0 -41.499 7.16895 -56.499 21.502s-22.5 33.833 -22.5 58.5c0 17.333 7.16699 35.666 21.5 54.999
s38.166 34.333 71.499 45l37 -4c-23.333 -9.33301 -42.5 -21.333 -57.5 -36s-22.5 -32 -22.5 -52c0 -15.333 4.66699 -28 14 -38s21 -15 35 -15c10 0 18.833 1.33301 26.5 4s15.5 7.66699 23.5 15l9 -30c-13.333 -8.66699 -26.333 -14.834 -39 -18.501s-26 -5.5 -40 -5.5z
" />
    <glyph glyph-name="Ecaron" unicode="&#x11a;" horiz-adv-x="364" 
d="M67 774h48l69 -60l68 60h47l-85 -92h-62zM52 620h285v-53h-217v-194h199l-9 -53h-190v-267h217v-53h-285v620z" />
    <glyph glyph-name="ecaron" unicode="&#x11b;" horiz-adv-x="383" 
d="M75 624h48l69 -60l68 60h47l-85 -92h-62zM186 -4c-39.333 0 -68.999 5.33105 -88.999 15.998s-33.667 24.5 -41 41.5s-11 34.5 -11 52.5v259c0 18.667 3.66699 36.334 11 53.001s21.5 30.334 42.5 41.001s52.167 16 93.5 16c38.667 0 68.5 -5.16699 89.5 -15.5
s35.667 -23.833 44 -40.5s12.5 -34.334 12.5 -53.001v-108l-66 -4v100c0 22 -7 39.167 -21 51.5s-33.667 18.5 -59 18.5s-45.166 -6 -59.499 -18s-21.5 -29.333 -21.5 -52v-236c0 -22 7 -38.833 21 -50.5s32 -17.5 54 -17.5c28 0 49.333 6.16699 64 18.5s22 30.833 22 55.5
v45l66 6v-60c0 -21.333 -4.33301 -41.166 -13 -59.499s-23.834 -32.833 -45.501 -43.5s-52.834 -16 -93.501 -16zM55.001 225.998v37h283v-37h-283z" />
    <glyph glyph-name="Gcircumflex" unicode="&#x11c;" horiz-adv-x="377" 
d="M193 -4c-32 0 -59.1689 3 -81.502 9s-39.166 16.167 -50.499 30.5s-17 33.833 -17 58.5v431c0 38.667 12.667 65 38 79s62 21 110 21c46.667 0 82.5 -7 107.5 -21s37.5 -40.667 37.5 -80v-102l-68 -5v94c0 24 -6.33301 39.833 -19 47.5s-31.667 11.5 -57 11.5
s-45.333 -3.66699 -60 -11s-22 -23 -22 -47v-408c0 -15.333 3.5 -26.666 10.5 -33.999s16.667 -12.333 29 -15s26.833 -4 43.5 -4c15.333 0 28.833 1.33301 40.5 4s20.667 7.66699 27 15s9.5 18.666 9.5 33.999v172h-97l6 57h157v-239c0 -24.667 -5.66699 -44.167 -17 -58.5
s-27.666 -24.5 -48.999 -30.5s-47.333 -9 -78 -9zM71.998 682l84 92h63l84 -92h-47l-68 59l-69 -59h-47z" />
    <glyph glyph-name="gcircumflex" unicode="&#x11d;" 
d="M102 -174l-8.99805 53.0039h138c18.667 0 30.834 4.5 36.501 13.5s8.5 23.833 8.5 44.5v480h-111c-16.667 0 -28.5 -2.33301 -35.5 -7s-11.167 -11.834 -12.5 -21.501s-2 -23.167 -2 -40.5v-227c0 -18.667 1 -32.834 3 -42.501s6.16699 -16.334 12.5 -20.001
s16.166 -5.5 29.499 -5.5h87l-7 -53h-114c-24.667 0 -42.334 3.66699 -53.001 11s-17.334 20.166 -20.001 38.499s-4 44.5 -4 78.5v243c0 26 3 46.167 9 60.5s16.833 24.333 32.5 30s38.5 8.5 68.5 8.5h183v-549c0 -32.667 -6.33301 -56.667 -19 -72s-35 -23 -67 -23h-154z
M82.002 532.004l84 92h63l84 -92h-47l-68 59l-69 -59h-47z" />
    <glyph glyph-name="Gbreve" unicode="&#x11e;" horiz-adv-x="377" 
d="M193 -4c-32 0 -59.1689 3 -81.502 9s-39.166 16.167 -50.499 30.5s-17 33.833 -17 58.5v431c0 38.667 12.667 65 38 79s62 21 110 21c46.667 0 82.5 -7 107.5 -21s37.5 -40.667 37.5 -80v-102l-68 -5v94c0 24 -6.33301 39.833 -19 47.5s-31.667 11.5 -57 11.5
s-45.333 -3.66699 -60 -11s-22 -23 -22 -47v-408c0 -15.333 3.5 -26.666 10.5 -33.999s16.667 -12.333 29 -15s26.833 -4 43.5 -4c15.333 0 28.833 1.33301 40.5 4s20.667 7.66699 27 15s9.5 18.666 9.5 33.999v172h-97l6 57h157v-239c0 -24.667 -5.66699 -44.167 -17 -58.5
s-27.666 -24.5 -48.999 -30.5s-47.333 -9 -78 -9zM185.998 675c-26 0 -46.5 4.83203 -61.5 14.499s-25.5 21.834 -31.5 36.501s-9 29.667 -9 45h43c0 -15.333 4.5 -29.5 13.5 -42.5s24.167 -19.5 45.5 -19.5c24 0 40.5 6.5 49.5 19.5s13.833 27.167 14.5 42.5h42
c0 -28 -8.16699 -51 -24.5 -69s-43.5 -27 -81.5 -27z" />
    <glyph glyph-name="gbreve" unicode="&#x11f;" 
d="M102 -174l-8.99805 53.0039h138c18.667 0 30.834 4.5 36.501 13.5s8.5 23.833 8.5 44.5v480h-111c-16.667 0 -28.5 -2.33301 -35.5 -7s-11.167 -11.834 -12.5 -21.501s-2 -23.167 -2 -40.5v-227c0 -18.667 1 -32.834 3 -42.501s6.16699 -16.334 12.5 -20.001
s16.166 -5.5 29.499 -5.5h87l-7 -53h-114c-24.667 0 -42.334 3.66699 -53.001 11s-17.334 20.166 -20.001 38.499s-4 44.5 -4 78.5v243c0 26 3 46.167 9 60.5s16.833 24.333 32.5 30s38.5 8.5 68.5 8.5h183v-549c0 -32.667 -6.33301 -56.667 -19 -72s-35 -23 -67 -23h-154z
M196.002 525.004c-26 0 -46.5 4.83105 -61.5 14.498s-25.5 21.834 -31.5 36.501s-9 29.667 -9 45h43c0 -16.667 4.5 -31.167 13.5 -43.5s24.167 -18.5 45.5 -18.5c24 0 40.667 6 50 18s14 26.667 14 44h42c0 -27.333 -8.16699 -50.166 -24.5 -68.499
s-43.5 -27.5 -81.5 -27.5z" />
    <glyph glyph-name="Gdotaccent" unicode="&#x120;" horiz-adv-x="377" 
d="M193 -4c-32 0 -59.1689 3 -81.502 9s-39.166 16.167 -50.499 30.5s-17 33.833 -17 58.5v431c0 38.667 12.667 65 38 79s62 21 110 21c46.667 0 82.5 -7 107.5 -21s37.5 -40.667 37.5 -80v-102l-68 -5v94c0 24 -6.33301 39.833 -19 47.5s-31.667 11.5 -57 11.5
s-45.333 -3.66699 -60 -11s-22 -23 -22 -47v-408c0 -15.333 3.5 -26.666 10.5 -33.999s16.667 -12.333 29 -15s26.833 -4 43.5 -4c15.333 0 28.833 1.33301 40.5 4s20.667 7.66699 27 15s9.5 18.666 9.5 33.999v172h-97l6 57h157v-239c0 -24.667 -5.66699 -44.167 -17 -58.5
s-27.666 -24.5 -48.999 -30.5s-47.333 -9 -78 -9zM185.998 679c-13.333 0 -21.166 2.33301 -23.499 7s-3.5 11.667 -3.5 21c0 11.333 1.16699 19.166 3.5 23.499s10.166 6.5 23.499 6.5c14.667 0 23.167 -2.16699 25.5 -6.5s3.5 -12.166 3.5 -23.499
c0 -9.33301 -1.33301 -16.333 -4 -21s-11 -7 -25 -7z" />
    <glyph glyph-name="gdotaccent" unicode="&#x121;" 
d="M102 -174l-8.99805 53.0039h138c18.667 0 30.834 4.5 36.501 13.5s8.5 23.833 8.5 44.5v480h-111c-16.667 0 -28.5 -2.33301 -35.5 -7s-11.167 -11.834 -12.5 -21.501s-2 -23.167 -2 -40.5v-227c0 -18.667 1 -32.834 3 -42.501s6.16699 -16.334 12.5 -20.001
s16.166 -5.5 29.499 -5.5h87l-7 -53h-114c-24.667 0 -42.334 3.66699 -53.001 11s-17.334 20.166 -20.001 38.499s-4 44.5 -4 78.5v243c0 26 3 46.167 9 60.5s16.833 24.333 32.5 30s38.5 8.5 68.5 8.5h183v-549c0 -32.667 -6.33301 -56.667 -19 -72s-35 -23 -67 -23h-154z
M196.002 529.004c-13.333 0 -21.166 2.33301 -23.499 7s-3.5 11.667 -3.5 21c0 11.333 1.16699 19.166 3.5 23.499s10.166 6.5 23.499 6.5c14.667 0 23.167 -2.16699 25.5 -6.5s3.5 -12.166 3.5 -23.499c0 -9.33301 -1.33301 -16.333 -4 -21s-11 -7 -25 -7z" />
    <glyph glyph-name="uni0122" unicode="&#x122;" horiz-adv-x="377" 
d="M193 -4c-32 0 -59.1689 3 -81.502 9s-39.166 16.167 -50.499 30.5s-17 33.833 -17 58.5v431c0 38.667 12.667 65 38 79s62 21 110 21c46.667 0 82.5 -7 107.5 -21s37.5 -40.667 37.5 -80v-102l-68 -5v94c0 24 -6.33301 39.833 -19 47.5s-31.667 11.5 -57 11.5
s-45.333 -3.66699 -60 -11s-22 -23 -22 -47v-408c0 -15.333 3.5 -26.666 10.5 -33.999s16.667 -12.333 29 -15s26.833 -4 43.5 -4c15.333 0 28.833 1.33301 40.5 4s20.667 7.66699 27 15s9.5 18.666 9.5 33.999v172h-97l6 57h157v-239c0 -24.667 -5.66699 -44.167 -17 -58.5
s-27.666 -24.5 -48.999 -30.5s-47.333 -9 -78 -9zM149.998 -168c10 16 18.166 31.002 24.499 45.002s9.5 27.667 9.5 41c-10 0 -16.167 1.66699 -18.5 5s-3.5 7.66602 -3.5 12.999c0 8 1.33301 13.667 4 17s11.334 5 26.001 5c12.667 0 20.167 -1.5 22.5 -4.5
s3.5 -8.5 3.5 -16.5c0 -11.333 -1.66699 -23.833 -5 -37.5s-7.83301 -26.334 -13.5 -38.001s-11.5 -21.5 -17.5 -29.5h-32z" />
    <glyph glyph-name="uni0123" unicode="&#x123;" 
d="M102 -174l-8.99805 53.0039h138c18.667 0 30.834 4.5 36.501 13.5s8.5 23.833 8.5 44.5v480h-111c-16.667 0 -28.5 -2.33301 -35.5 -7s-11.167 -11.834 -12.5 -21.501s-2 -23.167 -2 -40.5v-227c0 -18.667 1 -32.834 3 -42.501s6.16699 -16.334 12.5 -20.001
s16.166 -5.5 29.499 -5.5h87l-7 -53h-114c-24.667 0 -42.334 3.66699 -53.001 11s-17.334 20.166 -20.001 38.499s-4 44.5 -4 78.5v243c0 26 3 46.167 9 60.5s16.833 24.333 32.5 30s38.5 8.5 68.5 8.5h183v-549c0 -32.667 -6.33301 -56.667 -19 -72s-35 -23 -67 -23h-154z
M195.002 532.004c-10 0 -16.8301 1.49805 -20.4971 4.49805s-5.5 7.83301 -5.5 14.5c0 10.667 2 22.834 6 36.501s9.16699 26.834 15.5 39.501s12.5 22.667 18.5 30h33c-10.667 -16 -19.334 -30.833 -26.001 -44.5s-10.334 -27.5 -11.001 -41.5
c8.66699 0 14.167 -1.16699 16.5 -3.5s3.5 -5.5 3.5 -9.5c0 -9.33301 -1.83301 -16 -5.5 -20s-11.834 -6 -24.501 -6z" />
    <glyph glyph-name="Hcircumflex" unicode="&#x124;" 
d="M52 620h68v-247h156v247h67v-620h-67v320h-156v-320h-68v620zM82 682l84 92h63l84 -92h-47l-68 59l-69 -59h-47z" />
    <glyph glyph-name="hcircumflex" unicode="&#x125;" horiz-adv-x="395" 
d="M54 629l66 0.00292969v-207c10.667 16.667 24.5 29.5 41.5 38.5s39.167 13.5 66.5 13.5c33.333 0 58.5 -5.33301 75.5 -16s28.333 -23.834 34 -39.501s8.5 -30.834 8.5 -45.501v-373h-66v351c0 25.333 -7 43.666 -21 54.999s-33.667 17 -59 17
c-22 0 -39.167 -4.33301 -51.5 -13s-21.833 -20 -28.5 -34v-376h-66v629zM-30 692.003l84 92h63l84 -92h-47l-68 59l-69 -59h-47z" />
    <glyph glyph-name="Hbar" unicode="&#x126;" horiz-adv-x="388" 
d="M8 507v46h373v-46h-373zM71 620h67v-247h156v247h68v-620h-68v320h-156v-320h-67v620z" />
    <glyph glyph-name="hbar" unicode="&#x127;" horiz-adv-x="395" 
d="M12 528v26h186v-26h-186zM54 629l66 0.00292969v-207c10.667 16.667 24.5 29.5 41.5 38.5s39.167 13.5 66.5 13.5c33.333 0 58.5 -5.33301 75.5 -16s28.333 -23.834 34 -39.501s8.5 -30.834 8.5 -45.501v-373h-66v351c0 25.333 -7 43.666 -21 54.999s-33.667 17 -59 17
c-22 0 -39.167 -4.33301 -51.5 -13s-21.833 -20 -28.5 -34v-376h-66v629z" />
    <glyph glyph-name="Itilde" unicode="&#x128;" horiz-adv-x="172" 
d="M52 620h68v-620h-68v620zM-23 678c0 28.667 5.5 49.833 16.5 63.5s25.167 20.5 42.5 20.5c14.667 0 27 -3.33301 37 -10s19.5 -13.5 28.5 -20.5s18.5 -10.5 28.5 -10.5c12.667 0 21.167 4.33301 25.5 13s6.5 18 6.5 28h33c0 -30 -6.16699 -51.167 -18.5 -63.5
s-25.833 -18.5 -40.5 -18.5c-14 0 -26 3.66699 -36 11s-19.167 14.5 -27.5 21.5s-17.833 10.5 -28.5 10.5c-10 0 -17.833 -4 -23.5 -12s-8.5 -19 -8.5 -33h-35z" />
    <glyph glyph-name="itilde" unicode="&#x129;" horiz-adv-x="174" 
d="M54 470h66v-470h-66v470zM-22 528c0 28.667 5.5 49.833 16.5 63.5s25.167 20.5 42.5 20.5c14.667 0 27 -3.33301 37 -10s19.5 -13.5 28.5 -20.5s18.5 -10.5 28.5 -10.5c12.667 0 21.167 4.33301 25.5 13s6.5 18 6.5 28h33c0 -30 -6.16699 -51.167 -18.5 -63.5
s-25.833 -18.5 -40.5 -18.5c-14 0 -26 3.66699 -36 11s-19.167 14.5 -27.5 21.5s-17.833 10.5 -28.5 10.5c-10 0 -17.833 -4 -23.5 -12s-8.5 -19 -8.5 -33h-35z" />
    <glyph glyph-name="Imacron" unicode="&#x12a;" horiz-adv-x="172" 
d="M52 620h68v-620h-68v620zM-28 687v42h228v-42h-228z" />
    <glyph glyph-name="imacron" unicode="&#x12b;" horiz-adv-x="174" 
d="M54 470h66v-470h-66v470zM-27 537v42h228v-42h-228z" />
    <glyph glyph-name="Ibreve" unicode="&#x12c;" horiz-adv-x="172" 
d="M52 620h68v-620h-68v620zM84 675c-26 0 -46.5 4.83203 -61.5 14.499s-25.5 21.834 -31.5 36.501s-9 29.667 -9 45h43c0 -15.333 4.5 -29.5 13.5 -42.5s24.167 -19.5 45.5 -19.5c24 0 40.5 6.5 49.5 19.5s13.833 27.167 14.5 42.5h42c0 -28 -8.16699 -51 -24.5 -69
s-43.5 -27 -81.5 -27z" />
    <glyph glyph-name="ibreve" unicode="&#x12d;" horiz-adv-x="174" 
d="M54 470h66v-470h-66v470zM85 525c-26 0 -46.5 4.83105 -61.5 14.498s-25.5 21.834 -31.5 36.501s-9 29.667 -9 45h43c0 -16.667 4.5 -31.167 13.5 -43.5s24.167 -18.5 45.5 -18.5c24 0 40.667 6 50 18s14 26.667 14 44h42c0 -27.333 -8.16699 -50.166 -24.5 -68.499
s-43.5 -27.5 -81.5 -27.5z" />
    <glyph glyph-name="Iogonek" unicode="&#x12e;" horiz-adv-x="172" 
d="M52 620h68v-620h-68v620zM63 -167c-22.667 0 -41.499 7.16895 -56.499 21.502s-22.5 33.833 -22.5 58.5c0 17.333 7.16699 35.666 21.5 54.999s38.166 34.333 71.499 45l37 -4c-23.333 -9.33301 -42.5 -21.333 -57.5 -36s-22.5 -32 -22.5 -52
c0 -15.333 4.66699 -28 14 -38s21 -15 35 -15c10 0 18.833 1.33301 26.5 4s15.5 7.66699 23.5 15l9 -30c-13.333 -8.66699 -26.333 -14.834 -39 -18.501s-26 -5.5 -40 -5.5z" />
    <glyph glyph-name="iogonek" unicode="&#x12f;" horiz-adv-x="174" 
d="M54 470h66v-470h-66v470zM85 529c-13.333 0 -21.166 2.33301 -23.499 7s-3.5 11.667 -3.5 21c0 11.333 1.16699 19.166 3.5 23.499s10.166 6.5 23.499 6.5c14.667 0 23.167 -2.16699 25.5 -6.5s3.5 -12.166 3.5 -23.499c0 -9.33301 -1.33301 -16.333 -4 -21
s-11 -7 -25 -7zM42 -170c-22.667 0 -41.499 7.16895 -56.499 21.502s-22.5 33.833 -22.5 58.5c0 17.333 7.16699 35.666 21.5 54.999s38.166 34.333 71.499 45l37 -4c-23.333 -9.33301 -42.5 -21.333 -57.5 -36s-22.5 -32 -22.5 -52c0 -15.333 4.66699 -28 14 -38
s21 -15 35 -15c10 0 18.833 1.33301 26.5 4s15.5 7.66699 23.5 15l9 -30c-13.333 -8.66699 -26.333 -14.834 -39 -18.501s-26 -5.5 -40 -5.5z" />
    <glyph glyph-name="Idotaccent" unicode="&#x130;" horiz-adv-x="172" 
d="M52 620h68v-620h-68v620zM84 679c-13.333 0 -21.166 2.33301 -23.499 7s-3.5 11.667 -3.5 21c0 11.333 1.16699 19.166 3.5 23.499s10.166 6.5 23.499 6.5c14.667 0 23.167 -2.16699 25.5 -6.5s3.5 -12.166 3.5 -23.499c0 -9.33301 -1.33301 -16.333 -4 -21
s-11 -7 -25 -7z" />
    <glyph glyph-name="dotlessi" unicode="&#x131;" horiz-adv-x="174" 
d="M54 470h66v-470h-66v470z" />
    <glyph glyph-name="Jcircumflex" unicode="&#x134;" horiz-adv-x="204" 
d="M9 0l-10.002 52.999h51c12.667 0 21.667 1.66699 27 5s8.5 10 9.5 20s1.5 25.333 1.5 46v496h68v-516c0 -28 -1.66699 -49.667 -5 -65s-11.166 -25.666 -23.499 -30.999s-32.166 -8 -59.499 -8h-59zM5.99805 681.999l84 92h63l84 -92h-47l-68 59l-69 -59h-47z" />
    <glyph glyph-name="jcircumflex" unicode="&#x135;" horiz-adv-x="196" 
d="M-35 -174l-8 53h79c18 0 29.833 4.5 35.5 13.5s8.5 23.833 8.5 44.5v533h66v-549c0 -32.667 -6.16699 -56.667 -18.5 -72s-34.5 -23 -66.5 -23h-96zM-3 532l84 92h63l84 -92h-47l-68 59l-69 -59h-47z" />
    <glyph glyph-name="uni0136" unicode="&#x136;" horiz-adv-x="373" 
d="M305 -11l-183 345l173 292l51 -31l-154 -257l174 -318zM52 620h68v-620h-68v620zM151 -168c10 16 18.166 31.002 24.499 45.002s9.5 27.667 9.5 41c-10 0 -16.167 1.66699 -18.5 5s-3.5 7.66602 -3.5 12.999c0 8 1.33301 13.667 4 17s11.334 5 26.001 5
c12.667 0 20.167 -1.5 22.5 -4.5s3.5 -8.5 3.5 -16.5c0 -11.333 -1.66699 -23.833 -5 -37.5s-7.83301 -26.334 -13.5 -38.001s-11.5 -21.5 -17.5 -29.5h-32z" />
    <glyph glyph-name="uni0137" unicode="&#x137;" horiz-adv-x="358" 
d="M54 0v626h66v-626h-66zM287 0l-141 216h-54v50h54l126 216l62 -24l-129 -211l158 -247h-76zM159 -168c10 16 18.166 31.002 24.499 45.002s9.5 27.667 9.5 41c-10 0 -16.167 1.66699 -18.5 5s-3.5 7.66602 -3.5 12.999c0 8 1.33301 13.667 4 17s11.334 5 26.001 5
c12.667 0 20.167 -1.5 22.5 -4.5s3.5 -8.5 3.5 -16.5c0 -11.333 -1.66699 -23.833 -5 -37.5s-7.83301 -26.334 -13.5 -38.001s-11.5 -21.5 -17.5 -29.5h-32z" />
    <glyph glyph-name="kgreenlandic" unicode="&#x138;" horiz-adv-x="363" 
d="M36 0v544h66v-544h-66zM74 216v50h61v-50h-61zM269 0l-153 241l132 229h74l-135 -223l158 -247h-76z" />
    <glyph glyph-name="Lacute" unicode="&#x139;" horiz-adv-x="328" 
d="M52 620h68v-567h194v-53h-262v620zM60 682l94 90h62l-113 -90h-43z" />
    <glyph glyph-name="lacute" unicode="&#x13a;" horiz-adv-x="174" 
d="M54 626h66v-626h-66v626zM31 692l88 96h62l-107 -96h-43z" />
    <glyph glyph-name="uni013B" unicode="&#x13b;" horiz-adv-x="328" 
d="M52 620h68v-567h194v-53h-262v620zM141 -168c10 16 18.166 31.002 24.499 45.002s9.5 27.667 9.5 41c-10 0 -16.167 1.66699 -18.5 5s-3.5 7.66602 -3.5 12.999c0 8 1.33301 13.667 4 17s11.334 5 26.001 5c12.667 0 20.167 -1.5 22.5 -4.5s3.5 -8.5 3.5 -16.5
c0 -11.333 -1.66699 -23.833 -5 -37.5s-7.83301 -26.334 -13.5 -38.001s-11.5 -21.5 -17.5 -29.5h-32z" />
    <glyph glyph-name="uni013C" unicode="&#x13c;" horiz-adv-x="174" 
d="M54 626h66v-626h-66v626zM49 -168c10 16 18.166 31.002 24.499 45.002s9.5 27.667 9.5 41c-10 0 -16.167 1.66699 -18.5 5s-3.5 7.66602 -3.5 12.999c0 8 1.33301 13.667 4 17s11.334 5 26.001 5c12.667 0 20.167 -1.5 22.5 -4.5s3.5 -8.5 3.5 -16.5
c0 -11.333 -1.66699 -23.833 -5 -37.5s-7.83301 -26.334 -13.5 -38.001s-11.5 -21.5 -17.5 -29.5h-32z" />
    <glyph glyph-name="Lcaron" unicode="&#x13d;" horiz-adv-x="328" 
d="M52 620h68v-567h194v-53h-262v620zM206 503l23 144h43l-37 -144h-29z" />
    <glyph glyph-name="lcaron" unicode="&#x13e;" horiz-adv-x="174" 
d="M54 626h66v-626h-66v626zM174 503l23 144h43l-37 -144h-29z" />
    <glyph glyph-name="Ldot" unicode="&#x13f;" horiz-adv-x="314" 
d="M52 620h68v-567h194v-53h-262v620zM266 231c-14 0 -22 2.33301 -24 7s-3 12 -3 22c0 10.667 1 18.167 3 22.5s10 6.5 24 6.5s22.333 -2.16699 25 -6.5s4 -11.833 4 -22.5c0 -10 -1.33301 -17.333 -4 -22s-11 -7 -25 -7z" />
    <glyph glyph-name="ldot" unicode="&#x140;" horiz-adv-x="162" 
d="M54 626h66v-626h-66v626zM179 232c-14 0 -22 2.33301 -24 7s-3 12 -3 22c0 10.667 1 18.167 3 22.5s10 6.5 24 6.5s22.333 -2.16699 25 -6.5s4 -11.833 4 -22.5c0 -10 -1.33301 -17.333 -4 -22s-11 -7 -25 -7z" />
    <glyph glyph-name="Lslash" unicode="&#x141;" horiz-adv-x="348" 
d="M41 620h68v-567h195v-53h-263v620zM-3 200l-14 52l203 54l14 -52z" />
    <glyph glyph-name="lslash" unicode="&#x142;" horiz-adv-x="264" 
d="M87 626h66v-626h-66v626zM38 200l-14 52l203 54l14 -52z" />
    <glyph glyph-name="Nacute" unicode="&#x143;" horiz-adv-x="408" 
d="M52 0v620h68l166 -474l2 -5l1 -1v480h67v-620h-70l-164 448l-2 7h-1v-455h-67zM148 682l94 90h62l-113 -90h-43z" />
    <glyph glyph-name="nacute" unicode="&#x144;" horiz-adv-x="395" 
d="M54 471h53.001l7 -49c10 16.667 24.5 30.167 43.5 40.5s42.5 15.5 70.5 15.5c38.667 0 68 -8.66699 88 -26s30 -43 30 -77v-375h-66v353c0 24.667 -7.16699 42.5 -21.5 53.5s-33.833 16.5 -58.5 16.5c-21.333 0 -38.333 -4.33301 -51 -13s-22.334 -20 -29.001 -34v-376
h-66v471zM142.001 532l88 96h62l-107 -96h-43z" />
    <glyph glyph-name="uni0145" unicode="&#x145;" horiz-adv-x="408" 
d="M52 0v620h68l166 -474l2 -5l1 -1v480h67v-620h-70l-164 448l-2 7h-1v-455h-67zM166 -168c10 16 18.166 31.002 24.499 45.002s9.5 27.667 9.5 41c-10 0 -16.167 1.66699 -18.5 5s-3.5 7.66602 -3.5 12.999c0 8 1.33301 13.667 4 17s11.334 5 26.001 5
c12.667 0 20.167 -1.5 22.5 -4.5s3.5 -8.5 3.5 -16.5c0 -11.333 -1.66699 -23.833 -5 -37.5s-7.83301 -26.334 -13.5 -38.001s-11.5 -21.5 -17.5 -29.5h-32z" />
    <glyph glyph-name="uni0146" unicode="&#x146;" horiz-adv-x="395" 
d="M54 471h53.001l7 -49c10 16.667 24.5 30.167 43.5 40.5s42.5 15.5 70.5 15.5c38.667 0 68 -8.66699 88 -26s30 -43 30 -77v-375h-66v353c0 24.667 -7.16699 42.5 -21.5 53.5s-33.833 16.5 -58.5 16.5c-21.333 0 -38.333 -4.33301 -51 -13s-22.334 -20 -29.001 -34v-376
h-66v471zM160.001 -168c10 16 18.166 31.002 24.499 45.002s9.5 27.667 9.5 41c-10 0 -16.167 1.66699 -18.5 5s-3.5 7.66602 -3.5 12.999c0 8 1.33301 13.667 4 17s11.334 5 26.001 5c12.667 0 20.167 -1.5 22.5 -4.5s3.5 -8.5 3.5 -16.5
c0 -11.333 -1.66699 -23.833 -5 -37.5s-7.83301 -26.334 -13.5 -38.001s-11.5 -21.5 -17.5 -29.5h-32z" />
    <glyph glyph-name="Ncaron" unicode="&#x147;" horiz-adv-x="408" 
d="M88 774h48l68 -60l69 60h47l-85 -92h-63zM52 0v620h68l166 -474l2 -5l1 -1v480h67v-620h-70l-164 448l-2 7h-1v-455h-67z" />
    <glyph glyph-name="ncaron" unicode="&#x148;" horiz-adv-x="395" 
d="M82 624h48l69 -60l68 60h47l-85 -92h-62zM54 471h53.001l7 -49c10 16.667 24.5 30.167 43.5 40.5s42.5 15.5 70.5 15.5c38.667 0 68 -8.66699 88 -26s30 -43 30 -77v-375h-66v353c0 24.667 -7.16699 42.5 -21.5 53.5s-33.833 16.5 -58.5 16.5
c-21.333 0 -38.333 -4.33301 -51 -13s-22.334 -20 -29.001 -34v-376h-66v471z" />
    <glyph glyph-name="Eng" unicode="&#x14a;" horiz-adv-x="408" 
d="M191 -183l-9 53h64c18 0 29.833 4.33301 35.5 13s8.5 21.334 8.5 38.001v64l-168 461l-2 6l-1 1v-453h-67v620h68l166 -477l2 -5l1 -2v484h67v-707c0 -32.667 -6.16699 -56.834 -18.5 -72.501s-34.5 -23.5 -66.5 -23.5h-80z" />
    <glyph glyph-name="eng" unicode="&#x14b;" horiz-adv-x="524" 
d="M36 470l53.999 0.000976562l7 -49c10.667 17.333 25.167 30.833 43.5 40.5s41.5 14.5 69.5 14.5c34 0 59.333 -5.5 76 -16.5s27.834 -24.333 33.501 -40s8.5 -30.834 8.5 -45.501v-374h-66v350c0 24.667 -6.83301 43 -20.5 55s-33.5 18 -59.5 18
c-22 0 -39 -4.5 -51 -13.5s-21.667 -20.5 -29 -34.5v-375h-66v470zM146.999 -185.999l-9 53h80c18 0 29.833 4.5 35.5 13.5s8.5 23.833 8.5 44.5v313h66v-329c0 -32 -6.16699 -55.833 -18.5 -71.5s-34.5 -23.5 -66.5 -23.5h-96z" />
    <glyph glyph-name="Omacron" unicode="&#x14c;" horiz-adv-x="380" 
d="M189 -4c-48 0 -84.168 8.83301 -108.501 26.5s-36.5 42.5 -36.5 74.5v432c0 28.667 11.333 52.5 34 71.5s59.667 28.167 111 27.5c52.667 -0.666992 90.334 -10.167 113.001 -28.5s34 -41.833 34 -70.5v-432c0 -31.333 -12 -56 -36 -74s-61 -27 -111 -27zM188.999 51
c28.667 0 49.333 5.83301 62 17.5s19 26.834 19 45.501v398c0 16.667 -5.66699 31 -17 43s-33 18 -65 18c-30 0 -50.5 -5.83301 -61.5 -17.5s-16.5 -25.834 -16.5 -42.501v-400c0 -18 6.33301 -32.833 19 -44.5s32.667 -17.5 60 -17.5zM75.998 687v42h228v-42h-228z" />
    <glyph glyph-name="omacron" unicode="&#x14d;" horiz-adv-x="383" 
d="M186 -4c-39.333 0 -68.998 5.33105 -88.998 15.998s-33.667 24.5 -41 41.5s-11 34.5 -11 52.5v259c0 18.667 3.66699 36.334 11 53.001s21.5 30.334 42.5 41.001s52.167 16 93.5 16c38.667 0 68.5 -5.16699 89.5 -15.5s35.667 -23.833 44 -40.5
s12.5 -34.334 12.5 -53.001v-251c0 -21.333 -4.33301 -41.166 -13 -59.499s-23.834 -32.833 -45.501 -43.5s-52.834 -16 -93.501 -16zM186.002 49.998c28 0 49.332 6.16699 63.999 18.5s22 30.833 22 55.5v230c0 22 -7 39.167 -21 51.5s-33.667 18.5 -59 18.5
s-45.166 -6 -59.499 -18s-21.5 -29.333 -21.5 -52v-236c0 -22 7 -38.833 21 -50.5s32 -17.5 54 -17.5zM78.001 536.998v42h228v-42h-228z" />
    <glyph glyph-name="Obreve" unicode="&#x14e;" horiz-adv-x="380" 
d="M189 -4c-48 0 -84.168 8.83301 -108.501 26.5s-36.5 42.5 -36.5 74.5v432c0 28.667 11.333 52.5 34 71.5s59.667 28.167 111 27.5c52.667 -0.666992 90.334 -10.167 113.001 -28.5s34 -41.833 34 -70.5v-432c0 -31.333 -12 -56 -36 -74s-61 -27 -111 -27zM188.999 51
c28.667 0 49.333 5.83301 62 17.5s19 26.834 19 45.501v398c0 16.667 -5.66699 31 -17 43s-33 18 -65 18c-30 0 -50.5 -5.83301 -61.5 -17.5s-16.5 -25.834 -16.5 -42.501v-400c0 -18 6.33301 -32.833 19 -44.5s32.667 -17.5 60 -17.5zM187.998 675
c-26 0 -46.5 4.83203 -61.5 14.499s-25.5 21.834 -31.5 36.501s-9 29.667 -9 45h43c0 -15.333 4.5 -29.5 13.5 -42.5s24.167 -19.5 45.5 -19.5c24 0 40.5 6.5 49.5 19.5s13.833 27.167 14.5 42.5h42c0 -28 -8.16699 -51 -24.5 -69s-43.5 -27 -81.5 -27z" />
    <glyph glyph-name="obreve" unicode="&#x14f;" horiz-adv-x="383" 
d="M186 -4c-39.333 0 -68.998 5.33105 -88.998 15.998s-33.667 24.5 -41 41.5s-11 34.5 -11 52.5v259c0 18.667 3.66699 36.334 11 53.001s21.5 30.334 42.5 41.001s52.167 16 93.5 16c38.667 0 68.5 -5.16699 89.5 -15.5s35.667 -23.833 44 -40.5
s12.5 -34.334 12.5 -53.001v-251c0 -21.333 -4.33301 -41.166 -13 -59.499s-23.834 -32.833 -45.501 -43.5s-52.834 -16 -93.501 -16zM186.002 49.998c28 0 49.332 6.16699 63.999 18.5s22 30.833 22 55.5v230c0 22 -7 39.167 -21 51.5s-33.667 18.5 -59 18.5
s-45.166 -6 -59.499 -18s-21.5 -29.333 -21.5 -52v-236c0 -22 7 -38.833 21 -50.5s32 -17.5 54 -17.5zM189.001 524.998c-26 0 -46.5 4.83105 -61.5 14.498s-25.5 21.834 -31.5 36.501s-9 29.667 -9 45h43c0 -16.667 4.5 -31.167 13.5 -43.5s24.167 -18.5 45.5 -18.5
c24 0 40.667 6 50 18s14 26.667 14 44h42c0 -27.333 -8.16699 -50.166 -24.5 -68.499s-43.5 -27.5 -81.5 -27.5z" />
    <glyph glyph-name="Ohungarumlaut" unicode="&#x150;" horiz-adv-x="380" 
d="M189 -4c-48 0 -84.168 8.83301 -108.501 26.5s-36.5 42.5 -36.5 74.5v432c0 28.667 11.333 52.5 34 71.5s59.667 28.167 111 27.5c52.667 -0.666992 90.334 -10.167 113.001 -28.5s34 -41.833 34 -70.5v-432c0 -31.333 -12 -56 -36 -74s-61 -27 -111 -27zM188.999 51
c28.667 0 49.333 5.83301 62 17.5s19 26.834 19 45.501v398c0 16.667 -5.66699 31 -17 43s-33 18 -65 18c-30 0 -50.5 -5.83301 -61.5 -17.5s-16.5 -25.834 -16.5 -42.501v-400c0 -18 6.33301 -32.833 19 -44.5s32.667 -17.5 60 -17.5zM122.998 682l40 96h61l-58 -96h-43z
M215.998 682l40 96h62l-59 -96h-43z" />
    <glyph glyph-name="ohungarumlaut" unicode="&#x151;" horiz-adv-x="383" 
d="M186 -4c-39.333 0 -68.998 5.33105 -88.998 15.998s-33.667 24.5 -41 41.5s-11 34.5 -11 52.5v259c0 18.667 3.66699 36.334 11 53.001s21.5 30.334 42.5 41.001s52.167 16 93.5 16c38.667 0 68.5 -5.16699 89.5 -15.5s35.667 -23.833 44 -40.5
s12.5 -34.334 12.5 -53.001v-251c0 -21.333 -4.33301 -41.166 -13 -59.499s-23.834 -32.833 -45.501 -43.5s-52.834 -16 -93.501 -16zM186.002 49.998c28 0 49.332 6.16699 63.999 18.5s22 30.833 22 55.5v230c0 22 -7 39.167 -21 51.5s-33.667 18.5 -59 18.5
s-45.166 -6 -59.499 -18s-21.5 -29.333 -21.5 -52v-236c0 -22 7 -38.833 21 -50.5s32 -17.5 54 -17.5zM125.001 531.998l40 96h61l-58 -96h-43zM218.001 531.998l40 96h62l-59 -96h-43z" />
    <glyph glyph-name="OE" unicode="&#x152;" horiz-adv-x="573" 
d="M190 -4c-48 0 -84.333 8.83301 -109 26.5s-37 42.5 -37 74.5v427c0 34 11.5 59.833 34.5 77.5s59.833 26.167 110.5 25.5c47.333 0 82 -8.83301 104 -26.5s33 -43.5 33 -77.5v-426c0 -31.333 -11.667 -56 -35 -74s-57 -27 -101 -27zM189 51c29.333 0 50.168 6 62.501 18
s18.5 26.333 18.5 43v395c0 12 -2.16699 23 -6.5 33s-12.5 17.833 -24.5 23.5s-29 8.5 -51 8.5c-30.667 0 -51.334 -6.66699 -62.001 -20s-16 -28 -16 -44v-396c0 -16.667 6.16699 -31 18.5 -43s32.5 -18 60.5 -18zM272.002 0v620h274v-53h-210v-194h193l-10 -53h-183v-267
h210v-53h-274z" />
    <glyph glyph-name="oe" unicode="&#x153;" horiz-adv-x="589" 
d="M186 -4c-39.333 0 -68.998 5.33105 -88.998 15.998s-33.667 24.5 -41 41.5s-11 34.5 -11 52.5v259c0 18.667 3.66699 36.334 11 53.001s21.5 30.334 42.5 41.001s52.167 16 93.5 16c38.667 0 68.5 -5.16699 89.5 -15.5s35.667 -23.833 44 -40.5
s12.5 -34.334 12.5 -53.001v-251c0 -21.333 -4.33301 -41.166 -13 -59.499s-23.834 -32.833 -45.501 -43.5s-52.834 -16 -93.501 -16zM186.002 49.998c28 0 49.332 6.16699 63.999 18.5s22 30.833 22 55.5v230c0 22 -7 39.167 -21 51.5s-33.667 18.5 -59 18.5
s-45.166 -6 -59.499 -18s-21.5 -29.333 -21.5 -52v-236c0 -22 7 -38.833 21 -50.5s32 -17.5 54 -17.5zM422.001 -7.00195c-39.333 0 -68.999 5.33105 -88.999 15.998s-33.667 24.5 -41 41.5s-11 34.5 -11 52.5v259c0 18.667 3.66699 36.334 11 53.001
s21.5 30.334 42.5 41.001s52.167 16 93.5 16c38.667 0 68.5 -5.16699 89.5 -15.5s35.667 -23.833 44 -40.5s12.5 -34.334 12.5 -53.001v-108l-66 -4v100c0 22 -7 39.167 -21 51.5s-33.667 18.5 -59 18.5s-45.166 -6 -59.499 -18s-21.5 -29.333 -21.5 -52v-236
c0 -22 7 -38.833 21 -50.5s32 -17.5 54 -17.5c28 0 49.333 6.16699 64 18.5s22 30.833 22 55.5v45l66 6v-60c0 -21.333 -4.33301 -41.166 -13 -59.499s-23.834 -32.833 -45.501 -43.5s-52.834 -16 -93.501 -16zM291.002 222.996v37h283v-37h-283z" />
    <glyph glyph-name="Racute" unicode="&#x154;" horiz-adv-x="393" 
d="M52 620l198.999 -0.000976562c28.667 0 49.834 -3.5 63.501 -10.5s22.667 -17.667 27 -32s6.5 -32.166 6.5 -53.499v-117c0 -24 -2 -46.5 -6 -67.5s-14.333 -38 -31 -51s-44 -19.5 -82 -19.5h-109v-269h-68v620zM310.999 -15.001l-114 288l46 4l19 -6l4 -6l108 -256z
M209.999 321.999c23.333 0 41 6.16699 53 18.5s18 32.833 18 61.5v94c0 27.333 -4.16699 46 -12.5 56s-24.5 15 -48.5 15h-100v-245h90zM129.999 681.999l94 90h62l-113 -90h-43z" />
    <glyph glyph-name="racute" unicode="&#x155;" horiz-adv-x="282" 
d="M54 0l0.000976562 470h53l7 -49c10.667 17.333 24.667 30.833 42 40.5s35.666 14.5 54.999 14.5c16 0 28.5 -0.833008 37.5 -2.5s16.833 -4.16699 23.5 -7.5l-3 -59c-8 4 -17 6.83301 -27 8.5s-22 2.5 -36 2.5c-20.667 0 -38.5 -5.5 -53.5 -16.5
s-25.833 -25.833 -32.5 -44.5v-357h-66zM111.001 532l88 96h62l-107 -96h-43z" />
    <glyph glyph-name="uni0156" unicode="&#x156;" horiz-adv-x="393" 
d="M52 620l198.999 -0.000976562c28.667 0 49.834 -3.5 63.501 -10.5s22.667 -17.667 27 -32s6.5 -32.166 6.5 -53.499v-117c0 -24 -2 -46.5 -6 -67.5s-14.333 -38 -31 -51s-44 -19.5 -82 -19.5h-109v-269h-68v620zM310.999 -15.001l-114 288l46 4l19 -6l4 -6l108 -256z
M209.999 321.999c23.333 0 41 6.16699 53 18.5s18 32.833 18 61.5v94c0 27.333 -4.16699 46 -12.5 56s-24.5 15 -48.5 15h-100v-245h90zM147.999 -168.001c10 16 18.166 31.002 24.499 45.002s9.5 27.667 9.5 41c-10 0 -16.167 1.66699 -18.5 5s-3.5 7.66602 -3.5 12.999
c0 8 1.33301 13.667 4 17s11.334 5 26.001 5c12.667 0 20.167 -1.5 22.5 -4.5s3.5 -8.5 3.5 -16.5c0 -11.333 -1.66699 -23.833 -5 -37.5s-7.83301 -26.334 -13.5 -38.001s-11.5 -21.5 -17.5 -29.5h-32z" />
    <glyph glyph-name="uni0157" unicode="&#x157;" horiz-adv-x="282" 
d="M54 0l0.000976562 470h53l7 -49c10.667 17.333 24.667 30.833 42 40.5s35.666 14.5 54.999 14.5c16 0 28.5 -0.833008 37.5 -2.5s16.833 -4.16699 23.5 -7.5l-3 -59c-8 4 -17 6.83301 -27 8.5s-22 2.5 -36 2.5c-20.667 0 -38.5 -5.5 -53.5 -16.5
s-25.833 -25.833 -32.5 -44.5v-357h-66zM47.001 -168c10 16 18.166 31.002 24.499 45.002s9.5 27.667 9.5 41c-10 0 -16.167 1.66699 -18.5 5s-3.5 7.66602 -3.5 12.999c0 8 1.33301 13.667 4 17s11.334 5 26.001 5c12.667 0 20.167 -1.5 22.5 -4.5s3.5 -8.5 3.5 -16.5
c0 -11.333 -1.66699 -23.833 -5 -37.5s-7.83301 -26.334 -13.5 -38.001s-11.5 -21.5 -17.5 -29.5h-32z" />
    <glyph glyph-name="Rcaron" unicode="&#x158;" horiz-adv-x="393" 
d="M70 774h48l68 -60l69 60h46l-84 -92h-63zM52 620l198.999 -0.000976562c28.667 0 49.834 -3.5 63.501 -10.5s22.667 -17.667 27 -32s6.5 -32.166 6.5 -53.499v-117c0 -24 -2 -46.5 -6 -67.5s-14.333 -38 -31 -51s-44 -19.5 -82 -19.5h-109v-269h-68v620zM310.999 -15.001
l-114 288l46 4l19 -6l4 -6l108 -256zM209.999 321.999c23.333 0 41 6.16699 53 18.5s18 32.833 18 61.5v94c0 27.333 -4.16699 46 -12.5 56s-24.5 15 -48.5 15h-100v-245h90z" />
    <glyph glyph-name="rcaron" unicode="&#x159;" horiz-adv-x="282" 
d="M51 624h48l68 -60l69 60h46l-84 -92h-63zM54 0l0.000976562 470h53l7 -49c10.667 17.333 24.667 30.833 42 40.5s35.666 14.5 54.999 14.5c16 0 28.5 -0.833008 37.5 -2.5s16.833 -4.16699 23.5 -7.5l-3 -59c-8 4 -17 6.83301 -27 8.5s-22 2.5 -36 2.5
c-20.667 0 -38.5 -5.5 -53.5 -16.5s-25.833 -25.833 -32.5 -44.5v-357h-66z" />
    <glyph glyph-name="Sacute" unicode="&#x15a;" horiz-adv-x="370" 
d="M191 -5c-29.333 0.666992 -55.499 3 -78.499 7s-41.167 11.833 -54.5 23.5s-20 28.167 -20 49.5v132l67 9v-115c0 -16.667 5.83301 -29.5 17.5 -38.5s33.167 -13.5 64.5 -13.5c20.667 0 36.5 2.33301 47.5 7s18.5 11.834 22.5 21.501s6 22.167 6 37.5v84
c0 22.667 -5.5 41.167 -16.5 55.5s-27.5 24.833 -49.5 31.5l-75 21c-30 9.33301 -51.5 21.166 -64.5 35.499s-19.5 36.5 -19.5 66.5v116c0 28.667 6.5 50 19.5 64s31 23.333 54 28s49.167 7 78.5 7c28 0 52.5 -2.33301 73.5 -7s37.333 -12.667 49 -24
s17.5 -27.666 17.5 -48.999v-132l-67 -11v112c0 22 -5 37.333 -15 46s-30.333 13 -61 13c-30 0 -51.167 -5.16699 -63.5 -15.5s-18.5 -28.833 -18.5 -55.5v-77c0 -19.333 5.33301 -35.333 16 -48s25 -21.667 43 -27l80 -23c31.333 -9.33301 53.5 -21.833 66.5 -37.5
s19.5 -38.834 19.5 -69.501v-122c0 -28.667 -5.66699 -50.167 -17 -64.5s-27.333 -24 -48 -29s-45.334 -7.83301 -74.001 -8.5zM128.001 682l94 90h62l-113 -90h-43z" />
    <glyph glyph-name="sacute" unicode="&#x15b;" horiz-adv-x="356" 
d="M174 -6c-48 0 -82.1709 9.83301 -102.504 29.5s-30.5 47.167 -30.5 82.5v67l59 8v-72c0 -11.333 2 -22.333 6 -33s11.333 -19.334 22 -26.001s26.334 -10 47.001 -10c24.667 0 44 4.5 58 13.5s21 27.5 21 55.5c0 27.333 -3.5 47.5 -10.5 60.5s-21.167 24.5 -42.5 34.5
c-5.33301 2.66699 -12.333 5.83398 -21 9.50098l-28 11.5c-10 4 -19.167 8 -27.5 12l-18.5 9c-17.333 10 -30.666 19.667 -39.999 29s-15.833 20 -19.5 32s-5.5 26.333 -5.5 43v14c0 38 11.167 66 33.5 84s57.5 27 105.5 27c48.667 0 83.334 -8.33301 104.001 -25
s31 -43.667 31 -81v-66l-61 -8v68c0 26 -6.5 43.5 -19.5 52.5s-31.833 13.5 -56.5 13.5c-23.333 0 -40.5 -3.5 -51.5 -10.5s-18 -15.833 -21 -26.5s-4.5 -21 -4.5 -31c0 -23.333 2.5 -39.833 7.5 -49.5s15.167 -18.834 30.5 -27.501c7.33301 -4 16.833 -8.5 28.5 -13.5
l36.5 -15.5c12.667 -5.33301 24.667 -11 36 -17c28.667 -13.333 48.334 -28.166 59.001 -44.499s16 -39.833 16 -70.5v-11c0 -39.333 -10 -68.833 -30 -88.5s-57 -29.5 -111 -29.5zM122.996 532l88 96h62l-107 -96h-43z" />
    <glyph glyph-name="Scircumflex" unicode="&#x15c;" horiz-adv-x="370" 
d="M191 -5c-29.333 0.666992 -55.499 3 -78.499 7s-41.167 11.833 -54.5 23.5s-20 28.167 -20 49.5v132l67 9v-115c0 -16.667 5.83301 -29.5 17.5 -38.5s33.167 -13.5 64.5 -13.5c20.667 0 36.5 2.33301 47.5 7s18.5 11.834 22.5 21.501s6 22.167 6 37.5v84
c0 22.667 -5.5 41.167 -16.5 55.5s-27.5 24.833 -49.5 31.5l-75 21c-30 9.33301 -51.5 21.166 -64.5 35.499s-19.5 36.5 -19.5 66.5v116c0 28.667 6.5 50 19.5 64s31 23.333 54 28s49.167 7 78.5 7c28 0 52.5 -2.33301 73.5 -7s37.333 -12.667 49 -24
s17.5 -27.666 17.5 -48.999v-132l-67 -11v112c0 22 -5 37.333 -15 46s-30.333 13 -61 13c-30 0 -51.167 -5.16699 -63.5 -15.5s-18.5 -28.833 -18.5 -55.5v-77c0 -19.333 5.33301 -35.333 16 -48s25 -21.667 43 -27l80 -23c31.333 -9.33301 53.5 -21.833 66.5 -37.5
s19.5 -38.834 19.5 -69.501v-122c0 -28.667 -5.66699 -50.167 -17 -64.5s-27.333 -24 -48 -29s-45.334 -7.83301 -74.001 -8.5zM69.001 682l84 92h63l84 -92h-47l-68 59l-69 -59h-47z" />
    <glyph glyph-name="scircumflex" unicode="&#x15d;" horiz-adv-x="356" 
d="M174 -6c-48 0 -82.1709 9.83301 -102.504 29.5s-30.5 47.167 -30.5 82.5v67l59 8v-72c0 -11.333 2 -22.333 6 -33s11.333 -19.334 22 -26.001s26.334 -10 47.001 -10c24.667 0 44 4.5 58 13.5s21 27.5 21 55.5c0 27.333 -3.5 47.5 -10.5 60.5s-21.167 24.5 -42.5 34.5
c-5.33301 2.66699 -12.333 5.83398 -21 9.50098l-28 11.5c-10 4 -19.167 8 -27.5 12l-18.5 9c-17.333 10 -30.666 19.667 -39.999 29s-15.833 20 -19.5 32s-5.5 26.333 -5.5 43v14c0 38 11.167 66 33.5 84s57.5 27 105.5 27c48.667 0 83.334 -8.33301 104.001 -25
s31 -43.667 31 -81v-66l-61 -8v68c0 26 -6.5 43.5 -19.5 52.5s-31.833 13.5 -56.5 13.5c-23.333 0 -40.5 -3.5 -51.5 -10.5s-18 -15.833 -21 -26.5s-4.5 -21 -4.5 -31c0 -23.333 2.5 -39.833 7.5 -49.5s15.167 -18.834 30.5 -27.501c7.33301 -4 16.833 -8.5 28.5 -13.5
l36.5 -15.5c12.667 -5.33301 24.667 -11 36 -17c28.667 -13.333 48.334 -28.166 59.001 -44.499s16 -39.833 16 -70.5v-11c0 -39.333 -10 -68.833 -30 -88.5s-57 -29.5 -111 -29.5zM62.9961 532l84 92h63l84 -92h-47l-68 59l-69 -59h-47z" />
    <glyph glyph-name="Scedilla" unicode="&#x15e;" horiz-adv-x="370" 
d="M191 -5c-29.333 0.666992 -55.499 3 -78.499 7s-41.167 11.833 -54.5 23.5s-20 28.167 -20 49.5v132l67 9v-115c0 -16.667 5.83301 -29.5 17.5 -38.5s33.167 -13.5 64.5 -13.5c20.667 0 36.5 2.33301 47.5 7s18.5 11.834 22.5 21.501s6 22.167 6 37.5v84
c0 22.667 -5.5 41.167 -16.5 55.5s-27.5 24.833 -49.5 31.5l-75 21c-30 9.33301 -51.5 21.166 -64.5 35.499s-19.5 36.5 -19.5 66.5v116c0 28.667 6.5 50 19.5 64s31 23.333 54 28s49.167 7 78.5 7c28 0 52.5 -2.33301 73.5 -7s37.333 -12.667 49 -24
s17.5 -27.666 17.5 -48.999v-132l-67 -11v112c0 22 -5 37.333 -15 46s-30.333 13 -61 13c-30 0 -51.167 -5.16699 -63.5 -15.5s-18.5 -28.833 -18.5 -55.5v-77c0 -19.333 5.33301 -35.333 16 -48s25 -21.667 43 -27l80 -23c31.333 -9.33301 53.5 -21.833 66.5 -37.5
s19.5 -38.834 19.5 -69.501v-122c0 -28.667 -5.66699 -50.167 -17 -64.5s-27.333 -24 -48 -29s-45.334 -7.83301 -74.001 -8.5zM187.001 -180c-14 0 -26.8311 2.5 -38.498 7.5s-21.167 10.167 -28.5 15.5l17 26c3.33301 -4.66699 9.66602 -9.16699 18.999 -13.5
s18.666 -6.5 27.999 -6.5c16 0 28.167 5 36.5 15s12.5 20.667 12.5 32c0 10 -3.5 19.333 -10.5 28s-18.167 13 -33.5 13c-10 0 -19.167 -2 -27.5 -6s-15.166 -8.66699 -20.499 -14l-22 17l52 66h30l-41 -51c13.333 9.33301 27.333 14 42 14c26 0 44.5 -6.66699 55.5 -20
s16.5 -28 16.5 -44c0 -18.667 -7.33301 -36.5 -22 -53.5s-36.334 -25.5 -65.001 -25.5z" />
    <glyph glyph-name="scedilla" unicode="&#x15f;" horiz-adv-x="356" 
d="M174 -6c-48 0 -82.1709 9.83301 -102.504 29.5s-30.5 47.167 -30.5 82.5v67l59 8v-72c0 -11.333 2 -22.333 6 -33s11.333 -19.334 22 -26.001s26.334 -10 47.001 -10c24.667 0 44 4.5 58 13.5s21 27.5 21 55.5c0 27.333 -3.5 47.5 -10.5 60.5s-21.167 24.5 -42.5 34.5
c-5.33301 2.66699 -12.333 5.83398 -21 9.50098l-28 11.5c-10 4 -19.167 8 -27.5 12l-18.5 9c-17.333 10 -30.666 19.667 -39.999 29s-15.833 20 -19.5 32s-5.5 26.333 -5.5 43v14c0 38 11.167 66 33.5 84s57.5 27 105.5 27c48.667 0 83.334 -8.33301 104.001 -25
s31 -43.667 31 -81v-66l-61 -8v68c0 26 -6.5 43.5 -19.5 52.5s-31.833 13.5 -56.5 13.5c-23.333 0 -40.5 -3.5 -51.5 -10.5s-18 -15.833 -21 -26.5s-4.5 -21 -4.5 -31c0 -23.333 2.5 -39.833 7.5 -49.5s15.167 -18.834 30.5 -27.501c7.33301 -4 16.833 -8.5 28.5 -13.5
l36.5 -15.5c12.667 -5.33301 24.667 -11 36 -17c28.667 -13.333 48.334 -28.166 59.001 -44.499s16 -39.833 16 -70.5v-11c0 -39.333 -10 -68.833 -30 -88.5s-57 -29.5 -111 -29.5zM179.996 -180c-14 0 -26.8311 2.5 -38.498 7.5s-21.167 10.167 -28.5 15.5l17 26
c3.33301 -4.66699 9.66602 -9.16699 18.999 -13.5s18.666 -6.5 27.999 -6.5c16 0 28.167 5 36.5 15s12.5 20.667 12.5 32c0 10 -3.5 19.333 -10.5 28s-18.167 13 -33.5 13c-10 0 -19.167 -2 -27.5 -6s-15.166 -8.66699 -20.499 -14l-22 17l52 66h30l-41 -51
c13.333 9.33301 27.333 14 42 14c26 0 44.5 -6.66699 55.5 -20s16.5 -28 16.5 -44c0 -18.667 -7.33301 -36.5 -22 -53.5s-36.334 -25.5 -65.001 -25.5z" />
    <glyph glyph-name="Scaron" unicode="&#x160;" horiz-adv-x="370" 
d="M68 774h48l69 -60l68 60h47l-85 -92h-62zM191 -5c-29.333 0.666992 -55.499 3 -78.499 7s-41.167 11.833 -54.5 23.5s-20 28.167 -20 49.5v132l67 9v-115c0 -16.667 5.83301 -29.5 17.5 -38.5s33.167 -13.5 64.5 -13.5c20.667 0 36.5 2.33301 47.5 7
s18.5 11.834 22.5 21.501s6 22.167 6 37.5v84c0 22.667 -5.5 41.167 -16.5 55.5s-27.5 24.833 -49.5 31.5l-75 21c-30 9.33301 -51.5 21.166 -64.5 35.499s-19.5 36.5 -19.5 66.5v116c0 28.667 6.5 50 19.5 64s31 23.333 54 28s49.167 7 78.5 7c28 0 52.5 -2.33301 73.5 -7
s37.333 -12.667 49 -24s17.5 -27.666 17.5 -48.999v-132l-67 -11v112c0 22 -5 37.333 -15 46s-30.333 13 -61 13c-30 0 -51.167 -5.16699 -63.5 -15.5s-18.5 -28.833 -18.5 -55.5v-77c0 -19.333 5.33301 -35.333 16 -48s25 -21.667 43 -27l80 -23
c31.333 -9.33301 53.5 -21.833 66.5 -37.5s19.5 -38.834 19.5 -69.501v-122c0 -28.667 -5.66699 -50.167 -17 -64.5s-27.333 -24 -48 -29s-45.334 -7.83301 -74.001 -8.5z" />
    <glyph glyph-name="scaron" unicode="&#x161;" horiz-adv-x="356" 
d="M63 624h48l68 -60l69 60h46l-84 -92h-63zM174 -6c-48 0 -82.1709 9.83301 -102.504 29.5s-30.5 47.167 -30.5 82.5v67l59 8v-72c0 -11.333 2 -22.333 6 -33s11.333 -19.334 22 -26.001s26.334 -10 47.001 -10c24.667 0 44 4.5 58 13.5s21 27.5 21 55.5
c0 27.333 -3.5 47.5 -10.5 60.5s-21.167 24.5 -42.5 34.5c-5.33301 2.66699 -12.333 5.83398 -21 9.50098l-28 11.5c-10 4 -19.167 8 -27.5 12l-18.5 9c-17.333 10 -30.666 19.667 -39.999 29s-15.833 20 -19.5 32s-5.5 26.333 -5.5 43v14c0 38 11.167 66 33.5 84
s57.5 27 105.5 27c48.667 0 83.334 -8.33301 104.001 -25s31 -43.667 31 -81v-66l-61 -8v68c0 26 -6.5 43.5 -19.5 52.5s-31.833 13.5 -56.5 13.5c-23.333 0 -40.5 -3.5 -51.5 -10.5s-18 -15.833 -21 -26.5s-4.5 -21 -4.5 -31c0 -23.333 2.5 -39.833 7.5 -49.5
s15.167 -18.834 30.5 -27.501c7.33301 -4 16.833 -8.5 28.5 -13.5l36.5 -15.5c12.667 -5.33301 24.667 -11 36 -17c28.667 -13.333 48.334 -28.166 59.001 -44.499s16 -39.833 16 -70.5v-11c0 -39.333 -10 -68.833 -30 -88.5s-57 -29.5 -111 -29.5z" />
    <glyph glyph-name="uni0162" unicode="&#x162;" horiz-adv-x="321" 
d="M126 567h-109v53h287v-53h-110v-567h-68v567zM153 -180c-14 0 -26.8311 2.5 -38.498 7.5s-21.167 10.167 -28.5 15.5l17 26c3.33301 -4.66699 9.66602 -9.16699 18.999 -13.5s18.666 -6.5 27.999 -6.5c16 0 28.167 5 36.5 15s12.5 20.667 12.5 32
c0 10 -3.5 19.333 -10.5 28s-18.167 13 -33.5 13c-10 0 -19.167 -2 -27.5 -6s-15.166 -8.66699 -20.499 -14l-22 17l52 66h30l-41 -51c13.333 9.33301 27.333 14 42 14c26 0 44.5 -6.66699 55.5 -20s16.5 -28 16.5 -44c0 -18.667 -7.33301 -36.5 -22 -53.5
s-36.334 -25.5 -65.001 -25.5z" />
    <glyph glyph-name="uni0163" unicode="&#x163;" horiz-adv-x="231" 
d="M168 0c-25.333 0 -46.168 2.83301 -62.501 8.5s-28.333 16 -36 31s-11.5 35.833 -11.5 62.5v318h-33v50h40l11 88h48v-88h85l-15 -50h-70v-297c0 -27.333 5.33301 -45.833 16 -55.5s26.334 -14.5 47.001 -14.5h32v-53h-51zM159.998 -179c-14 0 -26.8311 2.5 -38.498 7.5
s-21.167 10.167 -28.5 15.5l17 26c3.33301 -4.66699 9.66602 -9.16699 18.999 -13.5s18.666 -6.5 27.999 -6.5c16 0 28.167 5 36.5 15s12.5 20.667 12.5 32c0 10 -3.5 19.333 -10.5 28s-18.167 13 -33.5 13c-10 0 -19.167 -2 -27.5 -6s-15.166 -8.66699 -20.499 -14l-22 17
l52 66h30l-41 -51c13.333 9.33301 27.333 14 42 14c26 0 44.5 -6.66699 55.5 -20s16.5 -28 16.5 -44c0 -18.667 -7.33301 -36.5 -22 -53.5s-36.334 -25.5 -65.001 -25.5z" />
    <glyph glyph-name="Tcaron" unicode="&#x164;" horiz-adv-x="321" 
d="M44 774h48l68 -60l69 60h46l-84 -92h-63zM126 567h-109v53h287v-53h-110v-567h-68v567z" />
    <glyph glyph-name="tcaron" unicode="&#x165;" horiz-adv-x="231" 
d="M168 0c-25.333 0 -46.168 2.83301 -62.501 8.5s-28.333 16 -36 31s-11.5 35.833 -11.5 62.5v318h-33v50h40l11 88h48v-88h85l-15 -50h-70v-297c0 -27.333 5.33301 -45.833 16 -55.5s26.334 -14.5 47.001 -14.5h32v-53h-51zM174.998 514l23 144h43l-37 -144h-29z" />
    <glyph glyph-name="Tbar" unicode="&#x166;" horiz-adv-x="321" 
d="M126 567h-109v53h287v-53h-110v-567h-68v567zM39 401v34h243v-34h-243z" />
    <glyph glyph-name="tbar" unicode="&#x167;" horiz-adv-x="231" 
d="M168 0c-25.333 0 -46.168 2.83301 -62.501 8.5s-28.333 16 -36 31s-11.5 35.833 -11.5 62.5v318h-33v50h40l11 88h48v-88h85l-15 -50h-70v-297c0 -27.333 5.33301 -45.833 16 -55.5s26.334 -14.5 47.001 -14.5h32v-53h-51zM-5.00195 297v34h243v-34h-243z" />
    <glyph glyph-name="Utilde" unicode="&#x168;" horiz-adv-x="388" 
d="M194 -5c-27.333 0 -52 3 -74 9s-39.5 15.833 -52.5 29.5s-19.5 32.167 -19.5 55.5v531h68v-509c0 -10.667 2.16699 -20.834 6.5 -30.501s12 -17.5 23 -23.5s27.167 -9 48.5 -9c22 0 38.667 3 50 9s18.833 13.833 22.5 23.5s5.5 19.834 5.5 30.501v509h67v-531
c0 -23.333 -6.16699 -41.833 -18.5 -55.5s-29.5 -23.5 -51.5 -29.5s-47 -9 -75 -9zM85 678c0 28.667 5.5 49.833 16.5 63.5s25.167 20.5 42.5 20.5c14.667 0 27 -3.33301 37 -10s19.5 -13.5 28.5 -20.5s18.5 -10.5 28.5 -10.5c12.667 0 21.167 4.33301 25.5 13
s6.5 18 6.5 28h33c0 -30 -6.16699 -51.167 -18.5 -63.5s-25.833 -18.5 -40.5 -18.5c-14 0 -26 3.66699 -36 11s-19.167 14.5 -27.5 21.5s-17.833 10.5 -28.5 10.5c-10 0 -17.833 -4 -23.5 -12s-8.5 -19 -8.5 -33h-35z" />
    <glyph glyph-name="utilde" unicode="&#x169;" 
d="M167 0c-34 0 -59.332 4.99902 -75.999 14.999s-27.834 22.333 -33.501 37s-8.5 29.334 -8.5 44.001v374h66v-346c0 -25.333 7 -43.5 21 -54.5s33.667 -16.5 59 -16.5h81v417h66v-470h-175zM88.001 527.999c0 28.667 5.5 49.833 16.5 63.5s25.167 20.5 42.5 20.5
c14.667 0 27 -3.33301 37 -10s19.5 -13.5 28.5 -20.5s18.5 -10.5 28.5 -10.5c12.667 0 21.167 4.33301 25.5 13s6.5 18 6.5 28h33c0 -30 -6.16699 -51.167 -18.5 -63.5s-25.833 -18.5 -40.5 -18.5c-14 0 -26 3.66699 -36 11s-19.167 14.5 -27.5 21.5
s-17.833 10.5 -28.5 10.5c-10 0 -17.833 -4 -23.5 -12s-8.5 -19 -8.5 -33h-35z" />
    <glyph glyph-name="Umacron" unicode="&#x16a;" horiz-adv-x="388" 
d="M194 -5c-27.333 0 -52 3 -74 9s-39.5 15.833 -52.5 29.5s-19.5 32.167 -19.5 55.5v531h68v-509c0 -10.667 2.16699 -20.834 6.5 -30.501s12 -17.5 23 -23.5s27.167 -9 48.5 -9c22 0 38.667 3 50 9s18.833 13.833 22.5 23.5s5.5 19.834 5.5 30.501v509h67v-531
c0 -23.333 -6.16699 -41.833 -18.5 -55.5s-29.5 -23.5 -51.5 -29.5s-47 -9 -75 -9zM80 687v42h228v-42h-228z" />
    <glyph glyph-name="umacron" unicode="&#x16b;" 
d="M167 0c-34 0 -59.332 4.99902 -75.999 14.999s-27.834 22.333 -33.501 37s-8.5 29.334 -8.5 44.001v374h66v-346c0 -25.333 7 -43.5 21 -54.5s33.667 -16.5 59 -16.5h81v417h66v-470h-175zM83.001 536.999v42h228v-42h-228z" />
    <glyph glyph-name="Ubreve" unicode="&#x16c;" horiz-adv-x="388" 
d="M194 -5c-27.333 0 -52 3 -74 9s-39.5 15.833 -52.5 29.5s-19.5 32.167 -19.5 55.5v531h68v-509c0 -10.667 2.16699 -20.834 6.5 -30.501s12 -17.5 23 -23.5s27.167 -9 48.5 -9c22 0 38.667 3 50 9s18.833 13.833 22.5 23.5s5.5 19.834 5.5 30.501v509h67v-531
c0 -23.333 -6.16699 -41.833 -18.5 -55.5s-29.5 -23.5 -51.5 -29.5s-47 -9 -75 -9zM192 675c-26 0 -46.5 4.83203 -61.5 14.499s-25.5 21.834 -31.5 36.501s-9 29.667 -9 45h43c0 -15.333 4.5 -29.5 13.5 -42.5s24.167 -19.5 45.5 -19.5c24 0 40.5 6.5 49.5 19.5
s13.833 27.167 14.5 42.5h42c0 -28 -8.16699 -51 -24.5 -69s-43.5 -27 -81.5 -27z" />
    <glyph glyph-name="ubreve" unicode="&#x16d;" 
d="M167 0c-34 0 -59.332 4.99902 -75.999 14.999s-27.834 22.333 -33.501 37s-8.5 29.334 -8.5 44.001v374h66v-346c0 -25.333 7 -43.5 21 -54.5s33.667 -16.5 59 -16.5h81v417h66v-470h-175zM195.001 524.999c-26 0 -46.5 4.83105 -61.5 14.498s-25.5 21.834 -31.5 36.501
s-9 29.667 -9 45h43c0 -16.667 4.5 -31.167 13.5 -43.5s24.167 -18.5 45.5 -18.5c24 0 40.667 6 50 18s14 26.667 14 44h42c0 -27.333 -8.16699 -50.166 -24.5 -68.499s-43.5 -27.5 -81.5 -27.5z" />
    <glyph glyph-name="Uring" unicode="&#x16e;" horiz-adv-x="388" 
d="M194 -5c-27.333 0 -52 3 -74 9s-39.5 15.833 -52.5 29.5s-19.5 32.167 -19.5 55.5v531h68v-509c0 -10.667 2.16699 -20.834 6.5 -30.501s12 -17.5 23 -23.5s27.167 -9 48.5 -9c22 0 38.667 3 50 9s18.833 13.833 22.5 23.5s5.5 19.834 5.5 30.501v509h67v-531
c0 -23.333 -6.16699 -41.833 -18.5 -55.5s-29.5 -23.5 -51.5 -29.5s-47 -9 -75 -9zM194 676c-23.333 0 -42.5 7.33301 -57.5 22s-22.5 32 -22.5 52c0 20.667 7.5 38.334 22.5 53.001s34.167 22 57.5 22c21.333 0 39.5 -7.33301 54.5 -22s22.5 -32.334 22.5 -53.001
c0 -20 -7.5 -37.333 -22.5 -52s-33.167 -22 -54.5 -22zM194 705c12 0 22.667 4.33301 32 13s14 19 14 31c0 12.667 -4.66699 23.667 -14 33s-20 14 -32 14c-14 0 -25.5 -4.66699 -34.5 -14s-13.5 -20.333 -13.5 -33c0 -12 4.5 -22.333 13.5 -31s20.5 -13 34.5 -13z" />
    <glyph glyph-name="uring" unicode="&#x16f;" 
d="M167 0c-34 0 -59.332 4.99902 -75.999 14.999s-27.834 22.333 -33.501 37s-8.5 29.334 -8.5 44.001v374h66v-346c0 -25.333 7 -43.5 21 -54.5s33.667 -16.5 59 -16.5h81v417h66v-470h-175zM198.001 525.999c-23.333 0 -42.5 7.33301 -57.5 22s-22.5 32 -22.5 52
c0 20.667 7.5 38.334 22.5 53.001s34.167 22 57.5 22c21.333 0 39.5 -7.33301 54.5 -22s22.5 -32.334 22.5 -53.001c0 -20 -7.5 -37.333 -22.5 -52s-33.167 -22 -54.5 -22zM198.001 554.999c12 0 22.667 4.33301 32 13s14 19 14 31c0 12.667 -4.66699 23.667 -14 33
s-20 14 -32 14c-14 0 -25.5 -4.66699 -34.5 -14s-13.5 -20.333 -13.5 -33c0 -12 4.5 -22.333 13.5 -31s20.5 -13 34.5 -13z" />
    <glyph glyph-name="Uhungarumlaut" unicode="&#x170;" horiz-adv-x="388" 
d="M194 -5c-27.333 0 -52 3 -74 9s-39.5 15.833 -52.5 29.5s-19.5 32.167 -19.5 55.5v531h68v-509c0 -10.667 2.16699 -20.834 6.5 -30.501s12 -17.5 23 -23.5s27.167 -9 48.5 -9c22 0 38.667 3 50 9s18.833 13.833 22.5 23.5s5.5 19.834 5.5 30.501v509h67v-531
c0 -23.333 -6.16699 -41.833 -18.5 -55.5s-29.5 -23.5 -51.5 -29.5s-47 -9 -75 -9zM127 682l40 96h61l-58 -96h-43zM220 682l40 96h62l-59 -96h-43z" />
    <glyph glyph-name="uhungarumlaut" unicode="&#x171;" 
d="M167 0c-34 0 -59.332 4.99902 -75.999 14.999s-27.834 22.333 -33.501 37s-8.5 29.334 -8.5 44.001v374h66v-346c0 -25.333 7 -43.5 21 -54.5s33.667 -16.5 59 -16.5h81v417h66v-470h-175zM130.001 531.999l40 96h61l-58 -96h-43zM223.001 531.999l40 96h62l-59 -96h-43z
" />
    <glyph glyph-name="Uogonek" unicode="&#x172;" horiz-adv-x="388" 
d="M194 -5c-27.333 0 -52 3 -74 9s-39.5 15.833 -52.5 29.5s-19.5 32.167 -19.5 55.5v531h68v-509c0 -10.667 2.16699 -20.834 6.5 -30.501s12 -17.5 23 -23.5s27.167 -9 48.5 -9c22 0 38.667 3 50 9s18.833 13.833 22.5 23.5s5.5 19.834 5.5 30.501v509h67v-531
c0 -23.333 -6.16699 -41.833 -18.5 -55.5s-29.5 -23.5 -51.5 -29.5s-47 -9 -75 -9zM191 -174c-22.667 0 -41.499 7.16895 -56.499 21.502s-22.5 33.833 -22.5 58.5c0 17.333 7.16699 35.666 21.5 54.999s38.166 34.333 71.499 45l37 -4
c-23.333 -9.33301 -42.5 -21.333 -57.5 -36s-22.5 -32 -22.5 -52c0 -15.333 4.66699 -28 14 -38s21 -15 35 -15c10 0 18.833 1.33301 26.5 4s15.5 7.66699 23.5 15l9 -30c-13.333 -8.66699 -26.333 -14.834 -39 -18.501s-26 -5.5 -40 -5.5z" />
    <glyph glyph-name="uogonek" unicode="&#x173;" 
d="M167 0c-34 0 -59.332 4.99902 -75.999 14.999s-27.834 22.333 -33.501 37s-8.5 29.334 -8.5 44.001v374h66v-346c0 -25.333 7 -43.5 21 -54.5s33.667 -16.5 59 -16.5h81v417h66v-470h-175zM269.001 -170.001c-22.667 0 -41.499 7.16895 -56.499 21.502
s-22.5 33.833 -22.5 58.5c0 17.333 7.16699 35.666 21.5 54.999s38.166 34.333 71.499 45l37 -4c-23.333 -9.33301 -42.5 -21.333 -57.5 -36s-22.5 -32 -22.5 -52c0 -15.333 4.66699 -28 14 -38s21 -15 35 -15c10 0 18.833 1.33301 26.5 4s15.5 7.66699 23.5 15l9 -30
c-13.333 -8.66699 -26.333 -14.834 -39 -18.501s-26 -5.5 -40 -5.5z" />
    <glyph glyph-name="Wcircumflex" unicode="&#x174;" horiz-adv-x="565" 
d="M138 0l-120 620h68l86 -484l1 -15h1v15l86 453h53l80 -453l1 -15h1l1 15l82 484h69l-118 -620h-66l-74 431l-1 13h-1l-1 -13l-82 -431h-66zM172 682l84 92h63l84 -92h-47l-68 59l-69 -59h-47z" />
    <glyph glyph-name="wcircumflex" unicode="&#x175;" horiz-adv-x="559" 
d="M6 470h67l94 -341l84 341h53l85 -335l94 335h66l-132 -470h-44l-95 367l-96 -367h-44zM165 532l84 92h63l84 -92h-47l-68 59l-69 -59h-47z" />
    <glyph glyph-name="Ycircumflex" unicode="&#x176;" horiz-adv-x="354" 
d="M144 0v242l-135 378h62l106 -294l1 -15h1l2 15l102 294h63l-136 -377v-243h-66zM61 682l84 92h63l84 -92h-47l-68 59l-69 -59h-47z" />
    <glyph glyph-name="ycircumflex" unicode="&#x177;" horiz-adv-x="338" 
d="M-10 -170l8 42h40c22.667 0 41 5.5 55 16.5s24.667 32.5 32 64.5l14 54l-131 463h64l95 -362l1 -15h-2l1 15l95 362h66l-151 -534c-10.667 -38 -24.667 -65.167 -42 -81.5s-44.333 -24.5 -81 -24.5h-64zM55 532l84 92h63l84 -92h-47l-68 59l-69 -59h-47z" />
    <glyph glyph-name="Ydieresis" unicode="&#x178;" horiz-adv-x="354" 
d="M144 0v242l-135 378h62l106 -294l1 -15h1l2 15l102 294h63l-136 -377v-243h-66zM228 678c-13.333 0 -21 2.33301 -23 7s-3 11.667 -3 21c0 10.667 1 18.167 3 22.5s9.66699 6.5 23 6.5c14.667 0 23.167 -2.16699 25.5 -6.5s3.5 -11.833 3.5 -22.5
c0 -9.33301 -1.16699 -16.333 -3.5 -21s-10.833 -7 -25.5 -7zM122 678c-13.333 0 -21.166 2.33301 -23.499 7s-3.5 11.667 -3.5 21c0 10.667 1.16699 18.167 3.5 22.5s10.166 6.5 23.499 6.5c14.667 0 23.167 -2.16699 25.5 -6.5s3.5 -11.833 3.5 -22.5
c0 -9.33301 -1.33301 -16.333 -4 -21s-11 -7 -25 -7z" />
    <glyph glyph-name="Zacute" unicode="&#x179;" horiz-adv-x="306" 
d="M9 0l191 567h-177v53h262l-192 -567h196v-53h-280zM97 682l94 90h62l-113 -90h-43z" />
    <glyph glyph-name="zacute" unicode="&#x17a;" horiz-adv-x="301" 
d="M17 9l185 408h-181l13 53h240v-34l-173 -383h183l-22 -53h-245v9zM94 532l88 96h62l-107 -96h-43z" />
    <glyph glyph-name="Zdotaccent" unicode="&#x17b;" horiz-adv-x="306" 
d="M9 0l191 567h-177v53h262l-192 -567h196v-53h-280zM151 679c-13.333 0 -21.166 2.33301 -23.499 7s-3.5 11.667 -3.5 21c0 11.333 1.16699 19.166 3.5 23.499s10.166 6.5 23.499 6.5c14.667 0 23.167 -2.16699 25.5 -6.5s3.5 -12.166 3.5 -23.499
c0 -9.33301 -1.33301 -16.333 -4 -21s-11 -7 -25 -7z" />
    <glyph glyph-name="zdotaccent" unicode="&#x17c;" horiz-adv-x="301" 
d="M17 9l185 408h-181l13 53h240v-34l-173 -383h183l-22 -53h-245v9zM149 529c-13.333 0 -21.166 2.33301 -23.499 7s-3.5 11.667 -3.5 21c0 11.333 1.16699 19.166 3.5 23.499s10.166 6.5 23.499 6.5c14.667 0 23.167 -2.16699 25.5 -6.5s3.5 -12.166 3.5 -23.499
c0 -9.33301 -1.33301 -16.333 -4 -21s-11 -7 -25 -7z" />
    <glyph glyph-name="Zcaron" unicode="&#x17d;" horiz-adv-x="306" 
d="M37 774h47l69 -60l69 60h46l-84 -92h-63zM9 0l191 567h-177v53h262l-192 -567h196v-53h-280z" />
    <glyph glyph-name="zcaron" unicode="&#x17e;" horiz-adv-x="301" 
d="M35 624h47l69 -60l69 60h46l-84 -92h-63zM17 9l185 408h-181l13 53h240v-34l-173 -383h183l-22 -53h-245v9z" />
    <glyph glyph-name="uni018F" unicode="&#x18f;" horiz-adv-x="356" 
d="M179 -4c-38.667 0 -68.668 6.83301 -90.001 20.5s-36.166 31.5 -44.499 53.5s-12.5 45.333 -12.5 70v183h226v155c0 30 -6.83301 52.833 -20.5 68.5s-32.834 23.5 -57.501 23.5c-25.333 0 -45.333 -8.16699 -60 -24.5s-22 -41.166 -22 -74.499v-73l-66 -8v79
c0 29.333 4.16699 55.666 12.5 78.999s23.333 42 45 56s51.834 21 90.501 21c40.667 0 71.334 -6.83301 92.001 -20.5s34.5 -31.5 41.5 -53.5s10.5 -45 10.5 -69v-341c0 -24 -3.66699 -47.167 -11 -69.5s-21.333 -40.5 -42 -54.5s-51.334 -21 -92.001 -21zM178.999 50
c16.667 0 30.834 3.83301 42.501 11.5s20.667 18.5 27 32.5s9.5 30.667 9.5 50v133h-160v-133c0 -19.333 3 -36 9 -50s15.167 -24.833 27.5 -32.5s27.166 -11.5 44.499 -11.5z" />
    <glyph glyph-name="florin" unicode="&#x192;" horiz-adv-x="310" 
d="M-62 -174l-9.00293 53h64c18 0 30.167 4.5 36.5 13.5s10.5 23.833 12.5 44.5l52 496h-43l4 37h43l8 76c2 19.333 6.33301 34.5 13 45.5s16.834 18.833 30.501 23.5s31.834 7 54.501 7h90l-5 -37h-59c-21.333 0 -36 -3.5 -44 -10.5s-13 -20.5 -15 -40.5l-7 -64h87l-10 -37
h-80l-54 -512c-3.33301 -32.667 -12.166 -56.667 -26.499 -72s-37.5 -23 -69.5 -23h-73z" />
    <glyph glyph-name="Ohorn" unicode="&#x1a0;" horiz-adv-x="380" 
d="M189 -4c-48 0 -84.168 8.83301 -108.501 26.5s-36.5 42.5 -36.5 74.5v432c0 28.667 11.333 52.5 34 71.5s59.667 28.167 111 27.5c52.667 -0.666992 90.334 -10.167 113.001 -28.5s34 -41.833 34 -70.5v-432c0 -31.333 -12 -56 -36 -74s-61 -27 -111 -27zM188.999 51
c28.667 0 49.333 5.83301 62 17.5s19 26.834 19 45.501v398c0 16.667 -5.66699 31 -17 43s-33 18 -65 18c-30 0 -50.5 -5.83301 -61.5 -17.5s-16.5 -25.834 -16.5 -42.501v-400c0 -18 6.33301 -32.833 19 -44.5s32.667 -17.5 60 -17.5zM259.998 596l-4.00098 24
c20.667 0 34.834 4 42.501 12s11.167 20.667 10.5 38h39c0 -24.667 -6.5 -43.167 -19.5 -55.5s-35.833 -18.5 -68.5 -18.5z" />
    <glyph glyph-name="ohorn" unicode="&#x1a1;" horiz-adv-x="383" 
d="M186 -4c-39.333 0 -68.998 5.33105 -88.998 15.998s-33.667 24.5 -41 41.5s-11 34.5 -11 52.5v259c0 18.667 3.66699 36.334 11 53.001s21.5 30.334 42.5 41.001s52.167 16 93.5 16c38.667 0 68.5 -5.16699 89.5 -15.5s35.667 -23.833 44 -40.5
s12.5 -34.334 12.5 -53.001v-251c0 -21.333 -4.33301 -41.166 -13 -59.499s-23.834 -32.833 -45.501 -43.5s-52.834 -16 -93.501 -16zM186.002 49.998c28 0 49.332 6.16699 63.999 18.5s22 30.833 22 55.5v230c0 22 -7 39.167 -21 51.5s-33.667 18.5 -59 18.5
s-45.166 -6 -59.499 -18s-21.5 -29.333 -21.5 -52v-236c0 -22 7 -38.833 21 -50.5s32 -17.5 54 -17.5zM252.001 445.998l-4.00098 24c20.667 0 34.834 4 42.501 12s11.167 20.667 10.5 38h39c0 -24.667 -6.5 -43.167 -19.5 -55.5s-35.833 -18.5 -68.5 -18.5z" />
    <glyph glyph-name="Uhorn" unicode="&#x1af;" horiz-adv-x="388" 
d="M194 -5c-27.333 0 -52 3 -74 9s-39.5 15.833 -52.5 29.5s-19.5 32.167 -19.5 55.5v531h68v-509c0 -10.667 2.16699 -20.834 6.5 -30.501s12 -17.5 23 -23.5s27.167 -9 48.5 -9c22 0 38.667 3 50 9s18.833 13.833 22.5 23.5s5.5 19.834 5.5 30.501v509h67v-531
c0 -23.333 -6.16699 -41.833 -18.5 -55.5s-29.5 -23.5 -51.5 -29.5s-47 -9 -75 -9zM306 596l-4.00098 24c20.667 0 34.834 4 42.501 12s11.167 20.667 10.5 38h39c0 -24.667 -6.5 -43.167 -19.5 -55.5s-35.833 -18.5 -68.5 -18.5z" />
    <glyph glyph-name="uhorn" unicode="&#x1b0;" 
d="M167 0c-34 0 -59.332 4.99902 -75.999 14.999s-27.834 22.333 -33.501 37s-8.5 29.334 -8.5 44.001v374h66v-346c0 -25.333 7 -43.5 21 -54.5s33.667 -16.5 59 -16.5h81v417h66v-470h-175zM308.001 445.999l-4.00098 24c20.667 0 34.834 4 42.501 12
s11.167 20.667 10.5 38h39c0 -24.667 -6.5 -43.167 -19.5 -55.5s-35.833 -18.5 -68.5 -18.5z" />
    <glyph glyph-name="uni01C4" unicode="&#x1c4;" horiz-adv-x="693" 
d="M424 774h48l68 -60l69 60h46l-84 -92h-63zM52 620h209c31.333 0 52.833 -7.83301 64.5 -23.5s17.5 -39.167 17.5 -70.5v-431c0 -34 -5.33301 -58.333 -16 -73s-34 -22 -70 -22h-205v620zM216 53c24 0 40 4.50098 48 13.501s12 25.833 12 50.5v387
c0 21.333 -4.5 37.166 -13.5 47.499s-21.833 15.5 -38.5 15.5h-105v-514h97zM396 0.000976562l191 567h-176v53h261l-191 -567h195v-53h-280z" />
    <glyph glyph-name="uni01C5" unicode="&#x1c5;" horiz-adv-x="688" 
d="M422 624h48l68 -60l69 60h46l-84 -92h-63zM52 620h209c31.333 0 52.833 -7.83301 64.5 -23.5s17.5 -39.167 17.5 -70.5v-431c0 -34 -5.33301 -58.333 -16 -73s-34 -22 -70 -22h-205v620zM216 53c24 0 40 4.50098 48 13.501s12 25.833 12 50.5v387
c0 21.333 -4.5 37.166 -13.5 47.499s-21.833 15.5 -38.5 15.5h-105v-514h97zM405 9.00098l184 408h-180l12 53h240v-34l-172 -383h183l-22 -53h-245v9z" />
    <glyph glyph-name="uni01C6" unicode="&#x1c6;" horiz-adv-x="697" 
d="M431 624h47l69 -60l69 60h46l-84 -92h-63zM131 0c-22.667 0 -39.833 2.33203 -51.5 6.99902s-19.667 14.834 -24 30.501s-6.5 39.5 -6.5 71.5v266c0 24.667 3.16699 44 9.5 58s17 23.667 32 29s36.167 8 63.5 8h122v159h66v-629h-211zM276.001 52.999v364.001h-109
c-21.333 0 -35.333 -3.33301 -42 -10s-10 -20.334 -10 -41.001v-258c0 -24 3.33301 -39.167 10 -45.5s18.667 -9.5 36 -9.5h115zM413.001 9l185 408h-181l13 53h240v-34l-173 -383h183l-22 -53h-245v9z" />
    <glyph glyph-name="uni01C7" unicode="&#x1c7;" horiz-adv-x="532" 
d="M52 620h68v-567h194v-53h-262v620zM337 0l-10.002 52.999h51c12.667 0 21.667 1.66699 27 5s8.5 10 9.5 20s1.5 25.333 1.5 46v496h68v-516c0 -28 -1.66699 -49.667 -5 -65s-11.166 -25.666 -23.499 -30.999s-32.166 -8 -59.499 -8h-59z" />
    <glyph glyph-name="uni01C8" unicode="&#x1c8;" horiz-adv-x="529" 
d="M52 620h68v-567h194v-53h-262v620zM294 -174l-9 53h80c18 0 29.833 4.5 35.5 13.5s8.5 23.833 8.5 44.5v533h66v-549c0 -32.667 -6.16699 -56.667 -18.5 -72s-34.833 -23 -67.5 -23h-95zM442 530c-16 0 -26.333 2.16699 -31 6.5s-7 12.833 -7 25.5
s2.33301 21.334 7 26.001s15 7 31 7s26.167 -2.33301 30.5 -7s6.5 -13.334 6.5 -26.001s-2.16699 -21.167 -6.5 -25.5s-14.5 -6.5 -30.5 -6.5z" />
    <glyph glyph-name="uni01C9" unicode="&#x1c9;" horiz-adv-x="375" 
d="M54 626h66v-626h-66v626zM140 -174l-9 53h80c18 0 29.833 4.5 35.5 13.5s8.5 23.833 8.5 44.5v533h66v-549c0 -32.667 -6.16699 -56.667 -18.5 -72s-34.833 -23 -67.5 -23h-95zM288 530c-16 0 -26.333 2.16699 -31 6.5s-7 12.833 -7 25.5s2.33301 21.334 7 26.001
s15 7 31 7s26.167 -2.33301 30.5 -7s6.5 -13.334 6.5 -26.001s-2.16699 -21.167 -6.5 -25.5s-14.5 -6.5 -30.5 -6.5z" />
    <glyph glyph-name="uni01CA" unicode="&#x1ca;" horiz-adv-x="612" 
d="M52 0v620h68l166 -474l2 -5l1 -1v480h67v-620h-70l-164 448l-2 7h-1v-455h-67zM417 0l-10.002 52.999h51c12.667 0 21.667 1.66699 27 5s8.5 10 9.5 20s1.5 25.333 1.5 46v496h68v-516c0 -28 -1.66699 -49.667 -5 -65s-11.166 -25.666 -23.499 -30.999
s-32.166 -8 -59.499 -8h-59z" />
    <glyph glyph-name="uni01CB" unicode="&#x1cb;" horiz-adv-x="609" 
d="M52 0v620h68l166 -474l2 -5l1 -1v480h67v-620h-70l-164 448l-2 7h-1v-455h-67zM374 -174l-9 53h80c18 0 29.833 4.5 35.5 13.5s8.5 23.833 8.5 44.5v533h66v-549c0 -32.667 -6.16699 -56.667 -18.5 -72s-34.833 -23 -67.5 -23h-95zM522 530
c-16 0 -26.333 2.16699 -31 6.5s-7 12.833 -7 25.5s2.33301 21.334 7 26.001s15 7 31 7s26.167 -2.33301 30.5 -7s6.5 -13.334 6.5 -26.001s-2.16699 -21.167 -6.5 -25.5s-14.5 -6.5 -30.5 -6.5z" />
    <glyph glyph-name="uni01CC" unicode="&#x1cc;" horiz-adv-x="596" 
d="M54 471h53.001l7 -49c10 16.667 24.5 30.167 43.5 40.5s42.5 15.5 70.5 15.5c38.667 0 68 -8.66699 88 -26s30 -43 30 -77v-375h-66v353c0 24.667 -7.16699 42.5 -21.5 53.5s-33.833 16.5 -58.5 16.5c-21.333 0 -38.333 -4.33301 -51 -13s-22.334 -20 -29.001 -34v-376
h-66v471zM361.001 -174l-9 53h80c18 0 29.833 4.5 35.5 13.5s8.5 23.833 8.5 44.5v533h66v-549c0 -32.667 -6.16699 -56.667 -18.5 -72s-34.833 -23 -67.5 -23h-95zM509.001 530c-16 0 -26.333 2.16699 -31 6.5s-7 12.833 -7 25.5s2.33301 21.334 7 26.001s15 7 31 7
s26.167 -2.33301 30.5 -7s6.5 -13.334 6.5 -26.001s-2.16699 -21.167 -6.5 -25.5s-14.5 -6.5 -30.5 -6.5z" />
    <glyph glyph-name="uni01CD" unicode="&#x1cd;" horiz-adv-x="381" 
d="M73 774h48l69 -60l68 60h47l-85 -92h-62zM16 0l130 620h89l129 -620h-70l-30 146l13 -12h-176l11 12l-28 -146h-68zM114 180l-7 8h165l-9 -8l-64 352l-2 10h-14l-2 -10z" />
    <glyph glyph-name="uni01CE" unicode="&#x1ce;" 
d="M86 624h48l69 -60l68 60h47l-85 -92h-62zM126 0c-24.667 0 -42.3311 3.6709 -52.998 11.0039s-17.334 20.166 -20.001 38.499s-4 44.5 -4 78.5v243c0 26 3 46.167 9 60.5s16.833 24.333 32.5 30s38.5 8.5 68.5 8.5h183v-470h-66v417h-111
c-16.667 0 -28.5 -2.33301 -35.5 -7s-11.167 -11.834 -12.5 -21.501s-2 -23.167 -2 -40.5v-227c0 -18.667 1 -32.834 3 -42.501s6.16699 -16.334 12.5 -20.001s16.166 -5.5 29.499 -5.5h87l-7 -53h-114z" />
    <glyph glyph-name="uni01CF" unicode="&#x1cf;" horiz-adv-x="172" 
d="M-30 774h47l69 -60l69 60h46l-84 -92h-63zM52 620h68v-620h-68v620z" />
    <glyph glyph-name="uni01D0" unicode="&#x1d0;" horiz-adv-x="174" 
d="M-29 624h48l68 -60l69 60h46l-84 -92h-63zM54 470h66v-470h-66v470z" />
    <glyph glyph-name="uni01D1" unicode="&#x1d1;" horiz-adv-x="380" 
d="M74 774h48l68 -60l69 60h46l-84 -92h-63zM189 -4c-48 0 -84.168 8.83301 -108.501 26.5s-36.5 42.5 -36.5 74.5v432c0 28.667 11.333 52.5 34 71.5s59.667 28.167 111 27.5c52.667 -0.666992 90.334 -10.167 113.001 -28.5s34 -41.833 34 -70.5v-432
c0 -31.333 -12 -56 -36 -74s-61 -27 -111 -27zM188.999 51c28.667 0 49.333 5.83301 62 17.5s19 26.834 19 45.501v398c0 16.667 -5.66699 31 -17 43s-33 18 -65 18c-30 0 -50.5 -5.83301 -61.5 -17.5s-16.5 -25.834 -16.5 -42.501v-400c0 -18 6.33301 -32.833 19 -44.5
s32.667 -17.5 60 -17.5z" />
    <glyph glyph-name="uni01D2" unicode="&#x1d2;" horiz-adv-x="383" 
d="M75 624h48l69 -60l68 60h47l-85 -92h-62zM186 -4c-39.333 0 -68.998 5.33105 -88.998 15.998s-33.667 24.5 -41 41.5s-11 34.5 -11 52.5v259c0 18.667 3.66699 36.334 11 53.001s21.5 30.334 42.5 41.001s52.167 16 93.5 16c38.667 0 68.5 -5.16699 89.5 -15.5
s35.667 -23.833 44 -40.5s12.5 -34.334 12.5 -53.001v-251c0 -21.333 -4.33301 -41.166 -13 -59.499s-23.834 -32.833 -45.501 -43.5s-52.834 -16 -93.501 -16zM186.002 49.998c28 0 49.332 6.16699 63.999 18.5s22 30.833 22 55.5v230c0 22 -7 39.167 -21 51.5
s-33.667 18.5 -59 18.5s-45.166 -6 -59.499 -18s-21.5 -29.333 -21.5 -52v-236c0 -22 7 -38.833 21 -50.5s32 -17.5 54 -17.5z" />
    <glyph glyph-name="uni01D3" unicode="&#x1d3;" horiz-adv-x="388" 
d="M78 774h47l69 -60l68 60h47l-84 -92h-63zM194 -5c-27.333 0 -52 3 -74 9s-39.5 15.833 -52.5 29.5s-19.5 32.167 -19.5 55.5v531h68v-509c0 -10.667 2.16699 -20.834 6.5 -30.501s12 -17.5 23 -23.5s27.167 -9 48.5 -9c22 0 38.667 3 50 9s18.833 13.833 22.5 23.5
s5.5 19.834 5.5 30.501v509h67v-531c0 -23.333 -6.16699 -41.833 -18.5 -55.5s-29.5 -23.5 -51.5 -29.5s-47 -9 -75 -9z" />
    <glyph glyph-name="uni01D4" unicode="&#x1d4;" 
d="M81 624h48l68 -60l69 60h46l-84 -92h-63zM167 0c-34 0 -59.332 4.99902 -75.999 14.999s-27.834 22.333 -33.501 37s-8.5 29.334 -8.5 44.001v374h66v-346c0 -25.333 7 -43.5 21 -54.5s33.667 -16.5 59 -16.5h81v417h66v-470h-175z" />
    <glyph glyph-name="uni01D5" unicode="&#x1d5;" horiz-adv-x="388" 
d="M194 -5c-27.333 0 -52 3 -74 9s-39.5 15.833 -52.5 29.5s-19.5 32.167 -19.5 55.5v531h68v-509c0 -10.667 2.16699 -20.834 6.5 -30.501s12 -17.5 23 -23.5s27.167 -9 48.5 -9c22 0 38.667 3 50 9s18.833 13.833 22.5 23.5s5.5 19.834 5.5 30.501v509h67v-531
c0 -23.333 -6.16699 -41.833 -18.5 -55.5s-29.5 -23.5 -51.5 -29.5s-47 -9 -75 -9zM245 678c-13.333 0 -21 2.33301 -23 7s-3 11.667 -3 21c0 10.667 1 18.167 3 22.5s9.66699 6.5 23 6.5c14.667 0 23.167 -2.16699 25.5 -6.5s3.5 -11.833 3.5 -22.5
c0 -9.33301 -1.16699 -16.333 -3.5 -21s-10.833 -7 -25.5 -7zM139 678c-13.333 0 -21.166 2.33301 -23.499 7s-3.5 11.667 -3.5 21c0 10.667 1.16699 18.167 3.5 22.5s10.166 6.5 23.499 6.5c14.667 0 23.167 -2.16699 25.5 -6.5s3.5 -11.833 3.5 -22.5
c0 -9.33301 -1.33301 -16.333 -4 -21s-11 -7 -25 -7zM80 761v42h228v-42h-228z" />
    <glyph glyph-name="uni01D6" unicode="&#x1d6;" 
d="M167 0c-34 0 -59.332 4.99902 -75.999 14.999s-27.834 22.333 -33.501 37s-8.5 29.334 -8.5 44.001v374h66v-346c0 -25.333 7 -43.5 21 -54.5s33.667 -16.5 59 -16.5h81v417h66v-470h-175zM249.001 527.999c-13.333 0 -21 2.33301 -23 7s-3 11.667 -3 21
c0 10.667 1 18.167 3 22.5s9.66699 6.5 23 6.5c14.667 0 23.167 -2.16699 25.5 -6.5s3.5 -11.833 3.5 -22.5c0 -9.33301 -1.16699 -16.333 -3.5 -21s-10.833 -7 -25.5 -7zM143.001 527.999c-13.333 0 -21.166 2.33301 -23.499 7s-3.5 11.667 -3.5 21
c0 10.667 1.16699 18.167 3.5 22.5s10.166 6.5 23.499 6.5c14.667 0 23.167 -2.16699 25.5 -6.5s3.5 -11.833 3.5 -22.5c0 -9.33301 -1.33301 -16.333 -4 -21s-11 -7 -25 -7zM83.001 610.999v42h228v-42h-228z" />
    <glyph glyph-name="uni01D7" unicode="&#x1d7;" horiz-adv-x="388" 
d="M194 -5c-27.333 0 -52 3 -74 9s-39.5 15.833 -52.5 29.5s-19.5 32.167 -19.5 55.5v531h68v-509c0 -10.667 2.16699 -20.834 6.5 -30.501s12 -17.5 23 -23.5s27.167 -9 48.5 -9c22 0 38.667 3 50 9s18.833 13.833 22.5 23.5s5.5 19.834 5.5 30.501v509h67v-531
c0 -23.333 -6.16699 -41.833 -18.5 -55.5s-29.5 -23.5 -51.5 -29.5s-47 -9 -75 -9zM245 678c-13.333 0 -21 2.33301 -23 7s-3 11.667 -3 21c0 10.667 1 18.167 3 22.5s9.66699 6.5 23 6.5c14.667 0 23.167 -2.16699 25.5 -6.5s3.5 -11.833 3.5 -22.5
c0 -9.33301 -1.16699 -16.333 -3.5 -21s-10.833 -7 -25.5 -7zM139 678c-13.333 0 -21.166 2.33301 -23.499 7s-3.5 11.667 -3.5 21c0 10.667 1.16699 18.167 3.5 22.5s10.166 6.5 23.499 6.5c14.667 0 23.167 -2.16699 25.5 -6.5s3.5 -11.833 3.5 -22.5
c0 -9.33301 -1.33301 -16.333 -4 -21s-11 -7 -25 -7zM137 756l94 90h62l-113 -90h-43z" />
    <glyph glyph-name="uni01D8" unicode="&#x1d8;" 
d="M167 0c-34 0 -59.332 4.99902 -75.999 14.999s-27.834 22.333 -33.501 37s-8.5 29.334 -8.5 44.001v374h66v-346c0 -25.333 7 -43.5 21 -54.5s33.667 -16.5 59 -16.5h81v417h66v-470h-175zM249.001 527.999c-13.333 0 -21 2.33301 -23 7s-3 11.667 -3 21
c0 10.667 1 18.167 3 22.5s9.66699 6.5 23 6.5c14.667 0 23.167 -2.16699 25.5 -6.5s3.5 -11.833 3.5 -22.5c0 -9.33301 -1.16699 -16.333 -3.5 -21s-10.833 -7 -25.5 -7zM143.001 527.999c-13.333 0 -21.166 2.33301 -23.499 7s-3.5 11.667 -3.5 21
c0 10.667 1.16699 18.167 3.5 22.5s10.166 6.5 23.499 6.5c14.667 0 23.167 -2.16699 25.5 -6.5s3.5 -11.833 3.5 -22.5c0 -9.33301 -1.33301 -16.333 -4 -21s-11 -7 -25 -7zM141.001 605.999l88 96h62l-107 -96h-43z" />
    <glyph glyph-name="uni01D9" unicode="&#x1d9;" horiz-adv-x="388" 
d="M78 848h47l69 -60l68 60h47l-84 -92h-63zM194 -5c-27.333 0 -52 3 -74 9s-39.5 15.833 -52.5 29.5s-19.5 32.167 -19.5 55.5v531h68v-509c0 -10.667 2.16699 -20.834 6.5 -30.501s12 -17.5 23 -23.5s27.167 -9 48.5 -9c22 0 38.667 3 50 9s18.833 13.833 22.5 23.5
s5.5 19.834 5.5 30.501v509h67v-531c0 -23.333 -6.16699 -41.833 -18.5 -55.5s-29.5 -23.5 -51.5 -29.5s-47 -9 -75 -9zM245 678c-12.667 0 -20.167 2.33301 -22.5 7s-3.5 11.667 -3.5 21c0 10.667 1.16699 18.167 3.5 22.5s9.83301 6.5 22.5 6.5
c14.667 0 23.334 -2.16699 26.001 -6.5s4 -11.833 4 -22.5c0 -9.33301 -1.33301 -16.333 -4 -21s-11.334 -7 -26.001 -7zM140 678c-14 0 -22.167 2.33301 -24.5 7s-3.5 11.667 -3.5 21c0 10.667 1.16699 18.167 3.5 22.5s10.5 6.5 24.5 6.5s22.167 -2.16699 24.5 -6.5
s3.5 -11.833 3.5 -22.5c0 -9.33301 -1.33301 -16.333 -4 -21s-10.667 -7 -24 -7z" />
    <glyph glyph-name="uni01DA" unicode="&#x1da;" 
d="M81 698h48l68 -60l69 60h46l-84 -92h-63zM167 0c-34 0 -59.332 4.99902 -75.999 14.999s-27.834 22.333 -33.501 37s-8.5 29.334 -8.5 44.001v374h66v-346c0 -25.333 7 -43.5 21 -54.5s33.667 -16.5 59 -16.5h81v417h66v-470h-175zM249.001 527.999
c-13.333 0 -21.166 2.33301 -23.499 7s-3.5 11.667 -3.5 21c0 10.667 1.16699 18.167 3.5 22.5s10.166 6.5 23.499 6.5c14.667 0 23.167 -2.16699 25.5 -6.5s3.5 -11.833 3.5 -22.5c0 -9.33301 -1.33301 -16.333 -4 -21s-11 -7 -25 -7zM143.001 527.999
c-14 0 -22 2.33301 -24 7s-3 11.667 -3 21c0 10.667 1 18.167 3 22.5s10 6.5 24 6.5s22.167 -2.16699 24.5 -6.5s3.5 -11.833 3.5 -22.5c0 -9.33301 -1.16699 -16.333 -3.5 -21s-10.5 -7 -24.5 -7z" />
    <glyph glyph-name="uni01DB" unicode="&#x1db;" horiz-adv-x="388" 
d="M194 -5c-27.333 0 -52 3 -74 9s-39.5 15.833 -52.5 29.5s-19.5 32.167 -19.5 55.5v531h68v-509c0 -10.667 2.16699 -20.834 6.5 -30.501s12 -17.5 23 -23.5s27.167 -9 48.5 -9c22 0 38.667 3 50 9s18.833 13.833 22.5 23.5s5.5 19.834 5.5 30.501v509h67v-531
c0 -23.333 -6.16699 -41.833 -18.5 -55.5s-29.5 -23.5 -51.5 -29.5s-47 -9 -75 -9zM245 678c-13.333 0 -21 2.33301 -23 7s-3 11.667 -3 21c0 10.667 1 18.167 3 22.5s9.66699 6.5 23 6.5c14.667 0 23.167 -2.16699 25.5 -6.5s3.5 -11.833 3.5 -22.5
c0 -9.33301 -1.16699 -16.333 -3.5 -21s-10.833 -7 -25.5 -7zM139 678c-13.333 0 -21.166 2.33301 -23.499 7s-3.5 11.667 -3.5 21c0 10.667 1.16699 18.167 3.5 22.5s10.166 6.5 23.499 6.5c14.667 0 23.167 -2.16699 25.5 -6.5s3.5 -11.833 3.5 -22.5
c0 -9.33301 -1.33301 -16.333 -4 -21s-11 -7 -25 -7zM190 756l-113 90h62l94 -90h-43z" />
    <glyph glyph-name="uni01DC" unicode="&#x1dc;" 
d="M167 0c-34 0 -59.332 4.99902 -75.999 14.999s-27.834 22.333 -33.501 37s-8.5 29.334 -8.5 44.001v374h66v-346c0 -25.333 7 -43.5 21 -54.5s33.667 -16.5 59 -16.5h81v417h66v-470h-175zM249.001 527.999c-13.333 0 -21 2.33301 -23 7s-3 11.667 -3 21
c0 10.667 1 18.167 3 22.5s9.66699 6.5 23 6.5c14.667 0 23.167 -2.16699 25.5 -6.5s3.5 -11.833 3.5 -22.5c0 -9.33301 -1.16699 -16.333 -3.5 -21s-10.833 -7 -25.5 -7zM143.001 527.999c-13.333 0 -21.166 2.33301 -23.499 7s-3.5 11.667 -3.5 21
c0 10.667 1.16699 18.167 3.5 22.5s10.166 6.5 23.499 6.5c14.667 0 23.167 -2.16699 25.5 -6.5s3.5 -11.833 3.5 -22.5c0 -9.33301 -1.33301 -16.333 -4 -21s-11 -7 -25 -7zM194.001 605.999l-107 96h62l88 -96h-43z" />
    <glyph glyph-name="Gcaron" unicode="&#x1e6;" horiz-adv-x="377" 
d="M72 774h48l68 -60l69 60h46l-84 -92h-63zM193 -4c-32 0 -59.1689 3 -81.502 9s-39.166 16.167 -50.499 30.5s-17 33.833 -17 58.5v431c0 38.667 12.667 65 38 79s62 21 110 21c46.667 0 82.5 -7 107.5 -21s37.5 -40.667 37.5 -80v-102l-68 -5v94
c0 24 -6.33301 39.833 -19 47.5s-31.667 11.5 -57 11.5s-45.333 -3.66699 -60 -11s-22 -23 -22 -47v-408c0 -15.333 3.5 -26.666 10.5 -33.999s16.667 -12.333 29 -15s26.833 -4 43.5 -4c15.333 0 28.833 1.33301 40.5 4s20.667 7.66699 27 15s9.5 18.666 9.5 33.999v172
h-97l6 57h157v-239c0 -24.667 -5.66699 -44.167 -17 -58.5s-27.666 -24.5 -48.999 -30.5s-47.333 -9 -78 -9z" />
    <glyph glyph-name="gcaron" unicode="&#x1e7;" 
d="M82 624h47l69 -60l69 60h46l-84 -92h-63zM102 -174l-8.99805 53.0039h138c18.667 0 30.834 4.5 36.501 13.5s8.5 23.833 8.5 44.5v480h-111c-16.667 0 -28.5 -2.33301 -35.5 -7s-11.167 -11.834 -12.5 -21.501s-2 -23.167 -2 -40.5v-227c0 -18.667 1 -32.834 3 -42.501
s6.16699 -16.334 12.5 -20.001s16.166 -5.5 29.499 -5.5h87l-7 -53h-114c-24.667 0 -42.334 3.66699 -53.001 11s-17.334 20.166 -20.001 38.499s-4 44.5 -4 78.5v243c0 26 3 46.167 9 60.5s16.833 24.333 32.5 30s38.5 8.5 68.5 8.5h183v-549
c0 -32.667 -6.33301 -56.667 -19 -72s-35 -23 -67 -23h-154z" />
    <glyph glyph-name="uni01EA" unicode="&#x1ea;" horiz-adv-x="380" 
d="M189 -4c-48 0 -84.168 8.83301 -108.501 26.5s-36.5 42.5 -36.5 74.5v432c0 28.667 11.333 52.5 34 71.5s59.667 28.167 111 27.5c52.667 -0.666992 90.334 -10.167 113.001 -28.5s34 -41.833 34 -70.5v-432c0 -31.333 -12 -56 -36 -74s-61 -27 -111 -27zM188.999 51
c28.667 0 49.333 5.83301 62 17.5s19 26.834 19 45.501v398c0 16.667 -5.66699 31 -17 43s-33 18 -65 18c-30 0 -50.5 -5.83301 -61.5 -17.5s-16.5 -25.834 -16.5 -42.501v-400c0 -18 6.33301 -32.833 19 -44.5s32.667 -17.5 60 -17.5zM204.998 -170
c-22.667 0 -41.499 7.16895 -56.499 21.502s-22.5 33.833 -22.5 58.5c0 17.333 7.16699 35.666 21.5 54.999s38.166 34.333 71.499 45l37 -4c-23.333 -9.33301 -42.5 -21.333 -57.5 -36s-22.5 -32 -22.5 -52c0 -15.333 4.66699 -28 14 -38s21 -15 35 -15
c10 0 18.833 1.33301 26.5 4s15.5 7.66699 23.5 15l9 -30c-13.333 -8.66699 -26.333 -14.834 -39 -18.501s-26 -5.5 -40 -5.5z" />
    <glyph glyph-name="uni01EB" unicode="&#x1eb;" horiz-adv-x="383" 
d="M186 -4c-39.333 0 -68.998 5.33105 -88.998 15.998s-33.667 24.5 -41 41.5s-11 34.5 -11 52.5v259c0 18.667 3.66699 36.334 11 53.001s21.5 30.334 42.5 41.001s52.167 16 93.5 16c38.667 0 68.5 -5.16699 89.5 -15.5s35.667 -23.833 44 -40.5
s12.5 -34.334 12.5 -53.001v-251c0 -21.333 -4.33301 -41.166 -13 -59.499s-23.834 -32.833 -45.501 -43.5s-52.834 -16 -93.501 -16zM186.002 49.998c28 0 49.332 6.16699 63.999 18.5s22 30.833 22 55.5v230c0 22 -7 39.167 -21 51.5s-33.667 18.5 -59 18.5
s-45.166 -6 -59.499 -18s-21.5 -29.333 -21.5 -52v-236c0 -22 7 -38.833 21 -50.5s32 -17.5 54 -17.5zM230.001 -170.002c-22.667 0 -41.499 7.16895 -56.499 21.502s-22.5 33.833 -22.5 58.5c0 17.333 7.16699 35.666 21.5 54.999s38.166 34.333 71.499 45l37 -4
c-23.333 -9.33301 -42.5 -21.333 -57.5 -36s-22.5 -32 -22.5 -52c0 -15.333 4.66699 -28 14 -38s21 -15 35 -15c10 0 18.833 1.33301 26.5 4s15.5 7.66699 23.5 15l9 -30c-13.333 -8.66699 -26.333 -14.834 -39 -18.501s-26 -5.5 -40 -5.5z" />
    <glyph glyph-name="Aringacute" unicode="&#x1fa;" horiz-adv-x="381" 
d="M16 0l130 620h89l129 -620h-70l-30 146l13 -12h-176l11 12l-28 -146h-68zM114 180l-7 8h165l-9 -8l-64 352l-2 10h-14l-2 -10zM190 676c-23.333 0 -42.5 7.33301 -57.5 22s-22.5 32 -22.5 52c0 20.667 7.5 38.334 22.5 53.001s34.167 22 57.5 22
c21.333 0 39.5 -7.33301 54.5 -22s22.5 -32.334 22.5 -53.001c0 -20 -7.5 -37.333 -22.5 -52s-33.167 -22 -54.5 -22zM190 705c12 0 22.667 4.33301 32 13s14 19 14 31c0 12.667 -4.66699 23.667 -14 33s-20 14 -32 14c-14 0 -25.5 -4.66699 -34.5 -14
s-13.5 -20.333 -13.5 -33c0 -12 4.5 -22.333 13.5 -31s20.5 -13 34.5 -13zM133 853l94 90h62l-113 -90h-43z" />
    <glyph glyph-name="aringacute" unicode="&#x1fb;" 
d="M126 0c-24.667 0 -42.3311 3.6709 -52.998 11.0039s-17.334 20.166 -20.001 38.499s-4 44.5 -4 78.5v243c0 26 3 46.167 9 60.5s16.833 24.333 32.5 30s38.5 8.5 68.5 8.5h183v-470h-66v417h-111c-16.667 0 -28.5 -2.33301 -35.5 -7s-11.167 -11.834 -12.5 -21.501
s-2 -23.167 -2 -40.5v-227c0 -18.667 1 -32.834 3 -42.501s6.16699 -16.334 12.5 -20.001s16.166 -5.5 29.499 -5.5h87l-7 -53h-114zM203.003 526.004c-23.333 0 -42.5 7.33301 -57.5 22s-22.5 32 -22.5 52c0 20.667 7.5 38.334 22.5 53.001s34.167 22 57.5 22
c21.333 0 39.5 -7.33301 54.5 -22s22.5 -32.334 22.5 -53.001c0 -20 -7.5 -37.333 -22.5 -52s-33.167 -22 -54.5 -22zM203.003 555.004c12 0 22.667 4.33301 32 13s14 19 14 31c0 12.667 -4.66699 23.667 -14 33s-20 14 -32 14c-14 0 -25.5 -4.66699 -34.5 -14
s-13.5 -20.333 -13.5 -33c0 -12 4.5 -22.333 13.5 -31s20.5 -13 34.5 -13zM146.003 703.004l88 96h62l-107 -96h-43z" />
    <glyph glyph-name="AEacute" unicode="&#x1fc;" horiz-adv-x="601" 
d="M280 620h293v-53h-225v-194h207l-9 -53h-198v-267h225v-53h-293v620zM72 135v53h225v-53h-225zM15 0l153 620h58l-143 -620h-68zM179 567v53h116v-53h-116zM244 682l88 96h62l-107 -96h-43z" />
    <glyph glyph-name="aeacute" unicode="&#x1fd;" horiz-adv-x="581" 
d="M126 0c-24.667 0 -42.3311 3.6709 -52.998 11.0039s-17.334 20.166 -20.001 38.499s-4 44.5 -4 78.5v243c0 26 3 46.167 9 60.5s16.833 24.333 32.5 30s38.5 8.5 68.5 8.5h183v-470h-66v417h-111c-16.667 0 -28.5 -2.33301 -35.5 -7s-11.167 -11.834 -12.5 -21.501
s-2 -23.167 -2 -40.5v-227c0 -18.667 1 -32.834 3 -42.501s6.16699 -16.334 12.5 -20.001s16.166 -5.5 29.499 -5.5h87l-7 -53h-114zM415.003 -0.996094c-39.333 0 -68.999 5.33105 -88.999 15.998s-33.667 24.5 -41 41.5s-11 34.5 -11 52.5v259
c0 18.667 3.66699 36.334 11 53.001s21.5 30.334 42.5 41.001s52.167 16 93.5 16c38.667 0 68.5 -5.16699 89.5 -15.5s35.667 -23.833 44 -40.5s12.5 -34.334 12.5 -53.001v-108l-66 -4v100c0 22 -7 39.167 -21 51.5s-33.667 18.5 -59 18.5s-45.166 -6 -59.499 -18
s-21.5 -29.333 -21.5 -52v-236c0 -22 7 -38.833 21 -50.5s32 -17.5 54 -17.5c28 0 49.333 6.16699 64 18.5s22 30.833 22 55.5v45l66 6v-60c0 -21.333 -4.33301 -41.166 -13 -59.499s-23.834 -32.833 -45.501 -43.5s-52.834 -16 -93.501 -16zM284.004 229.002v37h283v-37
h-283zM234.004 532.002l88 96h62l-107 -96h-43z" />
    <glyph glyph-name="Oslashacute" unicode="&#x1fe;" horiz-adv-x="382" 
d="M191 -4c-48.667 0 -85.333 8.83301 -110 26.5s-37 42.5 -37 74.5v427c0 34 11.5 59.833 34.5 77.5s59.833 26.167 110.5 25.5c50.667 0 88 -8.83301 112 -26.5s36 -43.5 36 -77.5v-426c0 -31.333 -12.833 -56 -38.5 -74s-61.5 -27 -107.5 -27zM189.001 51
c30 0 51.168 6 63.501 18s18.5 26.333 18.5 43v395c0 12 -2.33301 23 -7 33s-13 17.833 -25 23.5s-29 8.5 -51 8.5c-30.667 0 -51.334 -6.66699 -62.001 -20s-16 -28 -16 -44v-396c0 -16.667 6.16699 -31 18.5 -43s32.5 -18 60.5 -18zM61.002 -44l221 679h31l-224 -679h-28z
M135.002 682l94 90h62l-113 -90h-43z" />
    <glyph glyph-name="oslashacute" unicode="&#x1ff;" horiz-adv-x="359" 
d="M175 -4c-39.333 0 -69 5.33105 -89 15.998s-33.667 24.5 -41 41.5s-11 34.5 -11 52.5v258c0 18.667 3.66699 36.334 11 53.001s21.5 30.334 42.5 41.001s52.167 16 93.5 16c38.667 0 68.5 -5.16699 89.5 -15.5s35.667 -23.833 44 -40.5s12.5 -34.334 12.5 -53.001v-250
c0 -21.333 -4.16699 -41.166 -12.5 -59.499s-23.5 -32.833 -45.5 -43.5s-53.333 -16 -94 -16zM175 49.998c28 0 49.334 6.16699 64.001 18.5s22 30.833 22 55.5v229c0 22 -7.16699 39.167 -21.5 51.5s-33.833 18.5 -58.5 18.5s-44.334 -6 -59.001 -18s-22 -29.333 -22 -52
v-235c0 -22 7 -38.833 21 -50.5s32 -17.5 54 -17.5zM38.001 -94.002l-19 3l310 663l21 -3zM124.001 531.998l88 96h62l-107 -96h-43z" />
    <glyph glyph-name="uni0200" unicode="&#x200;" horiz-adv-x="381" 
d="M16 0l130 620h89l129 -620h-70l-30 146l13 -12h-176l11 12l-28 -146h-68zM114 180l-7 8h165l-9 -8l-64 352l-2 10h-14l-2 -10zM122 682l-107 96h62l88 -96h-43zM211 682l-107 96h62l88 -96h-43z" />
    <glyph glyph-name="uni0201" unicode="&#x201;" 
d="M126 0c-24.667 0 -42.3311 3.6709 -52.998 11.0039s-17.334 20.166 -20.001 38.499s-4 44.5 -4 78.5v243c0 26 3 46.167 9 60.5s16.833 24.333 32.5 30s38.5 8.5 68.5 8.5h183v-470h-66v417h-111c-16.667 0 -28.5 -2.33301 -35.5 -7s-11.167 -11.834 -12.5 -21.501
s-2 -23.167 -2 -40.5v-227c0 -18.667 1 -32.834 3 -42.501s6.16699 -16.334 12.5 -20.001s16.166 -5.5 29.499 -5.5h87l-7 -53h-114zM135.003 532.004l-107 96h62l88 -96h-43zM224.003 532.004l-107 96h62l88 -96h-43z" />
    <glyph glyph-name="uni0202" unicode="&#x202;" horiz-adv-x="381" 
d="M187 774c38 0 65.332 -9.16797 81.999 -27.501s25 -41.166 25 -68.499h-42c-0.666992 18 -5.66699 32.833 -15 44.5s-25.666 17.5 -48.999 17.5c-22 0 -37.5 -6.16699 -46.5 -18.5s-13.5 -26.833 -13.5 -43.5h-42c0 16 3 31.333 9 46s16.333 26.667 31 36s35 14 61 14z
M15.999 -0.000976562l130 620h89l129 -620h-70l-30 146l13 -12h-176l11 12l-28 -146h-68zM113.999 179.999l-7 8h165l-9 -8l-64 352l-2 10h-14l-2 -10z" />
    <glyph glyph-name="uni0203" unicode="&#x203;" 
d="M200 624c38 0 65.332 -9.16797 81.999 -27.501s25 -41.166 25 -68.499h-42c-0.666992 18 -5.66699 32.833 -15 44.5s-25.666 17.5 -48.999 17.5c-22 0 -37.5 -6.16699 -46.5 -18.5s-13.5 -26.833 -13.5 -43.5h-42c0 16 3 31.333 9 46s16.333 26.667 31 36s35 14 61 14z
M125.999 -0.000976562c-24.667 0 -42.3311 3.6709 -52.998 11.0039s-17.334 20.166 -20.001 38.499s-4 44.5 -4 78.5v243c0 26 3 46.167 9 60.5s16.833 24.333 32.5 30s38.5 8.5 68.5 8.5h183v-470h-66v417h-111c-16.667 0 -28.5 -2.33301 -35.5 -7
s-11.167 -11.834 -12.5 -21.501s-2 -23.167 -2 -40.5v-227c0 -18.667 1 -32.834 3 -42.501s6.16699 -16.334 12.5 -20.001s16.166 -5.5 29.499 -5.5h87l-7 -53h-114z" />
    <glyph glyph-name="uni0204" unicode="&#x204;" horiz-adv-x="364" 
d="M52 620h285v-53h-217v-194h199l-9 -53h-190v-267h217v-53h-285v620zM116 682l-107 96h62l88 -96h-43zM205 682l-107 96h62l88 -96h-43z" />
    <glyph glyph-name="uni0205" unicode="&#x205;" horiz-adv-x="383" 
d="M186 -4c-39.333 0 -68.999 5.33105 -88.999 15.998s-33.667 24.5 -41 41.5s-11 34.5 -11 52.5v259c0 18.667 3.66699 36.334 11 53.001s21.5 30.334 42.5 41.001s52.167 16 93.5 16c38.667 0 68.5 -5.16699 89.5 -15.5s35.667 -23.833 44 -40.5
s12.5 -34.334 12.5 -53.001v-108l-66 -4v100c0 22 -7 39.167 -21 51.5s-33.667 18.5 -59 18.5s-45.166 -6 -59.499 -18s-21.5 -29.333 -21.5 -52v-236c0 -22 7 -38.833 21 -50.5s32 -17.5 54 -17.5c28 0 49.333 6.16699 64 18.5s22 30.833 22 55.5v45l66 6v-60
c0 -21.333 -4.33301 -41.166 -13 -59.499s-23.834 -32.833 -45.501 -43.5s-52.834 -16 -93.501 -16zM55.001 225.998v37h283v-37h-283zM124.001 531.998l-107 96h62l88 -96h-43zM213.001 531.998l-107 96h62l88 -96h-43z" />
    <glyph glyph-name="uni0206" unicode="&#x206;" horiz-adv-x="364" 
d="M181 774c38 0 65.332 -9.16797 81.999 -27.501s25 -41.166 25 -68.499h-42c-0.666992 18 -5.66699 32.833 -15 44.5s-25.666 17.5 -48.999 17.5c-22 0 -37.5 -6.16699 -46.5 -18.5s-13.5 -26.833 -13.5 -43.5h-42c0 16 3 31.333 9 46s16.333 26.667 31 36s35 14 61 14z
M51.999 619.999h285v-53h-217v-194h199l-9 -53h-190v-267h217v-53h-285v620z" />
    <glyph glyph-name="uni0207" unicode="&#x207;" horiz-adv-x="383" 
d="M189 624c38 0 65.332 -9.16797 81.999 -27.501s25 -41.166 25 -68.499h-42c-0.666992 18 -5.66699 32.833 -15 44.5s-25.666 17.5 -48.999 17.5c-22 0 -37.5 -6.16699 -46.5 -18.5s-13.5 -26.833 -13.5 -43.5h-42c0 16 3 31.333 9 46s16.333 26.667 31 36s35 14 61 14z
M185.999 -4.00098c-39.333 0 -68.999 5.33105 -88.999 15.998s-33.667 24.5 -41 41.5s-11 34.5 -11 52.5v259c0 18.667 3.66699 36.334 11 53.001s21.5 30.334 42.5 41.001s52.167 16 93.5 16c38.667 0 68.5 -5.16699 89.5 -15.5s35.667 -23.833 44 -40.5
s12.5 -34.334 12.5 -53.001v-108l-66 -4v100c0 22 -7 39.167 -21 51.5s-33.667 18.5 -59 18.5s-45.166 -6 -59.499 -18s-21.5 -29.333 -21.5 -52v-236c0 -22 7 -38.833 21 -50.5s32 -17.5 54 -17.5c28 0 49.333 6.16699 64 18.5s22 30.833 22 55.5v45l66 6v-60
c0 -21.333 -4.33301 -41.166 -13 -59.499s-23.834 -32.833 -45.501 -43.5s-52.834 -16 -93.501 -16zM55 225.997v37h283v-37h-283z" />
    <glyph glyph-name="uni0208" unicode="&#x208;" horiz-adv-x="172" 
d="M52 620h68v-620h-68v620zM18 682l-107 96h62l88 -96h-43zM107 682l-107 96h62l88 -96h-43z" />
    <glyph glyph-name="uni0209" unicode="&#x209;" horiz-adv-x="174" 
d="M54 470h66v-470h-66v470zM19 532l-107 96h62l88 -96h-43zM108 532l-107 96h62l88 -96h-43z" />
    <glyph glyph-name="uni020A" unicode="&#x20a;" horiz-adv-x="172" 
d="M83 774c38 0 65.333 -9.16797 82 -27.501s25 -41.166 25 -68.499h-42c0 18 -4.83301 32.833 -14.5 44.5s-26.167 17.5 -49.5 17.5c-22 0 -37.5 -6.16699 -46.5 -18.5s-13.5 -26.833 -13.5 -43.5h-42c0 16 3 31.333 9 46s16.333 26.667 31 36s35 14 61 14zM52 619.999h68
v-620h-68v620z" />
    <glyph glyph-name="uni020B" unicode="&#x20b;" horiz-adv-x="174" 
d="M84 624c38.667 0 66.166 -9.16797 82.499 -27.501s24.5 -41.166 24.5 -68.499h-42c0 18 -4.83301 32.833 -14.5 44.5s-26.167 17.5 -49.5 17.5c-21.333 0 -36.666 -6.16699 -45.999 -18.5s-14 -26.833 -14 -43.5h-42c0 16 3 31.333 9 46s16.5 26.667 31.5 36
s35.167 14 60.5 14zM53.999 469.999h66v-470h-66v470z" />
    <glyph glyph-name="uni020C" unicode="&#x20c;" horiz-adv-x="380" 
d="M189 -4c-48 0 -84.168 8.83301 -108.501 26.5s-36.5 42.5 -36.5 74.5v432c0 28.667 11.333 52.5 34 71.5s59.667 28.167 111 27.5c52.667 -0.666992 90.334 -10.167 113.001 -28.5s34 -41.833 34 -70.5v-432c0 -31.333 -12 -56 -36 -74s-61 -27 -111 -27zM188.999 51
c28.667 0 49.333 5.83301 62 17.5s19 26.834 19 45.501v398c0 16.667 -5.66699 31 -17 43s-33 18 -65 18c-30 0 -50.5 -5.83301 -61.5 -17.5s-16.5 -25.834 -16.5 -42.501v-400c0 -18 6.33301 -32.833 19 -44.5s32.667 -17.5 60 -17.5zM121.998 682l-107 96h62l88 -96h-43z
M210.998 682l-107 96h62l88 -96h-43z" />
    <glyph glyph-name="uni020D" unicode="&#x20d;" horiz-adv-x="383" 
d="M186 -4c-39.333 0 -68.998 5.33105 -88.998 15.998s-33.667 24.5 -41 41.5s-11 34.5 -11 52.5v259c0 18.667 3.66699 36.334 11 53.001s21.5 30.334 42.5 41.001s52.167 16 93.5 16c38.667 0 68.5 -5.16699 89.5 -15.5s35.667 -23.833 44 -40.5
s12.5 -34.334 12.5 -53.001v-251c0 -21.333 -4.33301 -41.166 -13 -59.499s-23.834 -32.833 -45.501 -43.5s-52.834 -16 -93.501 -16zM186.002 49.998c28 0 49.332 6.16699 63.999 18.5s22 30.833 22 55.5v230c0 22 -7 39.167 -21 51.5s-33.667 18.5 -59 18.5
s-45.166 -6 -59.499 -18s-21.5 -29.333 -21.5 -52v-236c0 -22 7 -38.833 21 -50.5s32 -17.5 54 -17.5zM124.001 531.998l-107 96h62l88 -96h-43zM213.001 531.998l-107 96h62l88 -96h-43z" />
    <glyph glyph-name="uni020E" unicode="&#x20e;" horiz-adv-x="380" 
d="M187 774c38 0 65.333 -9.16797 82 -27.501s25 -41.166 25 -68.499h-42c0 18 -4.83301 32.833 -14.5 44.5s-26.167 17.5 -49.5 17.5c-22 0 -37.5 -6.16699 -46.5 -18.5s-13.5 -26.833 -13.5 -43.5h-42c0 16 3 31.333 9 46s16.5 26.667 31.5 36s35.167 14 60.5 14z
M189 -4.00098c-48 0 -84.168 8.83301 -108.501 26.5s-36.5 42.5 -36.5 74.5v432c0 28.667 11.333 52.5 34 71.5s59.667 28.167 111 27.5c52.667 -0.666992 90.334 -10.167 113.001 -28.5s34 -41.833 34 -70.5v-432c0 -31.333 -12 -56 -36 -74s-61 -27 -111 -27z
M188.999 50.999c28.667 0 49.333 5.83301 62 17.5s19 26.834 19 45.501v398c0 16.667 -5.66699 31 -17 43s-33 18 -65 18c-30 0 -50.5 -5.83301 -61.5 -17.5s-16.5 -25.834 -16.5 -42.501v-400c0 -18 6.33301 -32.833 19 -44.5s32.667 -17.5 60 -17.5z" />
    <glyph glyph-name="uni020F" unicode="&#x20f;" horiz-adv-x="383" 
d="M189 624c38 0 65.332 -9.16797 81.999 -27.501s25 -41.166 25 -68.499h-42c-0.666992 18 -5.66699 32.833 -15 44.5s-25.666 17.5 -48.999 17.5c-22 0 -37.5 -6.16699 -46.5 -18.5s-13.5 -26.833 -13.5 -43.5h-42c0 16 3 31.333 9 46s16.333 26.667 31 36s35 14 61 14z
M185.999 -4.00098c-39.333 0 -68.998 5.33105 -88.998 15.998s-33.667 24.5 -41 41.5s-11 34.5 -11 52.5v259c0 18.667 3.66699 36.334 11 53.001s21.5 30.334 42.5 41.001s52.167 16 93.5 16c38.667 0 68.5 -5.16699 89.5 -15.5s35.667 -23.833 44 -40.5
s12.5 -34.334 12.5 -53.001v-251c0 -21.333 -4.33301 -41.166 -13 -59.499s-23.834 -32.833 -45.501 -43.5s-52.834 -16 -93.501 -16zM186.001 49.9971c28 0 49.332 6.16699 63.999 18.5s22 30.833 22 55.5v230c0 22 -7 39.167 -21 51.5s-33.667 18.5 -59 18.5
s-45.166 -6 -59.499 -18s-21.5 -29.333 -21.5 -52v-236c0 -22 7 -38.833 21 -50.5s32 -17.5 54 -17.5z" />
    <glyph glyph-name="uni0210" unicode="&#x210;" horiz-adv-x="393" 
d="M52 620l198.999 -0.000976562c28.667 0 49.834 -3.5 63.501 -10.5s22.667 -17.667 27 -32s6.5 -32.166 6.5 -53.499v-117c0 -24 -2 -46.5 -6 -67.5s-14.333 -38 -31 -51s-44 -19.5 -82 -19.5h-109v-269h-68v620zM310.999 -15.001l-114 288l46 4l19 -6l4 -6l108 -256z
M209.999 321.999c23.333 0 41 6.16699 53 18.5s18 32.833 18 61.5v94c0 27.333 -4.16699 46 -12.5 56s-24.5 15 -48.5 15h-100v-245h90zM117.999 681.999l-107 96h62l88 -96h-43zM206.999 681.999l-107 96h62l88 -96h-43z" />
    <glyph glyph-name="uni0211" unicode="&#x211;" horiz-adv-x="282" 
d="M54 0l0.000976562 470h53l7 -49c10.667 17.333 24.667 30.833 42 40.5s35.666 14.5 54.999 14.5c16 0 28.5 -0.833008 37.5 -2.5s16.833 -4.16699 23.5 -7.5l-3 -59c-8 4 -17 6.83301 -27 8.5s-22 2.5 -36 2.5c-20.667 0 -38.5 -5.5 -53.5 -16.5
s-25.833 -25.833 -32.5 -44.5v-357h-66zM99.001 532l-107 96h62l88 -96h-43zM188.001 532l-107 96h62l88 -96h-43z" />
    <glyph glyph-name="uni0212" unicode="&#x212;" horiz-adv-x="393" 
d="M183 774c38 0 65.333 -9.16797 82 -27.501s25 -41.166 25 -68.499h-42c0 18 -4.83301 32.833 -14.5 44.5s-26.167 17.5 -49.5 17.5c-22 0 -37.5 -6.16699 -46.5 -18.5s-13.5 -26.833 -13.5 -43.5h-42c0 16 3 31.333 9 46s16.5 26.667 31.5 36s35.167 14 60.5 14z
M52 619.999l198.999 -0.000976562c28.667 0 49.834 -3.5 63.501 -10.5s22.667 -17.667 27 -32s6.5 -32.166 6.5 -53.499v-117c0 -24 -2 -46.5 -6 -67.5s-14.333 -38 -31 -51s-44 -19.5 -82 -19.5h-109v-269h-68v620zM310.999 -15.002l-114 288l46 4l19 -6l4 -6l108 -256z
M209.999 321.998c23.333 0 41 6.16699 53 18.5s18 32.833 18 61.5v94c0 27.333 -4.16699 46 -12.5 56s-24.5 15 -48.5 15h-100v-245h90z" />
    <glyph glyph-name="uni0213" unicode="&#x213;" horiz-adv-x="282" 
d="M164 624c38.667 0 66.166 -9.16797 82.499 -27.501s24.5 -41.166 24.5 -68.499h-42c0 18 -4.83301 32.833 -14.5 44.5s-26.167 17.5 -49.5 17.5c-21.333 0 -36.666 -6.16699 -45.999 -18.5s-14 -26.833 -14 -43.5h-42c0 16 3 31.333 9 46s16.333 26.667 31 36
s35 14 61 14zM53.999 -0.000976562l0.000976562 470h53l7 -49c10.667 17.333 24.667 30.833 42 40.5s35.666 14.5 54.999 14.5c16 0 28.5 -0.833008 37.5 -2.5s16.833 -4.16699 23.5 -7.5l-3 -59c-8 4 -17 6.83301 -27 8.5s-22 2.5 -36 2.5
c-20.667 0 -38.5 -5.5 -53.5 -16.5s-25.833 -25.833 -32.5 -44.5v-357h-66z" />
    <glyph glyph-name="uni0214" unicode="&#x214;" horiz-adv-x="388" 
d="M194 -5c-27.333 0 -52 3 -74 9s-39.5 15.833 -52.5 29.5s-19.5 32.167 -19.5 55.5v531h68v-509c0 -10.667 2.16699 -20.834 6.5 -30.501s12 -17.5 23 -23.5s27.167 -9 48.5 -9c22 0 38.667 3 50 9s18.833 13.833 22.5 23.5s5.5 19.834 5.5 30.501v509h67v-531
c0 -23.333 -6.16699 -41.833 -18.5 -55.5s-29.5 -23.5 -51.5 -29.5s-47 -9 -75 -9zM126 682l-107 96h62l88 -96h-43zM215 682l-107 96h62l88 -96h-43z" />
    <glyph glyph-name="uni0215" unicode="&#x215;" 
d="M167 0c-34 0 -59.332 4.99902 -75.999 14.999s-27.834 22.333 -33.501 37s-8.5 29.334 -8.5 44.001v374h66v-346c0 -25.333 7 -43.5 21 -54.5s33.667 -16.5 59 -16.5h81v417h66v-470h-175zM130.001 531.999l-107 96h62l88 -96h-43zM218.001 531.999l-107 96h62l88 -96
h-43z" />
    <glyph glyph-name="uni0216" unicode="&#x216;" horiz-adv-x="388" 
d="M191 774c38 0 65.333 -9.16797 82 -27.501s25 -41.166 25 -68.499h-42c0 18 -4.83301 32.833 -14.5 44.5s-26.167 17.5 -49.5 17.5c-22 0 -37.5 -6.16699 -46.5 -18.5s-13.5 -26.833 -13.5 -43.5h-42c0 16 3 31.333 9 46s16.333 26.667 31 36s35 14 61 14zM194 -5.00098
c-27.333 0 -52 3 -74 9s-39.5 15.833 -52.5 29.5s-19.5 32.167 -19.5 55.5v531h68v-509c0 -10.667 2.16699 -20.834 6.5 -30.501s12 -17.5 23 -23.5s27.167 -9 48.5 -9c22 0 38.667 3 50 9s18.833 13.833 22.5 23.5s5.5 19.834 5.5 30.501v509h67v-531
c0 -23.333 -6.16699 -41.833 -18.5 -55.5s-29.5 -23.5 -51.5 -29.5s-47 -9 -75 -9z" />
    <glyph glyph-name="uni0217" unicode="&#x217;" 
d="M195 624c38 0 65.167 -9.16797 81.5 -27.501s24.5 -41.166 24.5 -68.499h-42c0 18 -4.66699 32.833 -14 44.5s-26 17.5 -50 17.5c-21.333 0 -36.5 -6.16699 -45.5 -18.5s-13.5 -26.833 -13.5 -43.5h-43c0 16 3 31.333 9 46s16.5 26.667 31.5 36s35.5 14 61.5 14z
M167 -0.000976562c-34 0 -59.332 4.99902 -75.999 14.999s-27.834 22.333 -33.501 37s-8.5 29.334 -8.5 44.001v374h66v-346c0 -25.333 7 -43.5 21 -54.5s33.667 -16.5 59 -16.5h81v417h66v-470h-175z" />
    <glyph glyph-name="uni0218" unicode="&#x218;" horiz-adv-x="370" 
d="M191 -5c-29.333 0.666992 -55.499 3 -78.499 7s-41.167 11.833 -54.5 23.5s-20 28.167 -20 49.5v132l67 9v-115c0 -16.667 5.83301 -29.5 17.5 -38.5s33.167 -13.5 64.5 -13.5c20.667 0 36.5 2.33301 47.5 7s18.5 11.834 22.5 21.501s6 22.167 6 37.5v84
c0 22.667 -5.5 41.167 -16.5 55.5s-27.5 24.833 -49.5 31.5l-75 21c-30 9.33301 -51.5 21.166 -64.5 35.499s-19.5 36.5 -19.5 66.5v116c0 28.667 6.5 50 19.5 64s31 23.333 54 28s49.167 7 78.5 7c28 0 52.5 -2.33301 73.5 -7s37.333 -12.667 49 -24
s17.5 -27.666 17.5 -48.999v-132l-67 -11v112c0 22 -5 37.333 -15 46s-30.333 13 -61 13c-30 0 -51.167 -5.16699 -63.5 -15.5s-18.5 -28.833 -18.5 -55.5v-77c0 -19.333 5.33301 -35.333 16 -48s25 -21.667 43 -27l80 -23c31.333 -9.33301 53.5 -21.833 66.5 -37.5
s19.5 -38.834 19.5 -69.501v-122c0 -28.667 -5.66699 -50.167 -17 -64.5s-27.333 -24 -48 -29s-45.334 -7.83301 -74.001 -8.5zM146.001 -168c10 16 18.166 31.002 24.499 45.002s9.5 27.667 9.5 41c-10 0 -16.167 1.66699 -18.5 5s-3.5 7.66602 -3.5 12.999
c0 8 1.33301 13.667 4 17s11.334 5 26.001 5c12.667 0 20.167 -1.5 22.5 -4.5s3.5 -8.5 3.5 -16.5c0 -11.333 -1.66699 -23.833 -5 -37.5s-7.83301 -26.334 -13.5 -38.001s-11.5 -21.5 -17.5 -29.5h-32z" />
    <glyph glyph-name="uni0219" unicode="&#x219;" horiz-adv-x="356" 
d="M174 -6c-48 0 -82.1709 9.83301 -102.504 29.5s-30.5 47.167 -30.5 82.5v67l59 8v-72c0 -11.333 2 -22.333 6 -33s11.333 -19.334 22 -26.001s26.334 -10 47.001 -10c24.667 0 44 4.5 58 13.5s21 27.5 21 55.5c0 27.333 -3.5 47.5 -10.5 60.5s-21.167 24.5 -42.5 34.5
c-5.33301 2.66699 -12.333 5.83398 -21 9.50098l-28 11.5c-10 4 -19.167 8 -27.5 12l-18.5 9c-17.333 10 -30.666 19.667 -39.999 29s-15.833 20 -19.5 32s-5.5 26.333 -5.5 43v14c0 38 11.167 66 33.5 84s57.5 27 105.5 27c48.667 0 83.334 -8.33301 104.001 -25
s31 -43.667 31 -81v-66l-61 -8v68c0 26 -6.5 43.5 -19.5 52.5s-31.833 13.5 -56.5 13.5c-23.333 0 -40.5 -3.5 -51.5 -10.5s-18 -15.833 -21 -26.5s-4.5 -21 -4.5 -31c0 -23.333 2.5 -39.833 7.5 -49.5s15.167 -18.834 30.5 -27.501c7.33301 -4 16.833 -8.5 28.5 -13.5
l36.5 -15.5c12.667 -5.33301 24.667 -11 36 -17c28.667 -13.333 48.334 -28.166 59.001 -44.499s16 -39.833 16 -70.5v-11c0 -39.333 -10 -68.833 -30 -88.5s-57 -29.5 -111 -29.5zM139.996 -168c10 16 18.166 31.002 24.499 45.002s9.5 27.667 9.5 41
c-10 0 -16.167 1.66699 -18.5 5s-3.5 7.66602 -3.5 12.999c0 8 1.33301 13.667 4 17s11.334 5 26.001 5c12.667 0 20.167 -1.5 22.5 -4.5s3.5 -8.5 3.5 -16.5c0 -11.333 -1.66699 -23.833 -5 -37.5s-7.83301 -26.334 -13.5 -38.001s-11.5 -21.5 -17.5 -29.5h-32z" />
    <glyph glyph-name="uni021A" unicode="&#x21a;" horiz-adv-x="321" 
d="M126 567h-109v53h287v-53h-110v-567h-68v567zM122 -168c10 16 18.166 31.002 24.499 45.002s9.5 27.667 9.5 41c-10 0 -16.167 1.66699 -18.5 5s-3.5 7.66602 -3.5 12.999c0 8 1.33301 13.667 4 17s11.334 5 26.001 5c12.667 0 20.167 -1.5 22.5 -4.5s3.5 -8.5 3.5 -16.5
c0 -11.333 -1.66699 -23.833 -5 -37.5s-7.83301 -26.334 -13.5 -38.001s-11.5 -21.5 -17.5 -29.5h-32z" />
    <glyph glyph-name="uni021B" unicode="&#x21b;" horiz-adv-x="231" 
d="M168 0c-25.333 0 -46.168 2.83301 -62.501 8.5s-28.333 16 -36 31s-11.5 35.833 -11.5 62.5v318h-33v50h40l11 88h48v-88h85l-15 -50h-70v-297c0 -27.333 5.33301 -45.833 16 -55.5s26.334 -14.5 47.001 -14.5h32v-53h-51zM119.998 -167
c10 16 18.166 31.002 24.499 45.002s9.5 27.667 9.5 41c-10 0 -16.167 1.66699 -18.5 5s-3.5 7.66602 -3.5 12.999c0 8 1.33301 13.667 4 17s11.334 5 26.001 5c12.667 0 20.167 -1.5 22.5 -4.5s3.5 -8.5 3.5 -16.5c0 -11.333 -1.66699 -23.833 -5 -37.5
s-7.83301 -26.334 -13.5 -38.001s-11.5 -21.5 -17.5 -29.5h-32z" />
    <glyph glyph-name="uni022A" unicode="&#x22a;" horiz-adv-x="380" 
d="M189 -4c-48 0 -84.168 8.83301 -108.501 26.5s-36.5 42.5 -36.5 74.5v432c0 28.667 11.333 52.5 34 71.5s59.667 28.167 111 27.5c52.667 -0.666992 90.334 -10.167 113.001 -28.5s34 -41.833 34 -70.5v-432c0 -31.333 -12 -56 -36 -74s-61 -27 -111 -27zM188.999 51
c28.667 0 49.333 5.83301 62 17.5s19 26.834 19 45.501v398c0 16.667 -5.66699 31 -17 43s-33 18 -65 18c-30 0 -50.5 -5.83301 -61.5 -17.5s-16.5 -25.834 -16.5 -42.501v-400c0 -18 6.33301 -32.833 19 -44.5s32.667 -17.5 60 -17.5zM240.998 678
c-13.333 0 -21 2.33301 -23 7s-3 11.667 -3 21c0 10.667 1 18.167 3 22.5s9.66699 6.5 23 6.5c14.667 0 23.167 -2.16699 25.5 -6.5s3.5 -11.833 3.5 -22.5c0 -9.33301 -1.16699 -16.333 -3.5 -21s-10.833 -7 -25.5 -7zM134.998 678c-13.333 0 -21.166 2.33301 -23.499 7
s-3.5 11.667 -3.5 21c0 10.667 1.16699 18.167 3.5 22.5s10.166 6.5 23.499 6.5c14.667 0 23.167 -2.16699 25.5 -6.5s3.5 -11.833 3.5 -22.5c0 -9.33301 -1.33301 -16.333 -4 -21s-11 -7 -25 -7zM75.998 761v42h228v-42h-228z" />
    <glyph glyph-name="uni022B" unicode="&#x22b;" horiz-adv-x="383" 
d="M186 -4c-39.333 0 -68.998 5.33105 -88.998 15.998s-33.667 24.5 -41 41.5s-11 34.5 -11 52.5v259c0 18.667 3.66699 36.334 11 53.001s21.5 30.334 42.5 41.001s52.167 16 93.5 16c38.667 0 68.5 -5.16699 89.5 -15.5s35.667 -23.833 44 -40.5
s12.5 -34.334 12.5 -53.001v-251c0 -21.333 -4.33301 -41.166 -13 -59.499s-23.834 -32.833 -45.501 -43.5s-52.834 -16 -93.501 -16zM186.002 49.998c28 0 49.332 6.16699 63.999 18.5s22 30.833 22 55.5v230c0 22 -7 39.167 -21 51.5s-33.667 18.5 -59 18.5
s-45.166 -6 -59.499 -18s-21.5 -29.333 -21.5 -52v-236c0 -22 7 -38.833 21 -50.5s32 -17.5 54 -17.5zM243.001 527.998c-13.333 0 -21 2.33301 -23 7s-3 11.667 -3 21c0 10.667 1 18.167 3 22.5s9.66699 6.5 23 6.5c14.667 0 23.167 -2.16699 25.5 -6.5
s3.5 -11.833 3.5 -22.5c0 -9.33301 -1.16699 -16.333 -3.5 -21s-10.833 -7 -25.5 -7zM137.001 527.998c-13.333 0 -21.166 2.33301 -23.499 7s-3.5 11.667 -3.5 21c0 10.667 1.16699 18.167 3.5 22.5s10.166 6.5 23.499 6.5c14.667 0 23.167 -2.16699 25.5 -6.5
s3.5 -11.833 3.5 -22.5c0 -9.33301 -1.33301 -16.333 -4 -21s-11 -7 -25 -7zM78.001 610.998v42h228v-42h-228z" />
    <glyph glyph-name="uni022C" unicode="&#x22c;" horiz-adv-x="380" 
d="M189 -4c-48 0 -84.168 8.83301 -108.501 26.5s-36.5 42.5 -36.5 74.5v432c0 28.667 11.333 52.5 34 71.5s59.667 28.167 111 27.5c52.667 -0.666992 90.334 -10.167 113.001 -28.5s34 -41.833 34 -70.5v-432c0 -31.333 -12 -56 -36 -74s-61 -27 -111 -27zM188.999 51
c28.667 0 49.333 5.83301 62 17.5s19 26.834 19 45.501v398c0 16.667 -5.66699 31 -17 43s-33 18 -65 18c-30 0 -50.5 -5.83301 -61.5 -17.5s-16.5 -25.834 -16.5 -42.501v-400c0 -18 6.33301 -32.833 19 -44.5s32.667 -17.5 60 -17.5zM80.998 678
c0 28.667 5.5 49.833 16.5 63.5s25.167 20.5 42.5 20.5c14.667 0 27 -3.33301 37 -10s19.5 -13.5 28.5 -20.5s18.5 -10.5 28.5 -10.5c12.667 0 21.167 4.33301 25.5 13s6.5 18 6.5 28h33c0 -30 -6.16699 -51.167 -18.5 -63.5s-25.833 -18.5 -40.5 -18.5
c-14 0 -26 3.66699 -36 11s-19.167 14.5 -27.5 21.5s-17.833 10.5 -28.5 10.5c-10 0 -17.833 -4 -23.5 -12s-8.5 -19 -8.5 -33h-35zM75.998 793.999v42h228v-42h-228z" />
    </font>
</defs>
</svg>
